<?xml version="1.0" standalone="no"?>
<!DOCTYPE svg PUBLIC "-//W3C//DTD SVG 1.1//EN" "http://www.w3.org/Graphics/SVG/1.1/DTD/svg11.dtd" >
<svg xmlns="http://www.w3.org/2000/svg">
<metadata></metadata>
<defs>
<font id="daxwideregular" horiz-adv-x="601" >
<font-face units-per-em="1000" ascent="800" descent="-200" />
<missing-glyph horiz-adv-x="301" />
<glyph unicode="&#xd;" horiz-adv-x="301" />
<glyph unicode=" "  horiz-adv-x="301" />
<glyph unicode="&#x09;" horiz-adv-x="301" />
<glyph unicode="&#xa0;" horiz-adv-x="301" />
<glyph unicode="!" horiz-adv-x="290" d="M98 49q0 23 17.5 39t41.5 16t41.5 -16t17.5 -39t-17.5 -39.5t-41.5 -16.5t-41.5 16.5t-17.5 39.5zM106 688h102l-19 -465h-64z" />
<glyph unicode="&#x22;" horiz-adv-x="389" d="M70 678q16 19 42 19t42 -19l-20 -248h-44zM235 678q16 19 43 19q25 0 41 -19l-20 -248h-44z" />
<glyph unicode="#" horiz-adv-x="639" d="M40 229v44h134l34 160h-123v44h134l43 211h51l-43 -211h151l43 211h51l-43 -211h127v-44h-137l-34 -160h126v-44h-136l-46 -229h-52l47 229h-150l-49 -229h-51l48 229h-125zM225 273h151l35 160h-151z" />
<glyph unicode="$" d="M78 24l27 60q24 -13 59.5 -23t87.5 -10q37 0 69 10t55 28t36 43.5t13 55.5q0 43 -24.5 68t-62 42.5t-80.5 32t-80.5 35.5t-62 53.5t-24.5 87.5q0 36 13.5 69t40 59t64 43t85.5 21l-8 122h55l-9 -121q53 -1 92 -11t65 -25l-26 -54q-22 11 -55 22t-77 11q-70 0 -111.5 -36 t-41.5 -93q0 -41 25 -65t62.5 -40.5t81.5 -31t81.5 -36.5t62.5 -56.5t25 -91.5q0 -41 -15.5 -76.5t-43.5 -62.5t-67 -44.5t-87 -21.5l8 -130h-57l8 129q-52 0 -97 7.5t-87 29.5z" />
<glyph unicode="%" horiz-adv-x="981" d="M70 466q0 39 7 80.5t25 76t48.5 56.5t77.5 22t77.5 -22t48.5 -56.5t25 -76t7 -80.5t-7 -81t-25 -76.5t-48.5 -56.5t-77.5 -22t-77.5 22t-48.5 56.5t-25 76.5t-7 81zM130 469q0 -30 3.5 -64.5t14 -64t30 -48.5t50.5 -19t50.5 19t30 48.5t14 64t3.5 64.5t-3.5 64.5t-14 64 t-30 48.5t-50.5 19t-50.5 -19t-30 -48.5t-14 -64t-3.5 -64.5zM329 7l279 689l43 -16l-277 -689zM596 223q0 39 7 80.5t25 76t48.5 56.5t77.5 22t77.5 -22t48 -56.5t24.5 -76t7 -80.5t-7 -81t-24.5 -76.5t-48 -56.5t-77.5 -22t-77.5 22t-48.5 56.5t-25 76.5t-7 81zM656 226 q0 -30 3.5 -65t14 -64t30 -48.5t50.5 -19.5t50.5 19.5t30 48.5t14 64t3.5 65t-3.5 64.5t-14 64t-30 48.5t-50.5 19t-50.5 -19t-30 -48.5t-14 -64t-3.5 -64.5z" />
<glyph unicode="&#x26;" horiz-adv-x="725" d="M58 187q0 75 58 127t158 76v2q-78 17 -121 56.5t-43 96.5q0 33 15 61.5t43.5 49.5t69 33t91.5 12q54 0 97.5 -12t65.5 -25l-27 -48q-16 9 -48.5 19.5t-70.5 10.5q-74 0 -111.5 -29.5t-37.5 -76.5q0 -27 14 -48t37 -35.5t53.5 -22t63.5 -7.5q40 0 81 6.5t81.5 17.5t78 25 t69.5 29l23 -52q-23 -10 -59.5 -20.5t-69.5 -18.5v-390q-29 -16 -85 -26.5t-128 -10.5q-68 0 -123 14t-94 40t-60 63t-21 83zM150 191q0 -69 55 -110t155 -41q81 0 125 15v343q-82 -17 -144.5 -35t-105 -42t-64 -55.5t-21.5 -74.5z" />
<glyph unicode="'" horiz-adv-x="224" d="M70 678q16 19 42 19t42 -19l-20 -248h-44z" />
<glyph unicode="(" horiz-adv-x="405" d="M72 286q0 63 15 125t45.5 124t77.5 127t111 134l44 -24q-44 -53 -80.5 -110t-63 -118t-41.5 -125.5t-15 -132.5t15 -133t41.5 -125.5t63 -118t80.5 -110.5l-44 -24q-64 69 -111 134t-77.5 127.5t-45.5 124.5t-15 125z" />
<glyph unicode=")" horiz-adv-x="404" d="M40 -201q43 53 80 110.5t63.5 118t41.5 125.5t15 133t-15 132.5t-41.5 125.5t-63.5 118t-80 110l43 24q64 -69 110.5 -134t77.5 -127t46 -124t15 -125t-15 -125t-46 -124.5t-77.5 -127.5t-110.5 -134z" />
<glyph unicode="*" horiz-adv-x="460" d="M52 662q0 19 14 32.5t33 13.5t32.5 -13.5t13.5 -32.5t-13.5 -31t-32.5 -12t-33 12t-14 31zM95 517q0 19 14 31.5t33 12.5q20 0 33 -12.5t13 -31.5t-13.5 -32t-32.5 -13t-33 13t-14 32zM183 753q0 19 14 32.5t33 13.5t33 -13.5t14 -32.5t-14 -31t-33 -12t-33 12t-14 31z M190 622q0 17 11.5 27.5t28.5 10.5t28.5 -10.5t11.5 -27.5t-11.5 -28t-28.5 -11t-28.5 11t-11.5 28zM270 517q0 19 13.5 31t32.5 12t33 -12t14 -31t-14 -32.5t-33 -13.5t-32.5 13.5t-13.5 32.5zM315 662q0 19 13 32t32 13t33.5 -13t14.5 -32t-14 -31.5t-34 -12.5 q-19 0 -32 12.5t-13 31.5z" />
<glyph unicode="+" d="M74 306v59h195v178h61v-178h197v-59h-197v-179h-61v179h-195z" />
<glyph unicode="," horiz-adv-x="260" d="M3 -169l92 241q10 11 23.5 18.5t33.5 7.5q19 0 28 -8.5t11 -17.5l-137 -241h-51z" />
<glyph unicode="-" horiz-adv-x="400" d="M65 305v65h270v-65h-270z" />
<glyph unicode="." horiz-adv-x="255" d="M69 49q0 23 17.5 39t41.5 16t41 -16t17 -39t-17 -39.5t-41 -16.5t-41.5 16.5t-17.5 39.5z" />
<glyph unicode="/" horiz-adv-x="491" d="M14 -110l401 907l58 -25l-401 -906z" />
<glyph unicode="0" d="M57 344q0 58 10.5 121t37.5 115.5t74 86.5t121 34t121.5 -34t74.5 -86.5t37.5 -115.5t10.5 -121t-10.5 -121t-37.5 -115.5t-74.5 -86.5t-121.5 -34t-121 34t-74 86.5t-37.5 115.5t-10.5 121zM140 344q0 -46 6.5 -99t24 -98t48.5 -75t81 -30t81.5 30t49 75t24 98t6.5 99 t-6.5 99.5t-24 99.5t-49 77t-81.5 31t-81 -31t-48.5 -77t-24 -99.5t-6.5 -99.5z" />
<glyph unicode="1" d="M93 582q107 12 169.5 42t87.5 64h59v-688h-86v584q-18 -9 -45 -17.5t-57 -15t-61 -11t-56 -6.5z" />
<glyph unicode="2" d="M40 0l289 337q50 58 68.5 100t18.5 74q0 65 -47.5 97.5t-130.5 32.5q-46 0 -84.5 -9t-65.5 -20l-25 52q34 14 81.5 25.5t116.5 11.5q57 0 102.5 -13t78 -37t49.5 -58t17 -76q0 -38 -24 -88.5t-80 -111.5l-230 -251h344v-66h-478z" />
<glyph unicode="3" d="M45 24l27 56q25 -12 66.5 -22t91.5 -10q42 0 77 10.5t61 30t40.5 47t14.5 62.5q0 51 -26.5 81.5t-64.5 46t-80.5 19.5t-74.5 3v46q46 3 85.5 14t68.5 29.5t46 43.5t17 55q0 29 -13 49.5t-34.5 33t-48.5 18.5t-55 6q-47 0 -87 -9.5t-65 -20.5l-27 51q29 13 76 25t115 12 q45 0 86.5 -10.5t72.5 -30t49.5 -48.5t18.5 -66q0 -36 -17.5 -64t-42 -47.5t-51 -31.5t-44.5 -17v-2q31 -7 64.5 -20t61.5 -35t45.5 -54t17.5 -77q0 -47 -20.5 -86t-57 -67t-86 -43t-107.5 -15q-71 0 -120.5 11.5t-79.5 25.5z" />
<glyph unicode="4" d="M55 159v53l328 476h80v-481h81v-48h-81v-159h-79v159h-329zM119 207h265v298v38.5t1 32.5q1 16 2 30h-2q-5 -11 -13 -24q-7 -11 -16.5 -27t-23.5 -36z" />
<glyph unicode="5" d="M55 24l26 56q26 -12 68.5 -22t91.5 -10q34 0 67.5 9.5t60.5 28.5t44 47.5t17 67.5q0 38 -15 72t-53 56.5t-102.5 29.5t-164.5 -9l33 338h374v-66h-314l-19 -219q93 13 159.5 2.5t109.5 -38.5t63.5 -71t20.5 -94q0 -52 -22.5 -92t-60 -67.5t-85.5 -41.5t-99 -14 q-66 0 -115 10t-85 27z" />
<glyph unicode="6" d="M59 249q0 78 22.5 140t57.5 110t79.5 83.5t88.5 59.5t83 38t65 20l21 -52q-29 -8 -73.5 -26t-90.5 -49.5t-86.5 -78t-62.5 -112.5q24 10 59.5 19t71.5 9q47 0 92 -10.5t80.5 -35.5t57.5 -65t22 -99q0 -41 -15 -79.5t-45 -68t-75 -47.5t-106 -18t-107 18.5t-77 53 t-46.5 83t-15.5 107.5zM140 247q0 -45 10.5 -83t31.5 -65.5t52.5 -42.5t72.5 -15q40 0 69 14t48.5 37t29 52t9.5 59q0 45 -15.5 76t-42 50.5t-60.5 28.5t-71 9q-35 0 -70 -10t-55 -20q-9 -41 -9 -90z" />
<glyph unicode="7" d="M64 622v66h495l-110 -215q-34 -66 -67 -135t-62 -132.5t-51 -117t-33 -88.5h-109l325 622h-388z" />
<glyph unicode="8" d="M58 166q0 31 9 58t29.5 51t55 46t85.5 43q-83 36 -117 78t-34 97q0 36 16.5 66t45.5 51t68 33t84 12t84 -12t68 -33t45.5 -51t16.5 -66q0 -51 -34 -93.5t-117 -77.5q53 -22 87.5 -45t55 -47.5t28.5 -52t8 -57.5q0 -38 -18 -70.5t-50.5 -56.5t-77 -38t-96.5 -14 q-48 0 -91.5 12.5t-77 35.5t-53.5 56.5t-20 74.5zM136 167q0 -28 14 -51t36.5 -40t52 -26.5t61.5 -9.5q34 0 63 10t51 27t34.5 40t12.5 49q0 25 -6 47t-23.5 43t-49.5 41.5t-84 41.5q-50 -21 -81.5 -41.5t-49.5 -41.5t-24.5 -43t-6.5 -46zM161 540q0 -23 7.5 -42.5t24.5 -37 t44 -34t66 -32.5q78 32 108 67t30 78q0 25 -10.5 46t-29 36.5t-44.5 24t-56 8.5q-31 0 -56.5 -8.5t-44 -24t-29 -36.5t-10.5 -45z" />
<glyph unicode="9" d="M55 489q0 40 15 78t45 68t75.5 48t105.5 18q61 0 107 -18.5t77 -53t46.5 -83t15.5 -107.5q0 -77 -22.5 -139.5t-58 -110.5t-80 -83.5t-88.5 -59.5t-83.5 -38.5t-64.5 -19.5l-20 52q34 10 79.5 29.5t90.5 51t84 78.5t60 113q-24 -10 -58.5 -18.5t-74.5 -8.5q-47 0 -92 10 t-80.5 33.5t-57 62.5t-21.5 98zM137 489q0 -45 15.5 -75t42 -48.5t60.5 -26t71 -7.5q35 0 70.5 9.5t56.5 19.5q4 19 5.5 40t1.5 44q0 45 -10.5 83t-31.5 65.5t-52.5 42.5t-72.5 15q-40 0 -69.5 -14.5t-48.5 -37.5t-28.5 -52t-9.5 -58z" />
<glyph unicode=":" horiz-adv-x="255" d="M69 49q0 23 17.5 39t41.5 16t41 -16t17 -39t-17 -39.5t-41 -16.5t-41.5 16.5t-17.5 39.5zM69 357q0 23 17.5 39t41.5 16t41 -16t17 -39t-17 -39t-41 -16t-41.5 16t-17.5 39z" />
<glyph unicode=";" horiz-adv-x="260" d="M3 -169l92 241q10 11 23.5 18.5t33.5 7.5q19 0 28 -8.5t11 -17.5l-137 -241h-51zM73 357q0 23 17.5 39t41.5 16t41.5 -16t17.5 -39t-17.5 -39t-41.5 -16t-41.5 16t-17.5 39z" />
<glyph unicode="&#x3c;" d="M74 311v55l453 169v-62l-377 -135l377 -135v-61z" />
<glyph unicode="=" d="M74 219v56h453v-56h-453zM74 394v56h453v-56h-453z" />
<glyph unicode="&#x3e;" d="M74 142v61l376 135l-376 135v62l453 -169v-55z" />
<glyph unicode="?" horiz-adv-x="446" d="M42 663q27 14 69.5 26t96.5 12q105 0 164.5 -44.5t59.5 -119.5q0 -34 -18 -61.5t-44.5 -48.5t-57 -34.5t-55.5 -19.5l-11 -150h-65l-14 176q27 5 57.5 15.5t57 27t44 39.5t17.5 52q0 48 -36.5 79t-112.5 31q-41 0 -73 -9t-52 -18zM155 49q0 23 17.5 39t41.5 16t41 -16 t17 -39t-17 -39.5t-41 -16.5t-41.5 16.5t-17.5 39.5z" />
<glyph unicode="@" horiz-adv-x="1036" d="M60 185q0 103 43.5 197t118.5 164.5t176.5 112.5t217.5 42q78 0 144 -21t114 -61t75 -97t27 -130q0 -104 -36.5 -180t-97 -126t-138.5 -74.5t-160 -24.5q-72 0 -122.5 15t-82.5 43t-46.5 67t-14.5 86q0 66 25 122.5t66.5 97t95 63.5t109.5 23q32 0 57.5 -6t45.5 -14.5 t34.5 -18.5t24.5 -18l-109 -406q26 3 58 12t64.5 26.5t64 44t55.5 64.5t39 88t15 115q0 63 -22 113t-62.5 84.5t-97.5 53t-127 18.5q-109 0 -201 -40t-158.5 -106t-104 -152t-37.5 -178q0 -86 29.5 -150.5t83.5 -107.5t129 -65t167 -22q70 0 127 9.5t105.5 27.5t91.5 45.5 t85 63.5l26 -33q-42 -38 -87 -66.5t-97.5 -48.5t-114.5 -30t-137 -10q-105 0 -190 25.5t-145.5 75t-93 121.5t-32.5 166zM341 198q0 -85 55.5 -127t164.5 -36l108 394q-11 11 -35.5 22t-66.5 11q-41 0 -81 -20t-72.5 -55t-52.5 -83.5t-20 -105.5z" />
<glyph unicode="A" horiz-adv-x="699" d="M21 0l289 688h79l289 -688h-98l-85 213h-299l-85 -213h-90zM213 264h265l-103 265q-8 20 -13.5 37t-8.5 28q-4 13 -6 24h-2q-3 -11 -7 -24q-4 -11 -9 -28t-13 -37z" />
<glyph unicode="B" horiz-adv-x="632" d="M78 24v640q32 15 86 26t120 11t115 -13t81.5 -36.5t49 -55.5t16.5 -69t-13.5 -65t-35 -48t-49 -32t-55.5 -16v-2q29 -4 61.5 -17.5t59.5 -36t45 -54t18 -71.5q0 -52 -21 -89.5t-59 -61.5t-90 -35.5t-113 -11.5q-69 0 -125.5 10.5t-90.5 26.5zM165 62q22 -8 53.5 -14.5 t70.5 -6.5q41 0 76.5 7.5t62 24.5t42 44t15.5 66q0 82 -61 119.5t-197 37.5h-34t-28 -1v-277zM165 386q10 -1 28.5 -1.5t33.5 -0.5q64 0 108 8.5t71.5 26t39.5 43t12 59.5q0 65 -45 98t-131 33q-33 0 -63 -5.5t-54 -14.5v-246z" />
<glyph unicode="C" horiz-adv-x="578" d="M59 344q0 72 22.5 137t63.5 113.5t100 77.5t131 29q54 0 94 -10.5t66 -26.5l-25 -52q-18 11 -48.5 20t-69.5 9q-60 0 -105 -25.5t-75 -67t-45 -95t-15 -109.5q0 -57 16.5 -110.5t47.5 -94t76 -65t102 -24.5q38 0 66 8t50 19l25 -53q-23 -15 -65.5 -26t-92.5 -11 q-72 0 -131 28t-100.5 76.5t-64.5 113.5t-23 139z" />
<glyph unicode="D" horiz-adv-x="685" d="M78 24v640q32 14 83.5 25.5t122.5 11.5q82 0 146 -24.5t107.5 -70t66 -110.5t22.5 -145t-21 -147t-63 -115t-105.5 -75t-148.5 -27q-70 0 -124.5 11.5t-85.5 25.5zM168 66q17 -8 49 -14t65 -6q128 0 189 79t61 227q0 144 -65.5 219.5t-186.5 75.5q-34 0 -62.5 -5 t-49.5 -13v-563z" />
<glyph unicode="E" horiz-adv-x="501" d="M78 0v688h377v-56h-287v-248h259v-56h-259v-271h287v-57h-377z" />
<glyph unicode="F" horiz-adv-x="493" d="M78 0v688h375v-56h-285v-248h259v-56h-259v-328h-90z" />
<glyph unicode="G" horiz-adv-x="699" d="M59 349q0 87 28.5 153t77 110.5t112.5 66.5t134 22q73 0 118.5 -11.5t73.5 -25.5l-24 -52q-20 11 -63.5 20t-94.5 9q-57 0 -106 -17.5t-85 -54.5t-56.5 -93t-20.5 -134q0 -72 20 -127.5t54.5 -93t80.5 -57t98 -19.5q43 0 77 6.5t50 14.5v264h-153v54h241v-360 q-35 -17 -89.5 -27t-126.5 -10t-135 22t-110 67t-74 113t-27 160z" />
<glyph unicode="H" horiz-adv-x="673" d="M78 0v688h90v-304h337v304h90v-688h-90v328h-337v-328h-90z" />
<glyph unicode="I" horiz-adv-x="258" d="M84 0v688h90v-688h-90z" />
<glyph unicode="J" horiz-adv-x="258" d="M-75 -164q30 7 58.5 23t51 39.5t36 54.5t13.5 69v666h90v-662q0 -55 -20.5 -98t-55 -74.5t-79.5 -51t-94 -25.5v59z" />
<glyph unicode="K" horiz-adv-x="607" d="M82 0v688h89v-318h2l310 318h101l-323 -317l336 -371h-111l-313 362h-2v-362h-89z" />
<glyph unicode="L" horiz-adv-x="473" d="M82 0v688h90v-631h269v-57h-359z" />
<glyph unicode="M" horiz-adv-x="912" d="M55 0l104 688h94l177 -512q6 -17 10 -31t7 -25q3 -12 5 -22h2q1 10 5 22q4 19 17 56l183 512h94l104 -688h-88q0 1 -3 24.5t-8 61t-11.5 84.5t-13.5 97q-16 116 -35 263q-2 16 -3 31t-2 26q-1 13 -1 24h-2q-2 -11 -6 -24q-3 -11 -7.5 -26t-9.5 -31q-53 -147 -93 -262 q-18 -49 -34.5 -96.5t-30 -85t-21.5 -61.5t-9 -25h-57q-1 1 -9 24.5t-21.5 61t-30 85t-33.5 97.5q-40 116 -92 263q-5 15 -9 29.5t-7 25.5q-4 13 -6 25l-2 -1q0 -11 -1 -24q-1 -11 -2.5 -25.5t-3.5 -29.5q-21 -147 -37 -263q-7 -50 -13.5 -97.5t-11.5 -85t-8 -61t-3 -24.5 h-77z" />
<glyph unicode="N" horiz-adv-x="728" d="M78 0v688h95l358 -507q11 -16 19.5 -29t14.5 -23q7 -11 12 -21h2q-1 11 -2 25q-1 11 -1.5 26.5t-0.5 32.5v496h75v-688h-80l-371 529q-10 14 -18.5 27t-14.5 23q-7 11 -13 22h-3q1 -13 2 -27q1 -12 1.5 -27.5t0.5 -32.5v-514h-76z" />
<glyph unicode="O" horiz-adv-x="725" d="M59 344q0 73 18 138t55.5 113.5t94.5 77t136 28.5t136 -28.5t94 -77t55 -113.5t18 -138q0 -74 -18 -139t-55 -113.5t-94 -76.5t-136 -28t-136 28t-94.5 76.5t-55.5 113.5t-18 139zM153 346q0 -53 10.5 -106t34.5 -95t64.5 -68.5t100.5 -26.5t100.5 26.5t64.5 68.5t34 95 t10 106q0 54 -11 107t-35.5 96t-64.5 69.5t-98 26.5t-98 -26.5t-65 -69.5t-36 -96t-11 -107z" />
<glyph unicode="P" horiz-adv-x="597" d="M78 0v664q35 16 88.5 26.5t112.5 10.5q70 0 121.5 -16t85 -44t49.5 -66.5t16 -83.5q0 -43 -16 -80.5t-50.5 -65.5t-89 -44t-132.5 -16q-25 0 -52 2t-44 4v-291h-89zM167 344q17 -4 42 -6t50 -2q55 0 93.5 11.5t63 32t35.5 49.5t11 64q0 76 -46 117t-144 41 q-34 0 -61.5 -6t-43.5 -13v-288z" />
<glyph unicode="Q" horiz-adv-x="725" d="M59 346q0 73 18 137.5t55.5 113t94.5 76.5t136 28t136.5 -28t94.5 -76.5t54.5 -113t17.5 -137.5q0 -53 -10.5 -102.5t-31.5 -92.5t-53 -78t-75 -59l144 -152l-73 -56l-127 189q-23 -5 -40 -6.5t-37 -1.5q-79 0 -136 28.5t-94.5 77.5t-55.5 114.5t-18 138.5zM153 349 q0 -53 10 -106.5t34 -96.5t64.5 -70.5t101.5 -27.5t101 27.5t64 70.5t34 96.5t10 106.5t-10 106t-34.5 95t-64.5 68.5t-100 26.5t-100 -26.5t-64.5 -68.5t-35 -95t-10.5 -106z" />
<glyph unicode="R" horiz-adv-x="613" d="M81 0v664q33 15 85.5 26t111.5 11q132 0 200.5 -53.5t68.5 -147.5q0 -93 -65.5 -141t-191.5 -51v-2l279 -306h-111l-286 334h-2v-334h-89zM170 346q14 -4 36.5 -6.5t46.5 -2.5q103 0 153.5 41t50.5 119q0 79 -45 116.5t-136 37.5q-34 0 -61.5 -6t-44.5 -14v-285z" />
<glyph unicode="S" horiz-adv-x="543" d="M43 24l27 60q24 -12 63.5 -22.5t85.5 -10.5q37 0 69 10t55.5 28t36.5 43.5t13 55.5q0 43 -24.5 68t-61.5 42.5t-80.5 32t-80.5 35.5t-61.5 53.5t-24.5 87.5q0 39 16.5 74t47 61.5t74 42.5t97.5 16q57 0 101.5 -11.5t68.5 -25.5l-25 -54q-20 12 -57 22.5t-78 10.5 q-70 0 -112 -36t-42 -93q0 -41 25 -65t62 -40.5t81 -31t81 -36.5t62 -56.5t25 -91.5q0 -45 -19 -83t-52.5 -65t-79.5 -42.5t-101 -15.5q-63 0 -113 11t-79 26z" />
<glyph unicode="T" horiz-adv-x="527" d="M30 632v56h467v-56h-189v-632h-89v632h-189z" />
<glyph unicode="U" horiz-adv-x="657" d="M78 193v495h90v-495q0 -34 14 -60t37.5 -44t53 -27t60.5 -9t60.5 9t52.5 27t37 44t14 60v495h82v-495q0 -44 -17.5 -81.5t-49.5 -65t-79 -43.5t-105 -16q-59 0 -105 16t-78.5 43.5t-49.5 65t-17 81.5z" />
<glyph unicode="V" horiz-adv-x="620" d="M26 688h98l165 -494q5 -17 9.5 -33.5t8.5 -30.5q4 -16 7 -31h2q3 15 7 31q4 14 8.5 30.5t10.5 33.5l165 494h89l-247 -688h-72z" />
<glyph unicode="W" horiz-adv-x="958" d="M38 688h95l133 -509q4 -15 6.5 -29t4.5 -25q2 -13 4 -24h2q2 11 5 24q2 11 5.5 25t8.5 29l150 509h64l150 -509q4 -14 7.5 -28t5.5 -25q3 -13 4 -25h2q1 12 4 25q3 23 11 53l139 509h83l-201 -688h-73l-149 495q-5 16 -8.5 30.5t-5.5 25.5q-3 13 -4 25h-2q-1 -12 -4 -25 q-2 -11 -5 -25.5t-8 -30.5l-149 -495h-72z" />
<glyph unicode="X" horiz-adv-x="622" d="M26 0l238 356l-213 332h101l160 -264h2l172 264h91l-219 -322l238 -366h-105l-181 295h-2l-186 -295h-96z" />
<glyph unicode="Y" horiz-adv-x="597" d="M19 688h98l185 -317h2l189 317h87l-237 -381v-307h-89v307z" />
<glyph unicode="Z" horiz-adv-x="505" d="M25 0l316 632h-299v56h421l-312 -631h320v-57h-446z" />
<glyph unicode="[" horiz-adv-x="348" d="M80 -215v1000h218v-48h-141v-903h141v-49h-218z" />
<glyph unicode="\" horiz-adv-x="491" d="M18 772l58 25l401 -907l-58 -24z" />
<glyph unicode="]" horiz-adv-x="348" d="M50 -166h141v903h-141v48h218v-1000h-218v49z" />
<glyph unicode="^" horiz-adv-x="638" d="M97 481l173 190q24 25 49 25q26 0 49 -25l173 -190l-30 -28l-192 184l-192 -184z" />
<glyph unicode="_" horiz-adv-x="603" d="M-10 -142h623v-52h-623v52z" />
<glyph unicode="`" horiz-adv-x="263" d="M10 734q4 9 14.5 13t25 4t29.5 -4t28 -12l86 -136h-49z" />
<glyph unicode="a" horiz-adv-x="563" d="M47 146q0 55 29 91.5t78.5 59.5t115.5 35.5t140 18.5v33q0 33 -11.5 54.5t-31.5 35t-47.5 19t-60.5 5.5q-41 0 -83.5 -9.5t-68.5 -21.5l-22 48q28 12 78.5 24.5t110.5 12.5q45 0 84.5 -9t69 -29.5t46.5 -54t17 -82.5v-353q-36 -17 -89 -27t-119 -10q-122 0 -179 43.5 t-57 115.5zM130 148q0 -60 44 -87t118 -27q37 0 67.5 6t50.5 16v253q-63 -7 -115 -16.5t-88.5 -27t-56.5 -46t-20 -71.5z" />
<glyph unicode="b" horiz-adv-x="595" d="M72 24v761h85v-261q23 10 57.5 18t82.5 8q55 0 100.5 -19.5t78 -55.5t50.5 -86t18 -111q0 -65 -18.5 -118.5t-54.5 -91.5t-89.5 -59.5t-123.5 -21.5q-63 0 -110.5 10.5t-75.5 26.5zM157 59q19 -8 43 -14t59 -6q51 0 88.5 18t62 49.5t36.5 75t12 94.5q0 46 -11 87t-34 72 t-57.5 49t-81.5 18q-38 0 -66 -5.5t-51 -16.5v-421z" />
<glyph unicode="c" horiz-adv-x="480" d="M51 270q0 66 19 118.5t52.5 88.5t79 55.5t98.5 19.5q54 0 89 -11.5t54 -25.5l-22 -48q-14 10 -40.5 19.5t-61.5 9.5q-45 0 -78.5 -17t-56 -46.5t-34 -70.5t-11.5 -89q0 -50 12.5 -91.5t36 -71.5t56 -46.5t72.5 -16.5q33 0 59.5 9t44.5 20l23 -52q-19 -14 -55.5 -25.5 t-90.5 -11.5q-52 0 -97 20t-78 56.5t-52 89t-19 117.5z" />
<glyph unicode="d" horiz-adv-x="595" d="M51 260q0 67 20 120.5t56.5 91t88 57t113.5 19.5q31 0 59 -3.5t50 -8.5v249h85v-761q-31 -16 -80 -26.5t-114 -10.5q-69 0 -121.5 19t-87 54.5t-52 86t-17.5 113.5zM138 267q0 -51 11 -93t35 -72t61 -46t89 -16q33 0 60.5 6t43.5 15v431q-39 9 -91 9q-57 0 -97 -20 t-65 -53t-36 -75t-11 -86z" />
<glyph unicode="e" horiz-adv-x="597" d="M51 271q0 69 19 122t53 88t81 53t102 18q112 0 176 -64.5t64 -199.5l-413 -51q8 -96 62 -143.5t144 -47.5q54 0 94.5 10.5t64.5 22.5l25 -55q-28 -14 -77.5 -25.5t-112.5 -11.5q-62 0 -113.5 17t-89 52t-58.5 88.5t-21 126.5zM129 282l333 42q0 47 -11.5 80.5t-32.5 55 t-50.5 31.5t-64.5 10q-36 0 -67.5 -13t-55.5 -40t-37.5 -68t-13.5 -98z" />
<glyph unicode="f" horiz-adv-x="362" d="M40 491v48h87v78q0 37 12 68t35 53.5t58 35t82 12.5q3 0 6.5 -0.5t6.5 -0.5h7v-50h-10q-22 0 -42.5 -6.5t-36 -20t-24.5 -34t-9 -48.5v-87h122v-48h-122v-491h-85v491h-87z" />
<glyph unicode="g" horiz-adv-x="595" d="M51 260q0 64 18 117.5t54 92.5t89.5 60.5t124.5 21.5q60 0 110 -11.5t76 -25.5v-529q0 -50 -17 -89.5t-48.5 -67.5t-76.5 -42.5t-102 -14.5q-64 0 -118.5 11.5t-84.5 25.5l25 53q26 -12 72 -21.5t94 -9.5q89 0 130.5 41.5t41.5 104.5v38q-21 -11 -58 -17.5t-80 -6.5 q-57 0 -103.5 19t-79 54t-50 84.5t-17.5 111.5zM138 262q0 -106 47.5 -164.5t141.5 -58.5q32 0 62.5 6.5t49.5 16.5v421q-17 8 -42.5 14t-61.5 6q-50 0 -86.5 -17.5t-61.5 -49t-37 -76t-12 -98.5z" />
<glyph unicode="h" horiz-adv-x="596" d="M72 0v785h86v-267q29 13 65.5 23.5t85.5 10.5q61 0 102 -14.5t66 -37t36 -51t11 -56.5v-393h-85v391q0 20 -8 39.5t-26 35t-46 25t-67 9.5q-38 0 -74.5 -9t-59.5 -20v-471h-86z" />
<glyph unicode="i" horiz-adv-x="244" d="M68 690q0 20 15.5 34.5t38.5 14.5t38.5 -14.5t15.5 -34.5t-15.5 -34t-38.5 -14t-38.5 14t-15.5 34zM79 0v539h86v-539h-86z" />
<glyph unicode="j" horiz-adv-x="249" d="M-43 -169q25 8 48.5 22.5t40.5 37.5t27.5 55.5t10.5 76.5v516h86v-511q0 -57 -18 -102t-48 -76.5t-68.5 -50t-78.5 -22.5v54zM73 690q0 20 15.5 34.5t38.5 14.5t38.5 -14.5t15.5 -34.5t-15.5 -34t-38.5 -14t-38.5 14t-15.5 34z" />
<glyph unicode="k" horiz-adv-x="545" d="M78 0v785h84v-480h1l254 234h97l-265 -234l289 -305h-103l-272 299h-1v-299h-84z" />
<glyph unicode="l" horiz-adv-x="244" d="M79 0v785h86v-785h-86z" />
<glyph unicode="m" horiz-adv-x="957" d="M72 0v515q39 16 94.5 26.5t122.5 10.5q74 0 119.5 -18t74.5 -48q34 29 83 47.5t114 18.5q57 0 96 -14.5t63.5 -38t35 -52t10.5 -55.5v-392h-85v391q0 21 -8 40.5t-24.5 34.5t-42 24.5t-61.5 9.5q-86 0 -142 -52v-448h-86v395q0 47 -39 75.5t-111 28.5q-42 0 -73.5 -5.5 t-54.5 -14.5v-479h-86z" />
<glyph unicode="n" horiz-adv-x="596" d="M72 0v515q38 16 95 26.5t120 10.5q49 0 92 -8.5t75.5 -27t51 -49t18.5 -74.5v-393h-85v391q0 30 -14 51t-36.5 34t-51.5 18.5t-60 5.5q-35 0 -66.5 -5.5t-52.5 -14.5v-480h-86z" />
<glyph unicode="o" horiz-adv-x="605" d="M51 269q0 60 15 111.5t46 89.5t78.5 60t112.5 22t112.5 -22t78 -60t45.5 -89.5t15 -111.5t-15 -111.5t-45.5 -89.5t-78 -59.5t-112.5 -21.5t-112.5 21.5t-78.5 59.5t-46 89.5t-15 111.5zM138 269q0 -42 8 -82t27.5 -72t51 -51.5t78.5 -19.5q48 0 80 19.5t50.5 51.5 t26.5 72t8 82t-8 83t-26.5 73.5t-50.5 53t-80 20.5t-80 -20.5t-50.5 -53t-26.5 -73.5t-8 -83z" />
<glyph unicode="p" horiz-adv-x="595" d="M72 -215v730q31 15 79.5 26t113.5 11q68 0 120 -19.5t87.5 -55t53.5 -86t18 -112.5q0 -68 -20 -121.5t-56.5 -91.5t-88 -58t-114.5 -20q-27 0 -58.5 4t-49.5 9v-216h-85zM157 50q15 -5 40 -8.5t50 -3.5q100 0 155.5 63.5t55.5 172.5q0 53 -10.5 95.5t-34 72t-61 45.5 t-91.5 16q-35 0 -61 -6.5t-43 -14.5v-432z" />
<glyph unicode="q" horiz-adv-x="595" d="M51 257q0 63 17.5 116.5t53 93.5t89 62.5t126.5 22.5q65 0 112 -11.5t74 -25.5v-730h-83v229q-23 -11 -60.5 -18t-79.5 -7q-57 0 -103.5 19t-78.5 53.5t-49.5 84t-17.5 111.5zM138 262q0 -105 47 -164t141 -59q32 0 63.5 6.5t50.5 16.5v421q-19 9 -46 14.5t-59 5.5 q-50 0 -87 -17.5t-61.5 -49t-36.5 -76t-12 -98.5z" />
<glyph unicode="r" horiz-adv-x="363" d="M72 0v515q23 9 47 16t52 11.5t61 7t74 2.5h24t20 -1l-22 -62q-20 5 -44 7q-16 1 -32 1h-16q-24 -1 -44 -5.5t-34 -12.5v-479h-86z" />
<glyph unicode="s" horiz-adv-x="472" d="M39 24l26 55q19 -12 54 -22.5t78 -10.5q29 0 54 8t43.5 21.5t29 31.5t10.5 39q0 36 -20.5 57t-50.5 34.5t-66 24t-66 27t-50.5 43t-20.5 72.5q0 28 13 54.5t38 47.5t61 33.5t83 12.5q50 0 88 -11t62 -26l-25 -50q-14 9 -43.5 20.5t-68.5 11.5q-28 0 -51 -7.5t-39 -19.5 t-25 -28.5t-9 -34.5q0 -34 20.5 -53t51.5 -32t67.5 -24.5t67.5 -29t51.5 -45.5t20.5 -75q0 -30 -15.5 -59t-44 -51.5t-68.5 -36.5t-89 -14q-52 0 -97.5 11t-69.5 26z" />
<glyph unicode="t" horiz-adv-x="372" d="M40 491v48h87v125l85 26v-151h122v-48h-122v-364q0 -32 23.5 -57t69.5 -25q14 0 29 3v-51q-8 -2 -22 -5t-31 -3q-43 0 -72.5 12t-47.5 31.5t-26 44t-8 48.5v366h-87z" />
<glyph unicode="u" horiz-adv-x="584" d="M72 167v372h86v-374q0 -52 35.5 -86.5t106.5 -34.5q42 0 74.5 6t52.5 16v473h85v-515q-29 -14 -87 -25.5t-132 -11.5q-59 0 -101 13.5t-68.5 37.5t-39 57t-12.5 72z" />
<glyph unicode="v" horiz-adv-x="562" d="M30 539h95l142 -396q5 -14 8 -26.5t6 -22.5l6 -22h2q2 11 5 22q2 10 6 22.5t9 26.5l140 396h85l-209 -539h-81z" />
<glyph unicode="w" horiz-adv-x="897" d="M37 539h91l121 -396q4 -14 7 -26t5 -22q2 -11 3 -21h2q0 10 3 21q2 10 5 22t8 26l133 396h80l129 -396q4 -12 7 -24t5 -22q3 -11 5 -23h2q1 11 4 23l4.5 22.5t6.5 23.5l123 396h81l-184 -539h-77l-133 397q-5 12 -7.5 23.5t-4.5 20.5q-3 11 -4 21h-2q-1 -10 -3 -21 q-2 -9 -5 -20.5t-7 -23.5l-137 -397h-77z" />
<glyph unicode="x" horiz-adv-x="568" d="M27 0l212 282l-190 257h97l140 -202h2l144 202h88l-193 -253l214 -286h-103l-157 227h-2l-158 -227h-94z" />
<glyph unicode="y" horiz-adv-x="562" d="M30 539h94l141 -397q5 -14 9 -26.5t6 -23.5q3 -12 5 -23h2q2 11 6 23q3 11 7 23.5t9 26.5l145 397h80l-298 -754h-95l105 215z" />
<glyph unicode="z" horiz-adv-x="479" d="M31 0l282 491h-262v48h377l-276 -488h286v-51h-407z" />
<glyph unicode="{" horiz-adv-x="375" d="M54 300v45q42 2 59.5 30.5t17.5 97.5v163q0 77 52 113t136 36v-45q-54 0 -82.5 -25t-28.5 -80v-189q0 -56 -22 -85.5t-61 -37.5v-2q39 -8 61 -37t22 -86v-189q0 -55 28.5 -80t82.5 -25v-45q-42 0 -76.5 8.5t-59 26.5t-38.5 46t-14 68v164q0 70 -17.5 98t-59.5 30z" />
<glyph unicode="|" horiz-adv-x="231" d="M80 -215v1000h71v-1000h-71z" />
<glyph unicode="}" horiz-adv-x="375" d="M56 -96q54 0 82.5 25t28.5 80v189q0 57 22.5 86t61.5 37v2q-39 8 -61.5 37.5t-22.5 85.5v189q0 55 -28.5 80t-82.5 25v45q84 0 136 -36t52 -113v-163q0 -69 17.5 -97.5t59.5 -30.5v-45q-42 -2 -59.5 -30t-17.5 -98v-164q0 -40 -14 -68t-38.5 -46t-59 -26.5t-76.5 -8.5v45 z" />
<glyph unicode="~" horiz-adv-x="664" d="M92 316q8 16 18 30t24 25t32.5 18.5t44.5 9.5q37 3 65 -8t53.5 -24.5t51 -24t56.5 -7.5q38 4 60.5 24t33.5 42l41 -47q-12 -33 -41.5 -54t-81.5 -27q-33 -4 -60 6.5t-52.5 24t-52.5 24.5t-60 8q-38 -4 -60.5 -24.5t-33.5 -40.5z" />
<glyph unicode="&#xa1;" horiz-adv-x="290" d="M98 424q0 23 17.5 39t41.5 16t41.5 -16t17.5 -39t-17.5 -39t-41.5 -16t-41.5 16t-17.5 39zM106 -215l19 465h64l19 -465h-102z" />
<glyph unicode="&#xa2;" d="M100 344q0 51 15.5 92.5t42.5 72.5t65 49.5t83 23.5l-9 106h60l-7 -104q48 -1 80 -11.5t48 -21.5l-22 -42q-16 8 -40 16.5t-57 8.5q-45 0 -78 -14t-54.5 -39t-32.5 -59.5t-11 -74.5q0 -86 46 -137.5t128 -51.5q32 0 56 6.5t42 16.5l23 -46q-16 -11 -49 -20t-81 -11 l7 -104h-59l8 106q-46 5 -83.5 23t-64.5 48t-41.5 72t-14.5 95z" />
<glyph unicode="&#xa3;" d="M59 332v47h98q-11 30 -19.5 62.5t-8.5 72.5q0 39 16.5 73t47.5 59.5t75.5 40t99.5 14.5q63 0 104 -11.5t64 -25.5l-26 -51q-18 9 -50 19t-80 10q-43 0 -74.5 -11.5t-52 -31.5t-30.5 -47t-10 -57q0 -28 5 -55t17 -61h169v-47h-158q8 -28 10 -49t2 -45q0 -26 -7 -53 t-16.5 -51t-19.5 -42t-17 -26h351v-66h-475q50 51 82 112t32 125q0 27 -4 47t-12 48h-113z" />
<glyph unicode="&#xa4;" d="M44 257v47l99 -8q-1 12 -1.5 24t-0.5 24q0 18 0.5 36t2.5 35l-100 -9v47l105 -8q9 54 29 101t53 81.5t79 54t106 19.5q51 0 87.5 -12.5t55.5 -24.5l-25 -50q-11 8 -39.5 18.5t-64.5 10.5q-47 0 -80 -16t-56 -43t-36.5 -63t-19.5 -76l195 8v-47l-199 9q-3 -35 -3 -71 v-24.5t1 -24.5l201 9v-47l-197 8q6 -44 19.5 -83.5t36.5 -69t57.5 -46.5t82.5 -17q35 0 61 9.5t40 17.5l26 -52q-22 -14 -58 -25.5t-82 -11.5q-63 0 -110.5 21t-81 58.5t-53.5 88t-28 110.5z" />
<glyph unicode="&#xa5;" d="M32 688h95l176 -325h2l182 325h82l-148 -248l132 7v-42l-147 8l-61 -102l208 7v-43l-210 9v-284h-84v284l-212 -9v43l210 -7l-62 102l-148 -8v42l133 -7z" />
<glyph unicode="&#xa6;" horiz-adv-x="231" d="M80 180h71v-395h-71v395zM80 390v395h71v-395h-71z" />
<glyph unicode="&#xa7;" d="M82 271q0 31 12.5 57t32.5 46.5t45 37t49 29.5q-42 32 -57 61.5t-15 64.5q0 26 12.5 50t35.5 43t55 30t70 11q52 0 88 -11.5t55 -25.5l-23 -45q-17 11 -44.5 20.5t-63.5 9.5q-45 0 -77 -22.5t-32 -60.5q0 -13 3.5 -25.5t13.5 -26t26.5 -29t42.5 -33.5l93 -66 q32 -23 54 -43t36 -40t20 -41t6 -46q0 -28 -12 -52t-31.5 -45t-45 -38.5t-53.5 -31.5q27 -20 43.5 -38t25.5 -34.5t12 -31.5t3 -30q0 -29 -14 -55t-39.5 -45t-60 -30t-76.5 -11q-50 0 -88.5 12t-64.5 26l26 51q17 -11 48.5 -22t67.5 -11q22 0 44 5.5t38.5 16t27 26 t10.5 35.5q0 12 -3 23.5t-11 23.5t-22 25.5t-37 29.5l-121 86q-29 21 -49 40t-32.5 39.5t-18 42.5t-5.5 48zM149 281q0 -42 23 -72t66 -60l97 -69q21 11 41 24t35.5 29t25.5 34t10 40q0 19 -4.5 35t-14.5 31t-26 30.5t-40 32.5l-103 75q-18 -9 -37.5 -22t-35.5 -29 t-26.5 -35.5t-10.5 -43.5z" />
<glyph unicode="&#xa8;" horiz-adv-x="263" d="M-8 660q0 17 13.5 29t32.5 12t32 -12t13 -29t-13 -29.5t-32 -12.5t-32.5 12.5t-13.5 29.5zM180 660q0 17 13 29t32 12t32.5 -12t13.5 -29t-13.5 -29.5t-32.5 -12.5t-32 12.5t-13 29.5z" />
<glyph unicode="&#xa9;" horiz-adv-x="835" d="M60 344q0 74 28 139t77 113.5t114 76.5t139 28t139 -28t113.5 -76.5t76.5 -113.5t28 -139t-28 -139t-76.5 -113.5t-113.5 -76.5t-139 -28t-139 28t-114 76.5t-77 113.5t-28 139zM105 344q0 -65 24.5 -121.5t67 -99t99.5 -67t122 -24.5t122 24.5t99 67t66.5 99t24.5 121.5 q0 64 -24.5 121t-66.5 100t-99 67.5t-122 24.5t-122 -24.5t-99.5 -67.5t-67 -100t-24.5 -121zM210 345q0 44 16.5 82.5t45 67t66.5 45t82 16.5q50 0 90 -20.5t70 -55.5l-32 -28q-23 29 -56 45.5t-72 16.5q-35 0 -65 -13.5t-53 -36.5t-36 -53.5t-13 -65.5t13 -65.5t36 -53 t53 -36t65 -13.5q38 0 71 16.5t56 43.5l34 -27q-30 -35 -71 -55t-90 -20q-44 0 -82 16.5t-66.5 45t-45 66.5t-16.5 82z" />
<glyph unicode="&#xaa;" horiz-adv-x="402" d="M46 454q0 35 20.5 57t54 35.5t77.5 20t92 10.5v20q0 18 -7.5 30.5t-21 20t-31.5 10.5t-38 3q-27 0 -53.5 -6t-45.5 -14l-16 34q20 8 51.5 16t72.5 8q30 0 56.5 -5t46.5 -17.5t32 -33t12 -50.5v-213q-25 -11 -60 -18t-79 -7q-84 0 -123.5 27.5t-39.5 71.5zM103 455 q0 -36 31.5 -50.5t79.5 -14.5q20 0 41.5 2.5t34.5 7.5v145q-41 -4 -75 -9t-59 -15t-39 -25.5t-14 -40.5z" />
<glyph unicode="&#xab;" horiz-adv-x="570" d="M62 334l187 215l47 -33l-162 -182l162 -182l-47 -33zM262 334l188 215l46 -33l-163 -182l163 -182l-46 -33z" />
<glyph unicode="&#xac;" d="M74 308v58h453v-220h-62v162h-391z" />
<glyph unicode="&#xae;" horiz-adv-x="835" d="M60 344q0 74 28 139t77 113.5t114 76.5t139 28t139 -28t113.5 -76.5t76.5 -113.5t28 -139t-28 -139t-76.5 -113.5t-113.5 -76.5t-139 -28t-139 28t-114 76.5t-77 113.5t-28 139zM105 344q0 -65 24.5 -121.5t67 -99t99.5 -67t122 -24.5t122 24.5t99 67t66.5 99t24.5 121.5 q0 64 -24.5 121t-66.5 100t-99 67.5t-122 24.5t-122 -24.5t-99.5 -67.5t-67 -100t-24.5 -121zM309 138v410q19 10 44 15t52 5t51.5 -7t44 -22t31 -37t11.5 -52q0 -54 -35.5 -83t-90.5 -31l144 -198h-53l-139 196h-16v-196h-44zM353 364h39q21 0 40 4.5t33.5 14.5t23.5 27 t9 41q0 23 -9 38.5t-23.5 24.5t-32 13t-33.5 4q-26 0 -47 -8v-159z" />
<glyph unicode="&#xaf;" horiz-adv-x="263" d="M-34 630v49h331v-49h-331z" />
<glyph unicode="&#xb0;" horiz-adv-x="428" d="M61 549q0 31 12 59t33 48.5t49 32.5t60 12q31 0 59 -12t48.5 -32.5t32.5 -48.5t12 -59q0 -32 -12 -60t-32.5 -49t-48.5 -33t-59 -12q-32 0 -60 12t-49 33t-33 49t-12 60zM107 549q0 -22 8.5 -41.5t23.5 -34t34.5 -23t41.5 -8.5t41.5 8.5t33.5 23t22.5 34t8.5 41.5 q0 45 -30.5 75.5t-75.5 30.5q-22 0 -41.5 -8.5t-34.5 -22.5t-23.5 -33.5t-8.5 -41.5z" />
<glyph unicode="&#xb1;" d="M74 68v54h453v-54h-453zM74 364v55h195v178h61v-178h197v-55h-197v-178h-61v178h-195z" />
<glyph unicode="&#xb2;" horiz-adv-x="412" d="M50 277l185 206q31 34 39.5 55.5t8.5 40.5q0 35 -26.5 55t-77.5 20q-26 0 -47 -6t-38 -13l-20 40q19 8 49.5 16t72.5 8q69 0 110.5 -32.5t41.5 -83.5q0 -24 -13.5 -54t-48.5 -66l-131 -137h195v-49h-300z" />
<glyph unicode="&#xb3;" horiz-adv-x="412" d="M55 291l20 42q18 -9 43 -14.5t54 -5.5q48 0 78.5 22.5t30.5 60.5q0 28 -15 45t-37 26t-47.5 11.5t-46.5 1.5v39q58 4 93.5 24.5t35.5 52.5q0 16 -7.5 27t-19.5 18t-27.5 10t-31.5 3q-22 0 -44 -4t-42 -13l-20 38q51 24 117 24q28 0 53 -6t44 -18t30 -30t11 -42 q0 -20 -8 -35t-20 -26.5t-26.5 -19.5t-26.5 -13q18 -5 36 -14t32.5 -22.5t23.5 -32t9 -43.5q0 -29 -12.5 -53t-34.5 -41t-52 -26.5t-65 -9.5q-42 0 -73 6.5t-55 17.5z" />
<glyph unicode="&#xb4;" horiz-adv-x="263" d="M70 599l86 136q13 8 28 12t29.5 4t25 -4t14.5 -13l-134 -135h-49z" />
<glyph unicode="&#xb5;" horiz-adv-x="595" d="M72 -215v754h86v-470q27 -13 66 -20.5t78 -7.5q45 0 79 6t57 17v475h85v-515q-37 -17 -88 -27t-117 -10q-42 0 -85.5 9.5t-74.5 24.5v-236h-86z" />
<glyph unicode="&#xb6;" horiz-adv-x="648" d="M52 513q0 49 17 82.5t47.5 54t72.5 29.5t93 9h309v-49h-43v-854h-74v854h-176v-854h-75v560q-90 8 -130.5 54.5t-40.5 113.5z" />
<glyph unicode="&#xb7;" horiz-adv-x="245" d="M65 344q0 23 17 39t41 16t40.5 -16t16.5 -39t-16.5 -39t-40.5 -16t-41 16t-17 39z" />
<glyph unicode="&#xb8;" horiz-adv-x="263" d="M-5 -209l23 32q85 -6 134 9t49 37t-31.5 32.5t-100.5 5.5l23 30q85 7 129.5 -10t44.5 -58q0 -46 -71.5 -66.5t-199.5 -11.5z" />
<glyph unicode="&#xb9;" horiz-adv-x="412" d="M86 623q57 7 98 25t58 40h40v-411h-62v334q-29 -8 -61 -13t-67 -7z" />
<glyph unicode="&#xba;" horiz-adv-x="402" d="M36 527q0 36 10.5 67.5t31 55t51.5 36.5t72 13t72 -13t51.5 -36.5t31 -55t10.5 -67.5t-10.5 -67.5t-31 -54.5t-51.5 -36.5t-72 -13.5t-72 13.5t-51.5 36.5t-31 54.5t-10.5 67.5zM98 527q0 -26 5 -49.5t17 -41.5t31.5 -29t49.5 -11t50 11t32 29t17 41.5t5 49.5 q0 25 -5 49.5t-17 44t-32 31t-50 11.5t-50 -11.5t-31.5 -31t-16.5 -44t-5 -49.5z" />
<glyph unicode="&#xbb;" horiz-adv-x="570" d="M74 152l164 182l-164 182l46 33l189 -215l-189 -215zM274 152l163 182l-163 182l47 33l187 -215l-187 -215z" />
<glyph unicode="&#xbc;" horiz-adv-x="916" d="M50 623q57 7 98.5 25t58.5 40h40v-411h-62v334q-29 -8 -61.5 -13t-67.5 -7zM229 10l395 693l51 -24l-396 -693zM534 94v39l203 284h54v-284h46v-39h-46v-94h-60v94h-197zM583 133h148v168v18.5t1 16.5q0 8 1 16h-2l-8 -16t-9.5 -16.5t-12.5 -18.5z" />
<glyph unicode="&#xbd;" horiz-adv-x="916" d="M50 623q57 7 98 25t58 40h41v-411h-63v334q-29 -8 -61 -13t-67 -7zM206 10l396 693l51 -24l-397 -693zM538 0l185 206q31 35 39.5 56.5t8.5 40.5q0 35 -26.5 54.5t-77.5 19.5q-26 0 -46 -5.5t-37 -12.5l-18 40q18 8 46.5 15.5t71.5 7.5q69 0 110.5 -32t41.5 -83 q0 -24 -13.5 -54t-48.5 -66l-130 -138h194v-49h-300z" />
<glyph unicode="&#xbe;" horiz-adv-x="916" d="M55 292l20 42q18 -9 43 -14.5t54 -5.5q48 0 78.5 22.5t30.5 60.5q0 28 -15 45t-37 26t-47.5 11.5t-46.5 1.5v38q58 4 93.5 24.5t35.5 52.5q0 16 -7.5 27t-19.5 18t-27.5 10t-31.5 3q-22 0 -44 -4t-42 -13l-20 38q51 24 117 24q28 0 53 -6t44 -18t30 -30t11 -42 q0 -20 -8 -35t-20 -26.5t-26.5 -19.5t-26.5 -13q18 -5 36 -14t32.5 -22.5t23.5 -32t9 -43.5q0 -29 -12.5 -53t-34.5 -41t-52 -26t-65 -9q-42 0 -73 6.5t-55 17.5zM263 13l396 694l50 -24l-396 -694zM539 97v39l204 284h54v-284h46v-39h-46v-94h-60v94h-198zM588 136h149v168 v19t1 17q0 9 1 16h-2l-8 -16t-9.5 -16.5t-12.5 -18.5z" />
<glyph unicode="&#xbf;" horiz-adv-x="446" d="M42 -58q0 34 18 61.5t44.5 48t57 34t55.5 19.5l12 151h64l14 -176q-27 -5 -57.5 -16t-57 -27.5t-44 -39t-17.5 -51.5q0 -48 37 -79.5t113 -31.5q41 0 72.5 9.5t51.5 18.5l27 -48q-27 -14 -69 -25.5t-96 -11.5q-105 0 -165 44.5t-60 119.5zM202 429q0 23 17.5 39.5 t41.5 16.5t41 -16.5t17 -39.5t-17 -39t-41 -16t-41.5 16t-17.5 39z" />
<glyph unicode="&#xc0;" horiz-adv-x="699" d="M21 0l289 688h79l289 -688h-98l-85 213h-299l-85 -213h-90zM213 264h265l-103 265q-8 20 -13.5 36.5t-8.5 28.5q-4 13 -6 24h-2q-3 -11 -7 -24q-4 -11 -9 -28t-13 -37zM221 875q4 9 14.5 13.5t25 4.5t29.5 -4.5t28 -12.5l86 -136h-49z" />
<glyph unicode="&#xc1;" horiz-adv-x="699" d="M21 0l289 688h79l289 -688h-98l-85 213h-299l-85 -213h-90zM213 264h265l-103 265q-8 20 -13.5 37t-8.5 28q-4 13 -6 24h-2q-3 -11 -7 -24q-4 -11 -9 -28t-13 -37zM300 740l86 136q13 8 28 12t29.5 4t25 -4t14.5 -13l-134 -135h-49z" />
<glyph unicode="&#xc2;" horiz-adv-x="699" d="M21 0l289 688h79l289 -688h-98l-85 213h-299l-85 -213h-90zM199 760l117 100q15 14 32 14q8 0 17.5 -3t17.5 -11l116 -100l-22 -20l-127 79l-128 -79zM213 264h265l-103 265q-8 20 -13.5 37t-8.5 28q-4 13 -6 24h-2q-3 -11 -7 -24q-4 -11 -9 -28t-13 -37z" />
<glyph unicode="&#xc3;" horiz-adv-x="699" d="M21 0l289 688h79l289 -688h-98l-85 213h-299l-85 -213h-90zM185 785q14 29 38 42.5t57 13.5q21 0 38 -6t32.5 -13.5t30.5 -13.5t33 -6q53 0 73 43l31 -36q-13 -29 -38 -41.5t-57 -12.5q-21 0 -38 6t-33 13t-32.5 13t-34.5 6q-52 0 -72 -43zM213 264h265l-103 265 q-8 20 -13.5 37t-8.5 28q-4 13 -6 24h-2q-3 -11 -7 -24q-4 -11 -9 -28t-13 -37z" />
<glyph unicode="&#xc4;" horiz-adv-x="699" d="M21 0l289 688h79l289 -688h-98l-85 213h-299l-85 -213h-90zM210 801q0 17 13.5 29t32.5 12t32 -12t13 -29t-13 -29.5t-32 -12.5t-32.5 12.5t-13.5 29.5zM213 264h265l-103 265q-8 20 -13.5 37t-8.5 28q-4 13 -6 24h-2q-3 -11 -7 -24q-4 -11 -9 -28t-13 -37zM398 801 q0 17 13 29t32 12t32.5 -12t13.5 -29t-13.5 -29.5t-32.5 -12.5t-32 12.5t-13 29.5z" />
<glyph unicode="&#xc5;" horiz-adv-x="699" d="M21 0l289 688h79l289 -688h-98l-85 213h-299l-85 -213h-90zM213 264h265l-103 265q-8 20 -13.5 37t-8.5 28q-4 13 -6 24h-2q-3 -11 -7 -24q-4 -11 -9 -28t-13 -37zM256 819q0 33 27.5 56.5t67.5 23.5t67.5 -23.5t27.5 -56.5t-27.5 -56.5t-67.5 -23.5t-67.5 23.5 t-27.5 56.5zM294 819q0 -20 17 -34t40 -14t40.5 14t17.5 34t-17.5 33.5t-40.5 13.5t-40 -13.5t-17 -33.5z" />
<glyph unicode="&#xc6;" horiz-adv-x="862" d="M6 0l341 688h420v-56h-326l77 -248h248v-56h-233l83 -272h225v-56h-300l-58 213h-290l-101 -213h-86zM216 265h255l-80 290q-4 13 -5.5 24.5t-3.5 20.5q-2 11 -3 20h-2q-2 -8 -6 -19q-3 -9 -7.5 -21t-10.5 -25z" />
<glyph unicode="&#xc7;" horiz-adv-x="578" d="M59 344q0 72 22.5 137t63.5 113.5t100 77.5t131 29q54 0 94 -10.5t66 -26.5l-25 -52q-18 11 -48.5 20t-69.5 9q-60 0 -105 -25.5t-75 -67t-45 -95t-15 -109.5q0 -57 16.5 -110.5t47.5 -94t76 -65t102 -24.5q38 0 66 8t50 19l25 -53q-23 -15 -65.5 -26t-92.5 -11 q-72 0 -131 28t-100.5 76.5t-64.5 113.5t-23 139zM153 -209l23 32q85 -6 134 9t49 37t-31.5 32.5t-100.5 5.5l23 30q85 7 129.5 -10t44.5 -58q0 -46 -71.5 -66.5t-199.5 -11.5z" />
<glyph unicode="&#xc8;" horiz-adv-x="501" d="M78 0v688h377v-56h-287v-248h259v-56h-259v-271h287v-57h-377zM125 875q4 9 14.5 13t25 4t29.5 -4t28 -12l86 -136h-49z" />
<glyph unicode="&#xc9;" horiz-adv-x="501" d="M78 0v688h377v-56h-287v-248h259v-56h-259v-271h287v-57h-377zM212 740l86 136q13 8 28 12t29.5 4t25 -4t14.5 -13l-134 -135h-49z" />
<glyph unicode="&#xca;" horiz-adv-x="501" d="M78 0v688h377v-56h-287v-248h259v-56h-259v-271h287v-57h-377zM111 760l117 100q15 14 32 14q8 0 17.5 -3t17.5 -11l116 -100l-22 -20l-127 79l-128 -79z" />
<glyph unicode="&#xcb;" horiz-adv-x="501" d="M78 0v688h377v-56h-287v-248h259v-56h-259v-271h287v-57h-377zM126 801q0 17 13.5 29t32.5 12t32 -12t13 -29t-13 -29.5t-32 -12.5t-32.5 12.5t-13.5 29.5zM314 801q0 17 13 29t32 12t32.5 -12t13.5 -29t-13.5 -29.5t-32.5 -12.5t-32 12.5t-13 29.5z" />
<glyph unicode="&#xcc;" horiz-adv-x="258" d="M12 875q4 9 14.5 13.5t25 4.5t29.5 -4.5t28 -12.5l86 -136h-49zM84 0v688h90v-688h-90z" />
<glyph unicode="&#xcd;" horiz-adv-x="258" d="M63 740l86 136q13 8 28 12.5t29.5 4.5t25 -4.5t14.5 -13.5l-134 -135h-49zM83 0v688h90v-688h-90z" />
<glyph unicode="&#xce;" horiz-adv-x="258" d="M-21 760l117 100q15 14 32 14q8 0 17.5 -3t17.5 -11l116 -100l-22 -20l-127 79l-128 -79zM82 0v688h90v-688h-90z" />
<glyph unicode="&#xcf;" horiz-adv-x="258" d="M-10 801q0 17 13.5 29t32.5 12t32 -12t13 -29t-13 -29.5t-32 -12.5t-32.5 12.5t-13.5 29.5zM83 0v688h90v-688h-90zM178 801q0 17 13 29t32 12t32.5 -12t13.5 -29t-13.5 -29.5t-32.5 -12.5t-32 12.5t-13 29.5z" />
<glyph unicode="&#xd0;" horiz-adv-x="731" d="M47 351v44h77v269q38 17 88 27t116 10q82 0 146.5 -24.5t108 -70t66.5 -110.5t23 -145t-21 -147t-63.5 -115t-106.5 -75t-149 -27q-72 0 -124.5 10.5t-83.5 26.5v327h-77zM212 62q19 -6 49.5 -11t63.5 -5q130 0 192 79t62 227q0 144 -67 219.5t-189 75.5q-68 0 -111 -15 v-237h147v-44h-147v-289z" />
<glyph unicode="&#xd1;" horiz-adv-x="728" d="M78 0v688h95l358 -507q11 -16 19.5 -29t14.5 -23q7 -11 12 -21h2q-1 11 -2 25q-1 11 -1.5 26.5t-0.5 32.5v496h75v-688h-80l-371 529q-10 14 -18.5 27t-14.5 23q-7 11 -13 22h-3q1 -13 2 -27q1 -12 1.5 -27.5t0.5 -32.5v-514h-76zM203 785q14 29 38 42.5t57 13.5 q21 0 38 -6t32.5 -13.5t30.5 -13.5t33 -6q53 0 73 43l31 -36q-13 -29 -38 -41.5t-57 -12.5q-21 0 -38 6t-33 13t-32.5 13t-34.5 6q-52 0 -72 -43z" />
<glyph unicode="&#xd2;" horiz-adv-x="725" d="M59 344q0 73 18 138t55.5 113.5t94.5 77t136 28.5t136 -28.5t94 -77t55 -113.5t18 -138q0 -74 -18 -139t-55 -113.5t-94 -76.5t-136 -28t-136 28t-94.5 76.5t-55.5 113.5t-18 139zM153 346q0 -53 10.5 -106t34.5 -95t64.5 -68.5t100.5 -26.5t100.5 26.5t64.5 68.5t34 95 t10 106q0 54 -11 107t-35.5 96t-64.5 69.5t-98 26.5t-98 -26.5t-65 -69.5t-36 -96t-11 -107zM234 875q4 9 14.5 13t25 4t29.5 -4t28 -12l86 -136h-49z" />
<glyph unicode="&#xd3;" horiz-adv-x="725" d="M59 344q0 73 18 138t55.5 113.5t94.5 77t136 28.5t136 -28.5t94 -77t55 -113.5t18 -138q0 -74 -18 -139t-55 -113.5t-94 -76.5t-136 -28t-136 28t-94.5 76.5t-55.5 113.5t-18 139zM153 346q0 -53 10.5 -106t34.5 -95t64.5 -68.5t100.5 -26.5t100.5 26.5t64.5 68.5t34 95 t10 106q0 54 -11 107t-35.5 96t-64.5 69.5t-98 26.5t-98 -26.5t-65 -69.5t-36 -96t-11 -107zM308 740l86 136q13 8 28 12t29.5 4t25 -4t14.5 -13l-134 -135h-49z" />
<glyph unicode="&#xd4;" horiz-adv-x="725" d="M59 344q0 73 18 138t55.5 113.5t94.5 77t136 28.5t136 -28.5t94 -77t55 -113.5t18 -138q0 -74 -18 -139t-55 -113.5t-94 -76.5t-136 -28t-136 28t-94.5 76.5t-55.5 113.5t-18 139zM153 346q0 -53 10.5 -106t34.5 -95t64.5 -68.5t100.5 -26.5t100.5 26.5t64.5 68.5t34 95 t10 106q0 54 -11 107t-35.5 96t-64.5 69.5t-98 26.5t-98 -26.5t-65 -69.5t-36 -96t-11 -107zM213 760l117 100q15 14 32 14q8 0 17.5 -3t17.5 -11l116 -100l-22 -20l-127 79l-128 -79z" />
<glyph unicode="&#xd5;" horiz-adv-x="725" d="M59 344q0 73 18 138t55.5 113.5t94.5 77t136 28.5t136 -28.5t94 -77t55 -113.5t18 -138q0 -74 -18 -139t-55 -113.5t-94 -76.5t-136 -28t-136 28t-94.5 76.5t-55.5 113.5t-18 139zM153 346q0 -53 10.5 -106t34.5 -95t64.5 -68.5t100.5 -26.5t100.5 26.5t64.5 68.5t34 95 t10 106q0 54 -11 107t-35.5 96t-64.5 69.5t-98 26.5t-98 -26.5t-65 -69.5t-36 -96t-11 -107zM196 785q14 29 38 42.5t57 13.5q21 0 38 -6t32.5 -13.5t30.5 -13.5t33 -6q53 0 73 43l31 -36q-13 -29 -38 -41.5t-57 -12.5q-21 0 -38 6t-33 13t-32.5 13t-34.5 6q-52 0 -72 -43z " />
<glyph unicode="&#xd6;" horiz-adv-x="725" d="M59 344q0 73 18 138t55.5 113.5t94.5 77t136 28.5t136 -28.5t94 -77t55 -113.5t18 -138q0 -74 -18 -139t-55 -113.5t-94 -76.5t-136 -28t-136 28t-94.5 76.5t-55.5 113.5t-18 139zM153 346q0 -53 10.5 -106t34.5 -95t64.5 -68.5t100.5 -26.5t100.5 26.5t64.5 68.5t34 95 t10 106q0 54 -11 107t-35.5 96t-64.5 69.5t-98 26.5t-98 -26.5t-65 -69.5t-36 -96t-11 -107zM223 801q0 17 13.5 29t32.5 12t32 -12t13 -29t-13 -29.5t-32 -12.5t-32.5 12.5t-13.5 29.5zM411 801q0 17 13 29t32 12t32.5 -12t13.5 -29t-13.5 -29.5t-32.5 -12.5t-32 12.5 t-13 29.5z" />
<glyph unicode="&#xd7;" d="M75 158l185 177l-185 177l40 41l185 -178l185 178l40 -41l-184 -177l185 -178l-39 -40l-187 178l-185 -177z" />
<glyph unicode="&#xd8;" horiz-adv-x="725" d="M59 344q0 73 18 138t55.5 113.5t94.5 77t136 28.5q66 0 116 -20t87 -55l72 90l27 -22l-75 -94q39 -49 57.5 -115t18.5 -141q0 -74 -18 -139t-55 -113.5t-94 -76.5t-136 -28q-66 0 -116.5 20t-87.5 55l-72 -90l-27 22l75 94q-39 49 -57.5 115t-18.5 141zM144 346 q0 -51 9 -102t32 -93l336 419q-26 36 -65 57.5t-93 21.5q-61 0 -102.5 -27t-67.5 -70t-37.5 -97.5t-11.5 -108.5zM205 120q26 -34 65 -54.5t93 -20.5q63 0 105 27t67 70t35.5 96.5t10.5 107.5q0 51 -9 100.5t-31 91.5z" />
<glyph unicode="&#xd9;" horiz-adv-x="657" d="M78 193v495h90v-495q0 -34 14 -60t37.5 -44t53 -27t60.5 -9t60.5 9t52.5 27t37 44t14 60v495h82v-495q0 -44 -17.5 -81.5t-49.5 -65t-79 -43.5t-105 -16q-59 0 -105 16t-78.5 43.5t-49.5 65t-17 81.5zM216 875q4 9 14.5 13t25 4t29.5 -4t28 -12l86 -136h-49z" />
<glyph unicode="&#xda;" horiz-adv-x="657" d="M78 193v495h90v-495q0 -34 14 -60t37.5 -44t53 -27t60.5 -9t60.5 9t52.5 27t37 44t14 60v495h82v-495q0 -44 -17.5 -81.5t-49.5 -65t-79 -43.5t-105 -16q-59 0 -105 16t-78.5 43.5t-49.5 65t-17 81.5zM275 740l86 136q13 8 28 12t29.5 4t25 -4t14.5 -13l-134 -135h-49z " />
<glyph unicode="&#xdb;" horiz-adv-x="657" d="M78 193v495h90v-495q0 -34 14 -60t37.5 -44t53 -27t60.5 -9t60.5 9t52.5 27t37 44t14 60v495h82v-495q0 -44 -17.5 -81.5t-49.5 -65t-79 -43.5t-105 -16q-59 0 -105 16t-78.5 43.5t-49.5 65t-17 81.5zM183 760l117 100q15 14 32 14q8 0 17.5 -3t17.5 -11l116 -100 l-22 -20l-127 79l-128 -79z" />
<glyph unicode="&#xdc;" horiz-adv-x="657" d="M78 193v495h90v-495q0 -34 14 -60t37.5 -44t53 -27t60.5 -9t60.5 9t52.5 27t37 44t14 60v495h82v-495q0 -44 -17.5 -81.5t-49.5 -65t-79 -43.5t-105 -16q-59 0 -105 16t-78.5 43.5t-49.5 65t-17 81.5zM194 801q0 17 13.5 29t32.5 12t32 -12t13 -29t-13 -29.5t-32 -12.5 t-32.5 12.5t-13.5 29.5zM382 801q0 17 13 29t32 12t32.5 -12t13.5 -29t-13.5 -29.5t-32.5 -12.5t-32 12.5t-13 29.5z" />
<glyph unicode="&#xdd;" horiz-adv-x="597" d="M19 688h98l185 -317h2l189 317h87l-237 -381v-307h-89v307zM252 740l86 136q13 8 28 12t29.5 4t25 -4t14.5 -13l-134 -135h-49z" />
<glyph unicode="&#xde;" horiz-adv-x="588" d="M78 0v688h89v-123q23 6 53 10t56 4q68 0 117.5 -16t81.5 -44.5t47.5 -67t15.5 -83.5q0 -42 -17.5 -79t-53.5 -65t-92 -44t-133 -16q-19 0 -38.5 1t-36.5 3v-168h-89zM167 219q16 -2 35.5 -3.5t38.5 -1.5q52 0 91.5 11.5t65.5 32t39 47.5t13 58q0 42 -13.5 73.5 t-37.5 52.5t-57 31.5t-73 10.5q-26 0 -52.5 -3t-49.5 -9v-300z" />
<glyph unicode="&#xdf;" horiz-adv-x="627" d="M76 0v527q0 55 13.5 104.5t42 86.5t73.5 58.5t107 21.5q56 0 97.5 -18.5t69 -49t41 -71t13.5 -84.5q0 -23 -5 -50t-12 -44q-62 -6 -96 -28t-34 -67q0 -26 14.5 -43t36 -31.5t47 -28t47 -32t36 -44t14.5 -63.5q0 -32 -15 -60.5t-41 -50t-62 -34t-79 -12.5q-45 0 -78 13.5 t-47 24.5l21 52q12 -10 38.5 -20t54.5 -10q25 0 47.5 7.5t39 20.5t26.5 31t10 40q0 29 -14 48t-35 33.5t-46 27.5t-46 29.5t-35 39t-14 57.5q0 51 36.5 82.5t94.5 44.5q7 17 9 33.5t2 34.5q0 35 -7.5 66t-23.5 53.5t-42 35.5t-63 13q-43 0 -72 -17t-46.5 -46.5t-25 -68 t-7.5 -81.5v-531h-85z" />
<glyph unicode="&#xe0;" horiz-adv-x="563" d="M47 146q0 55 29 91.5t78.5 59.5t115.5 35.5t140 18.5v33q0 33 -11.5 54.5t-31.5 35t-47.5 19t-60.5 5.5q-41 0 -83.5 -9.5t-68.5 -21.5l-22 48q28 12 78.5 24.5t110.5 12.5q45 0 84.5 -9t69 -29.5t46.5 -54t17 -82.5v-353q-36 -17 -89 -27t-119 -10q-122 0 -179 43.5 t-57 115.5zM130 148q0 -60 44 -87t118 -27q37 0 67.5 6t50.5 16v253q-63 -7 -115 -16.5t-88.5 -27t-56.5 -46t-20 -71.5zM173 734q4 9 14.5 13t25 4t29.5 -4t28 -12l86 -136h-49z" />
<glyph unicode="&#xe1;" horiz-adv-x="563" d="M47 146q0 55 29 91.5t78.5 59.5t115.5 35.5t140 18.5v33q0 33 -11.5 54.5t-31.5 35t-47.5 19t-60.5 5.5q-41 0 -83.5 -9.5t-68.5 -21.5l-22 48q28 12 78.5 24.5t110.5 12.5q45 0 84.5 -9t69 -29.5t46.5 -54t17 -82.5v-353q-36 -17 -89 -27t-119 -10q-122 0 -179 43.5 t-57 115.5zM130 148q0 -61 44 -87.5t118 -26.5q37 0 67.5 6t50.5 16v253q-63 -7 -115 -16.5t-88.5 -27t-56.5 -46t-20 -71.5zM240 599l86 136q13 8 28 12t29.5 4t25 -4t14.5 -13l-134 -135h-49z" />
<glyph unicode="&#xe2;" horiz-adv-x="563" d="M47 146q0 55 29 91.5t78.5 59.5t115.5 35.5t140 18.5v33q0 33 -11.5 54.5t-31.5 35t-47.5 19t-60.5 5.5q-41 0 -83.5 -9.5t-68.5 -21.5l-22 48q28 12 78.5 24.5t110.5 12.5q45 0 84.5 -9t69 -29.5t46.5 -54t17 -82.5v-353q-36 -17 -89 -27t-119 -10q-122 0 -179 43.5 t-57 115.5zM130 148q0 -60 44 -87t118 -27q37 0 67.5 6t50.5 16v253q-63 -7 -115 -16.5t-88.5 -27t-56.5 -46t-20 -71.5zM132 619l117 100q15 14 32 14q8 0 17.5 -3t17.5 -11l116 -100l-22 -20l-127 79l-128 -79z" />
<glyph unicode="&#xe3;" horiz-adv-x="563" d="M47 146q0 55 29 91.5t78.5 59.5t115.5 35.5t140 18.5v33q0 33 -11.5 54.5t-31.5 35t-47.5 19t-60.5 5.5q-41 0 -83.5 -9.5t-68.5 -21.5l-22 48q28 12 78.5 24.5t110.5 12.5q45 0 84.5 -9t69 -29.5t46.5 -54t17 -82.5v-353q-36 -17 -89 -27t-119 -10q-122 0 -179 43.5 t-57 115.5zM123 643q14 29 38 42.5t57 13.5q21 0 38 -6t32.5 -13.5t30.5 -13.5t33 -6q53 0 73 43l31 -36q-13 -29 -38 -41.5t-57 -12.5q-21 0 -38 6t-33 13t-32.5 13t-34.5 6q-52 0 -72 -43zM130 148q0 -60 44 -87t118 -27q37 0 67.5 6t50.5 16v253q-63 -7 -115 -16.5 t-88.5 -27t-56.5 -46t-20 -71.5z" />
<glyph unicode="&#xe4;" horiz-adv-x="563" d="M47 146q0 55 29 91.5t78.5 59.5t115.5 35.5t140 18.5v33q0 33 -11.5 54.5t-31.5 35t-47.5 19t-60.5 5.5q-41 0 -83.5 -9.5t-68.5 -21.5l-22 48q28 12 78.5 24.5t110.5 12.5q45 0 84.5 -9t69 -29.5t46.5 -54t17 -82.5v-353q-36 -17 -89 -27t-119 -10q-122 0 -179 43.5 t-57 115.5zM130 148q0 -60 44 -87t118 -27q37 0 67.5 6t50.5 16v253q-63 -7 -115 -16.5t-88.5 -27t-56.5 -46t-20 -71.5zM155 660q0 17 13.5 29t32.5 12t32 -12t13 -29t-13 -29.5t-32 -12.5t-32.5 12.5t-13.5 29.5zM343 660q0 17 13 29t32 12t32.5 -12t13.5 -29t-13.5 -29.5 t-32.5 -12.5t-32 12.5t-13 29.5z" />
<glyph unicode="&#xe5;" horiz-adv-x="563" d="M47 146q0 55 29 91.5t78.5 59.5t115.5 35.5t140 18.5v33q0 33 -11.5 54.5t-31.5 35t-47.5 19t-60.5 5.5q-41 0 -83.5 -9.5t-68.5 -21.5l-22 48q28 12 78.5 24.5t110.5 12.5q45 0 84.5 -9t69 -29.5t46.5 -54t17 -82.5v-353q-36 -17 -89 -27t-119 -10q-122 0 -179 43.5 t-57 115.5zM130 148q0 -60 44 -87t118 -27q37 0 67.5 6t50.5 16v253q-63 -7 -115 -16.5t-88.5 -27t-56.5 -46t-20 -71.5zM201 678q0 33 27.5 56.5t67.5 23.5t67.5 -23.5t27.5 -56.5t-27.5 -56.5t-67.5 -23.5t-67.5 23.5t-27.5 56.5zM239 678q0 -20 17 -34t40 -14t40.5 14 t17.5 34t-17.5 33.5t-40.5 13.5t-40 -13.5t-17 -33.5z" />
<glyph unicode="&#xe6;" horiz-adv-x="934" d="M47 147q0 51 28.5 87t78 59.5t115.5 37t140 19.5v34q0 31 -13.5 53t-35.5 36t-50.5 20t-59.5 6q-41 0 -79 -10.5t-63 -21.5l-22 48q27 14 75 25.5t108 11.5q62 0 112 -23t75 -79q15 27 37 46t47.5 31.5t52.5 18.5t54 6q110 0 173 -65t63 -199l-404 -50q3 -50 19.5 -86.5 t43.5 -60t62.5 -34.5t75.5 -11q54 0 93 11t63 22l24 -55q-29 -14 -77 -25.5t-112 -11.5q-70 0 -124.5 28t-88.5 77q-26 -51 -75.5 -78t-119.5 -27q-57 0 -98 11.5t-67 32.5t-38.5 50.5t-12.5 65.5zM124 148q0 -59 41 -86t103 -27q27 0 52 7.5t45 22t32 34.5t12 46v160 q-64 -7 -116.5 -16.5t-90 -27t-58 -44.5t-20.5 -69zM475 283l324 41q0 85 -39.5 131t-117.5 46q-74 0 -121 -54.5t-46 -163.5z" />
<glyph unicode="&#xe7;" horiz-adv-x="480" d="M51 270q0 66 19 118.5t52.5 88.5t79 55.5t98.5 19.5q54 0 89 -11.5t54 -25.5l-22 -48q-14 10 -40.5 19.5t-61.5 9.5q-45 0 -78.5 -17t-56 -46.5t-34 -70.5t-11.5 -89q0 -50 12.5 -91.5t36 -71.5t56 -46.5t72.5 -16.5q33 0 59.5 9t44.5 20l23 -52q-19 -14 -55.5 -25.5 t-90.5 -11.5q-52 0 -97 20t-78 56.5t-52 89t-19 117.5zM92 -209l23 32q85 -6 134 9t49 37t-31.5 32.5t-100.5 5.5l23 30q85 7 129.5 -10t44.5 -58q0 -46 -71.5 -66.5t-199.5 -11.5z" />
<glyph unicode="&#xe8;" horiz-adv-x="597" d="M51 271q0 69 19 122t53 88t81 53t102 18q112 0 176 -64.5t64 -199.5l-413 -51q8 -96 62 -143.5t144 -47.5q54 0 94.5 10.5t64.5 22.5l25 -55q-28 -14 -77.5 -25.5t-112.5 -11.5q-62 0 -113.5 17t-89 52t-58.5 88.5t-21 126.5zM129 282l333 42q0 47 -11.5 80.5t-32.5 55 t-50.5 31.5t-64.5 10q-36 0 -67.5 -13t-55.5 -40t-37.5 -68t-13.5 -98zM181 734q4 9 14.5 13t25 4t29.5 -4t28 -12l86 -136h-49z" />
<glyph unicode="&#xe9;" horiz-adv-x="597" d="M51 271q0 69 19 122t53 88t81 53t102 18q112 0 176 -64.5t64 -199.5l-413 -51q8 -96 62 -143.5t144 -47.5q54 0 94.5 10.5t64.5 22.5l25 -55q-28 -14 -77.5 -25.5t-112.5 -11.5q-62 0 -113.5 17t-89 52t-58.5 88.5t-21 126.5zM129 282l333 42q0 47 -11.5 80.5t-32.5 55 t-50.5 31.5t-64.5 10q-36 0 -67.5 -13t-55.5 -40t-37.5 -68t-13.5 -98zM260 599l86 136q13 8 28 12t29.5 4t25 -4t14.5 -13l-134 -135h-49z" />
<glyph unicode="&#xea;" horiz-adv-x="597" d="M51 271q0 69 19 122t53 88t81 53t102 18q112 0 176 -64.5t64 -199.5l-413 -51q8 -96 62 -143.5t144 -47.5q54 0 94.5 10.5t64.5 22.5l25 -55q-28 -14 -77.5 -25.5t-112.5 -11.5q-62 0 -113.5 17t-89 52t-58.5 88.5t-21 126.5zM129 282l333 42q0 47 -11.5 80.5t-32.5 55 t-50.5 31.5t-64.5 10q-36 0 -67.5 -13t-55.5 -40t-37.5 -68t-13.5 -98zM154 619l117 100q15 14 32 14q8 0 17.5 -3t17.5 -11l116 -100l-22 -20l-127 79l-128 -79z" />
<glyph unicode="&#xeb;" horiz-adv-x="597" d="M51 271q0 69 19 122t53 88t81 53t102 18q112 0 176 -64.5t64 -199.5l-413 -51q8 -96 62 -143.5t144 -47.5q54 0 94.5 10.5t64.5 22.5l25 -55q-28 -14 -77.5 -25.5t-112.5 -11.5q-62 0 -113.5 17t-89 52t-58.5 88.5t-21 126.5zM129 282l333 42q0 47 -11.5 80.5t-32.5 55 t-50.5 31.5t-64.5 10q-36 0 -67.5 -13t-55.5 -40t-37.5 -68t-13.5 -98zM169 660q0 17 13.5 29t32.5 12t32 -12t13 -29t-13 -29.5t-32 -12.5t-32.5 12.5t-13.5 29.5zM357 660q0 17 13 29t32 12t32.5 -12t13.5 -29t-13.5 -29.5t-32.5 -12.5t-32 12.5t-13 29.5z" />
<glyph unicode="&#xec;" horiz-adv-x="244" d="M5 734q4 9 14.5 13t25 4t29.5 -4t28 -12l86 -136h-49zM79 0v539h86v-539h-86z" />
<glyph unicode="&#xed;" horiz-adv-x="244" d="M56 599l86 136q13 8 28 12t29.5 4t25 -4t14.5 -13l-134 -135h-49zM78 0v539h86v-539h-86z" />
<glyph unicode="&#xee;" horiz-adv-x="244" d="M-28 619l117 100q15 14 32 14q8 0 17.5 -3t17.5 -11l116 -100l-22 -20l-127 79l-128 -79zM78 0v539h86v-539h-86z" />
<glyph unicode="&#xef;" horiz-adv-x="244" d="M-17 660q0 17 13.5 29t32.5 12t32 -12t13 -29t-13 -29.5t-32 -12.5t-32.5 12.5t-13.5 29.5zM79 0v539h86v-539h-86zM171 660q0 17 13 29t32 12t32.5 -12t13.5 -29t-13.5 -29.5t-32.5 -12.5t-32 12.5t-13 29.5z" />
<glyph unicode="&#xf0;" horiz-adv-x="592" d="M51 264q0 51 14 101.5t44 90.5t77.5 65t115.5 25q29 0 47.5 -3t37.5 -8q-22 46 -43.5 79.5t-46.5 67.5l-106 -28q-1 1 -4.5 6t-7.5 10t-8 9.5t-5 6.5l105 28q-11 14 -25.5 30.5t-29.5 30.5l70 18q16 -15 29 -29.5t26 -30.5l92 24q1 -2 5 -6.5t8.5 -9.5t8.5 -10t5 -6 l-93 -25q36 -48 67 -100t54 -107t36.5 -112t13.5 -115q0 -60 -13.5 -111t-42.5 -88.5t-74.5 -58.5t-109.5 -21q-59 0 -105 19.5t-77.5 55.5t-48 87.5t-16.5 114.5zM136 265q0 -44 8.5 -84t28 -71t51 -49t76.5 -18t74.5 19.5t46.5 51t24 72t7 82.5q0 27 -4 57t-11 59.5 t-15.5 56.5t-18.5 48q-22 5 -41.5 8t-43.5 3q-50 0 -85 -19.5t-56.5 -52t-31 -75t-9.5 -88.5z" />
<glyph unicode="&#xf1;" horiz-adv-x="596" d="M72 0v515q38 16 95 26.5t120 10.5q49 0 92 -8.5t75.5 -27t51 -49t18.5 -74.5v-393h-85v391q0 30 -14 51t-36.5 34t-51.5 18.5t-60 5.5q-35 0 -66.5 -5.5t-52.5 -14.5v-480h-86zM130 643q14 29 38 42.5t57 13.5q21 0 38 -6t32.5 -13.5t30.5 -13.5t33 -6q53 0 73 43l31 -36 q-13 -29 -38 -41.5t-57 -12.5q-21 0 -38 6t-33 13t-32.5 13t-34.5 6q-52 0 -72 -43z" />
<glyph unicode="&#xf2;" horiz-adv-x="605" d="M51 269q0 60 15 111.5t46 89.5t78.5 60t112.5 22t112.5 -22t78 -60t45.5 -89.5t15 -111.5t-15 -111.5t-45.5 -89.5t-78 -59.5t-112.5 -21.5t-112.5 21.5t-78.5 59.5t-46 89.5t-15 111.5zM138 269q0 -42 8 -82t27.5 -72t51 -51.5t78.5 -19.5q48 0 80 19.5t50.5 51.5 t26.5 72t8 82t-8 83t-26.5 73.5t-50.5 53t-80 20.5t-80 -20.5t-50.5 -53t-26.5 -73.5t-8 -83zM167 734q4 9 14.5 13t25 4t29.5 -4t28 -12l86 -136h-49z" />
<glyph unicode="&#xf3;" horiz-adv-x="605" d="M51 269q0 60 15 111.5t46 89.5t78.5 60t112.5 22t112.5 -22t78 -60t45.5 -89.5t15 -111.5t-15 -111.5t-45.5 -89.5t-78 -59.5t-112.5 -21.5t-112.5 21.5t-78.5 59.5t-46 89.5t-15 111.5zM138 269q0 -42 8 -82t27.5 -72t51 -51.5t78.5 -19.5q48 0 80 19.5t50.5 51.5 t26.5 72t8 82t-8 83t-26.5 73.5t-50.5 53t-80 20.5t-80 -20.5t-50.5 -53t-26.5 -73.5t-8 -83zM252 599l86 136q13 8 28 12t29.5 4t25 -4t14.5 -13l-134 -135h-49z" />
<glyph unicode="&#xf4;" horiz-adv-x="605" d="M51 269q0 60 15 111.5t46 89.5t78.5 60t112.5 22t112.5 -22t78 -60t45.5 -89.5t15 -111.5t-15 -111.5t-45.5 -89.5t-78 -59.5t-112.5 -21.5t-112.5 21.5t-78.5 59.5t-46 89.5t-15 111.5zM138 269q0 -42 8 -82t27.5 -72t51 -51.5t78.5 -19.5q48 0 80 19.5t50.5 51.5 t26.5 72t8 82t-8 83t-26.5 73.5t-50.5 53t-80 20.5t-80 -20.5t-50.5 -53t-26.5 -73.5t-8 -83zM155 619l117 100q15 14 32 14q8 0 17.5 -3t17.5 -11l116 -100l-22 -20l-127 79l-128 -79z" />
<glyph unicode="&#xf5;" horiz-adv-x="605" d="M51 269q0 60 15 111.5t46 89.5t78.5 60t112.5 22t112.5 -22t78 -60t45.5 -89.5t15 -111.5t-15 -111.5t-45.5 -89.5t-78 -59.5t-112.5 -21.5t-112.5 21.5t-78.5 59.5t-46 89.5t-15 111.5zM131 643q14 29 38 42.5t57 13.5q21 0 38 -6t32.5 -13.5t30.5 -13.5t33 -6 q53 0 73 43l31 -36q-13 -29 -38 -41.5t-57 -12.5q-21 0 -38 6t-33 13t-32.5 13t-34.5 6q-52 0 -72 -43zM138 269q0 -42 8 -82t27.5 -72t51 -51.5t78.5 -19.5q48 0 80 19.5t50.5 51.5t26.5 72t8 82t-8 83t-26.5 73.5t-50.5 53t-80 20.5t-80 -20.5t-50.5 -53t-26.5 -73.5 t-8 -83z" />
<glyph unicode="&#xf6;" horiz-adv-x="605" d="M51 269q0 60 15 111.5t46 89.5t78.5 60t112.5 22t112.5 -22t78 -60t45.5 -89.5t15 -111.5t-15 -111.5t-45.5 -89.5t-78 -59.5t-112.5 -21.5t-112.5 21.5t-78.5 59.5t-46 89.5t-15 111.5zM138 269q0 -42 8 -82t27.5 -72t51 -51.5t78.5 -19.5q48 0 80 19.5t50.5 51.5 t26.5 72t8 82t-8 83t-26.5 73.5t-50.5 53t-80 20.5t-80 -20.5t-50.5 -53t-26.5 -73.5t-8 -83zM163 660q0 17 13.5 29t32.5 12t32 -12t13 -29t-13 -29.5t-32 -12.5t-32.5 12.5t-13.5 29.5zM351 660q0 17 13 29t32 12t32.5 -12t13.5 -29t-13.5 -29.5t-32.5 -12.5t-32 12.5 t-13 29.5z" />
<glyph unicode="&#xf7;" d="M74 307v54h453v-54h-453zM248 171q0 20 15 34.5t36 14.5t36.5 -14.5t15.5 -34.5t-15.5 -34.5t-36.5 -14.5t-36 14.5t-15 34.5zM248 496q0 20 15 34.5t36 14.5t36.5 -14.5t15.5 -34.5t-15.5 -34.5t-36.5 -14.5t-36 14.5t-15 34.5z" />
<glyph unicode="&#xf8;" horiz-adv-x="605" d="M51 269q0 60 15 111.5t46 89.5t78.5 60t112.5 22q51 0 90.5 -13.5t69.5 -37.5l61 79l23 -19l-62 -81q35 -38 52 -92.5t17 -118.5q0 -60 -15 -111.5t-45.5 -89.5t-78 -59.5t-112.5 -21.5q-51 0 -90 13t-69 37l-62 -81l-24 20l63 82q-36 38 -53 92.5t-17 118.5zM130 269 q0 -42 8 -82.5t27 -72.5l260 338q-20 26 -50 41t-72 15q-50 0 -83 -21t-53 -55t-28.5 -77t-8.5 -86zM183 88q20 -24 49.5 -38t70.5 -14q50 0 83 20t53 53t28 74.5t8 85.5q0 42 -7.5 82.5t-25.5 73.5z" />
<glyph unicode="&#xf9;" horiz-adv-x="584" d="M72 167v372h86v-374q0 -52 35.5 -86.5t106.5 -34.5q42 0 74.5 6t52.5 16v473h85v-515q-29 -14 -87 -25.5t-132 -11.5q-59 0 -101 13.5t-68.5 37.5t-39 57t-12.5 72zM174 734q4 9 14.5 13t25 4t29.5 -4t28 -12l86 -136h-49z" />
<glyph unicode="&#xfa;" horiz-adv-x="584" d="M72 167v372h86v-374q0 -52 35.5 -86.5t106.5 -34.5q42 0 74.5 6t52.5 16v473h85v-515q-29 -14 -87 -25.5t-132 -11.5q-59 0 -101 13.5t-68.5 37.5t-39 57t-12.5 72zM240 599l86 136q13 8 28 12t29.5 4t25 -4t14.5 -13l-134 -135h-49z" />
<glyph unicode="&#xfb;" horiz-adv-x="584" d="M72 167v372h86v-374q0 -52 35.5 -86.5t106.5 -34.5q42 0 74.5 6t52.5 16v473h85v-515q-29 -14 -87 -25.5t-132 -11.5q-59 0 -101 13.5t-68.5 37.5t-39 57t-12.5 72zM143 619l117 100q15 14 32 14q8 0 17.5 -3t17.5 -11l116 -100l-22 -20l-127 79l-128 -79z" />
<glyph unicode="&#xfc;" horiz-adv-x="584" d="M72 167v372h86v-374q0 -52 35.5 -86.5t106.5 -34.5q42 0 74.5 6t52.5 16v473h85v-515q-29 -14 -87 -25.5t-132 -11.5q-59 0 -101 13.5t-68.5 37.5t-39 57t-12.5 72zM153 660q0 17 13.5 29t32.5 12t32 -12t13 -29t-13 -29.5t-32 -12.5t-32.5 12.5t-13.5 29.5zM341 660 q0 17 13 29t32 12t32.5 -12t13.5 -29t-13.5 -29.5t-32.5 -12.5t-32 12.5t-13 29.5z" />
<glyph unicode="&#xfd;" horiz-adv-x="562" d="M30 539h94l141 -397q5 -14 9 -26.5t6 -23.5q3 -12 5 -23h2q2 11 6 23q3 11 7 23.5t9 26.5l145 397h80l-298 -754h-95l105 215zM233 599l86 136q13 8 28 12t29.5 4t25 -4t14.5 -13l-134 -135h-49z" />
<glyph unicode="&#xfe;" horiz-adv-x="595" d="M72 -215v1000h85v-260q24 11 56.5 18t61.5 7q64 0 114.5 -19.5t84.5 -54.5t52 -85t18 -111q0 -68 -21 -122t-58.5 -91.5t-88.5 -57t-111 -19.5q-25 0 -53.5 3t-54.5 9v-217h-85zM157 50q17 -5 43 -8.5t48 -3.5q57 0 97 20.5t65 53.5t36.5 75t11.5 86q0 49 -11.5 90.5 t-36 72.5t-62 48.5t-88.5 17.5q-25 0 -53.5 -5t-49.5 -15v-432z" />
<glyph unicode="&#xff;" horiz-adv-x="562" d="M30 539h94l141 -397q5 -14 9 -26.5t6 -23.5q3 -12 5 -23h2q2 11 6 23q3 11 7 23.5t9 26.5l145 397h80l-298 -754h-95l105 215zM146 660q0 17 13.5 29t32.5 12t32 -12t13 -29t-13 -29.5t-32 -12.5t-32.5 12.5t-13.5 29.5zM334 660q0 17 13 29t32 12t32.5 -12t13.5 -29 t-13.5 -29.5t-32.5 -12.5t-32 12.5t-13 29.5z" />
<glyph unicode="&#x131;" horiz-adv-x="244" d="M79 0v539h86v-539h-86z" />
<glyph unicode="&#x141;" horiz-adv-x="488" d="M31 386v44l76 33v225h90v-192l87 36v-44l-87 -37v-395h259v-56h-349v418z" />
<glyph unicode="&#x142;" horiz-adv-x="323" d="M33 383v48l85 36v318h85v-288l88 37v-45l-88 -38v-451h-85v421z" />
<glyph unicode="&#x152;" horiz-adv-x="886" d="M59 344q0 75 19.5 140t59 113.5t100.5 76t145 27.5q30 0 56 -4t44 -9h357v-56h-280v-248h254v-56h-254v-271h280v-57h-357q-14 -5 -42.5 -9t-57.5 -4q-84 0 -145 27.5t-100.5 76t-59 113.5t-19.5 140zM151 345q0 -47 10 -100t36.5 -98t71.5 -74.5t116 -29.5q26 0 52 3 t39 7v585q-16 5 -41 8t-50 3q-71 0 -116.5 -30t-71.5 -75.5t-36 -99t-10 -99.5z" />
<glyph unicode="&#x153;" horiz-adv-x="978" d="M51 269q0 60 15 111.5t45 90t76 60t109 21.5q69 0 116 -31.5t76 -87.5q34 62 87 90.5t113 28.5q54 0 98.5 -15.5t75.5 -48t48 -82.5t17 -118l-404 -50q6 -54 24 -91t45 -59.5t62 -32t74 -9.5q54 0 89.5 10t61.5 22l25 -54q-27 -14 -71 -25.5t-113 -11.5q-36 0 -70 8 t-64 24t-54.5 40.5t-40.5 57.5q-27 -63 -76 -96.5t-119 -33.5q-64 0 -110.5 22t-76.5 60t-44 89.5t-14 110.5zM135 270q0 -34 6.5 -74t24.5 -74t49.5 -57t80.5 -23q51 0 82 23t47 57.5t21 74t5 73.5q0 47 -7 89t-24 73.5t-47.5 50t-76.5 18.5q-50 0 -81.5 -23t-49 -57.5 t-24 -75t-6.5 -75.5zM518 282l325 42q0 47 -11.5 80.5t-32.5 55t-50.5 31.5t-64.5 10q-36 0 -66.5 -13.5t-53 -40.5t-34.5 -68.5t-12 -96.5z" />
<glyph unicode="&#x160;" horiz-adv-x="543" d="M43 24l27 60q24 -12 63.5 -22.5t85.5 -10.5q37 0 69 10t55.5 28t36.5 43.5t13 55.5q0 43 -24.5 68t-61.5 42.5t-80.5 32t-80.5 35.5t-61.5 53.5t-24.5 87.5q0 39 16.5 74t47 61.5t74 42.5t97.5 16q57 0 101.5 -11.5t68.5 -25.5l-25 -54q-20 12 -57 22.5t-78 10.5 q-70 0 -112 -36t-42 -93q0 -41 25 -65t62 -40.5t81 -31t81 -36.5t62 -56.5t25 -91.5q0 -45 -19 -83t-52.5 -65t-79.5 -42.5t-101 -15.5q-63 0 -113 11t-79 26zM115 855l22 20l129 -80l128 80l21 -20l-116 -100q-17 -15 -35 -15q-16 0 -32 15z" />
<glyph unicode="&#x161;" horiz-adv-x="472" d="M39 24l26 55q19 -12 54 -22.5t78 -10.5q29 0 54 8t43.5 21.5t29 31.5t10.5 39q0 36 -20.5 57t-50.5 34.5t-66 24t-66 27t-50.5 43t-20.5 72.5q0 28 13 54.5t38 47.5t61 33.5t83 12.5q50 0 88 -11t62 -26l-25 -50q-14 9 -43.5 20.5t-68.5 11.5q-28 0 -51 -7.5t-39 -19.5 t-25 -28.5t-9 -34.5q0 -34 20.5 -53t51.5 -32t67.5 -24.5t67.5 -29t51.5 -45.5t20.5 -75q0 -30 -15.5 -59t-44 -51.5t-68.5 -36.5t-89 -14q-52 0 -97.5 11t-69.5 26zM90 715l22 20l129 -80l128 80l21 -20l-116 -100q-17 -15 -35 -15q-16 0 -32 15z" />
<glyph unicode="&#x178;" horiz-adv-x="597" d="M19 688h98l185 -317h2l189 317h87l-237 -381v-307h-89v307zM165 801q0 17 13.5 29t32.5 12t32 -12t13 -29t-13 -29.5t-32 -12.5t-32.5 12.5t-13.5 29.5zM353 801q0 17 13 29t32 12t32.5 -12t13.5 -29t-13.5 -29.5t-32.5 -12.5t-32 12.5t-13 29.5z" />
<glyph unicode="&#x17d;" horiz-adv-x="505" d="M25 0l316 632h-299v56h421l-312 -631h320v-57h-446zM99 855l22 20l129 -80l128 80l21 -20l-116 -100q-17 -15 -35 -15q-16 0 -32 15z" />
<glyph unicode="&#x17e;" horiz-adv-x="479" d="M31 0l282 491h-262v48h377l-276 -488h286v-51h-407zM89 715l22 20l129 -80l128 80l21 -20l-116 -100q-17 -15 -35 -15q-16 0 -32 15z" />
<glyph unicode="&#x192;" horiz-adv-x="652" d="M12 -211l12 57q19 -9 44 -9q61 0 93 46.5t52 138.5l76 341h-133v48h145q0 2 3 13.5t6 25.5q4 16 8 37q10 45 23.5 84t36 67.5t56.5 45t86 16.5q29 0 50.5 -6.5t34.5 -11.5l-13 -50q-11 4 -26 7.5t-33 3.5q-34 0 -56.5 -16t-37 -40t-23 -52t-13.5 -51l-17 -73h136v-48 h-148l-80 -362q-8 -37 -22.5 -77t-39 -73t-61.5 -54t-90 -21q-20 0 -39 4t-30 9z" />
<glyph unicode="&#x2c6;" horiz-adv-x="263" d="M-18 619l117 100q15 14 32 14q8 0 17.5 -3t17.5 -11l116 -100l-22 -20l-127 79l-128 -79z" />
<glyph unicode="&#x2c7;" horiz-adv-x="263" d="M-19 715l22 20l129 -80l128 80l21 -20l-116 -100q-17 -15 -35 -15q-16 0 -32 15z" />
<glyph unicode="&#x2d8;" horiz-adv-x="263" d="M-20 714l32 13q10 -37 38.5 -58t79.5 -21t80.5 21t40.5 58l32 -13q0 -17 -8.5 -37t-26.5 -37.5t-47 -29t-70 -11.5t-70 11.5t-47 29t-26 37.5t-8 37z" />
<glyph unicode="&#x2d9;" horiz-adv-x="263" d="M83 686q0 18 14 31t34 13t34.5 -13t14.5 -31t-14.5 -31t-34.5 -13t-34 13t-14 31z" />
<glyph unicode="&#x2da;" horiz-adv-x="263" d="M37 678q0 33 27.5 56.5t67.5 23.5t67.5 -23.5t27.5 -56.5t-27.5 -56.5t-67.5 -23.5t-67.5 23.5t-27.5 56.5zM75 678q0 -20 17 -34t40 -14t40.5 14t17.5 34t-17.5 33.5t-40.5 13.5t-40 -13.5t-17 -33.5z" />
<glyph unicode="&#x2db;" horiz-adv-x="263" d="M67 -110q0 27 30 56.5t96 58.5h67q-67 -28 -96 -56.5t-29 -48.5q0 -23 36 -31.5t111 12.5l8 -31q-44 -16 -84.5 -20t-71 2t-49 21t-18.5 37z" />
<glyph unicode="&#x2dc;" horiz-adv-x="263" d="M-35 643q14 29 38 42.5t57 13.5q21 0 38 -6t32.5 -13.5t30.5 -13.5t33 -6q53 0 73 43l31 -36q-13 -29 -38 -41.5t-57 -12.5q-21 0 -38 6t-33 13t-32.5 13t-34.5 6q-52 0 -72 -43z" />
<glyph unicode="&#x2dd;" horiz-adv-x="263" d="M-20 597l103 128q9 7 22.5 11.5t33.5 4.5q16 0 22 -3.5t6 -11.5l-145 -129h-42zM122 597l103 128q9 7 22.5 11.5t33.5 4.5q16 0 22 -3.5t6 -11.5l-145 -129h-42z" />
<glyph unicode="&#x2013;" horiz-adv-x="468" d="M0 306v59h468v-59h-468z" />
<glyph unicode="&#x2014;" horiz-adv-x="936" d="M0 310v51h936v-51h-936z" />
<glyph unicode="&#x2018;" horiz-adv-x="285" d="M56 544l142 241h46l-99 -241q-8 -9 -21 -17.5t-36 -8.5q-17 0 -23.5 9t-8.5 17z" />
<glyph unicode="&#x2019;" horiz-adv-x="285" d="M41 525l99 241q8 9 21.5 17.5t36.5 8.5q17 0 23 -9t8 -17l-142 -241h-46z" />
<glyph unicode="&#x201a;" horiz-adv-x="285" d="M41 -169l99 241q8 9 21.5 17.5t36.5 8.5q17 0 23 -9t8 -17l-142 -241h-46z" />
<glyph unicode="&#x201c;" horiz-adv-x="466" d="M56 544l142 241h46l-99 -241q-8 -9 -21 -17.5t-36 -8.5q-17 0 -23.5 9t-8.5 17zM236 544l143 241h46l-99 -241q-8 -9 -21.5 -17.5t-36.5 -8.5q-17 0 -23.5 9t-8.5 17z" />
<glyph unicode="&#x201d;" horiz-adv-x="466" d="M41 525l99 241q8 9 21.5 17.5t36.5 8.5q17 0 23 -9t8 -17l-142 -241h-46zM221 525l100 241q8 9 21 17.5t36 8.5q17 0 23.5 -9t8.5 -17l-142 -241h-47z" />
<glyph unicode="&#x201e;" horiz-adv-x="466" d="M41 -169l99 241q8 9 21.5 17.5t36.5 8.5q17 0 23 -9t8 -17l-142 -241h-46zM221 -169l100 241q8 9 21 17.5t36 8.5q17 0 23.5 -9t8.5 -17l-142 -241h-47z" />
<glyph unicode="&#x2020;" horiz-adv-x="637" d="M55 465v78l228 -8l-9 250h88l-9 -250l229 8v-78l-229 8l9 -688h-88l9 688z" />
<glyph unicode="&#x2021;" horiz-adv-x="637" d="M55 55v69l230 -6v362l-230 -7v70l230 -6l-9 248h86l-9 -248l229 6v-70l-229 7v-362l229 6v-69l-229 6l9 -276h-86l9 276z" />
<glyph unicode="&#x2022;" horiz-adv-x="336" d="M70 351q0 41 28.5 69.5t69.5 28.5t69.5 -28.5t28.5 -69.5t-28.5 -69.5t-69.5 -28.5t-69.5 28.5t-28.5 69.5z" />
<glyph unicode="&#x2026;" horiz-adv-x="765" d="M69 49q0 23 17.5 39t41.5 16t41 -16t17 -39t-17 -39.5t-41 -16.5t-41.5 16.5t-17.5 39.5zM324 49q0 23 17.5 39t41.5 16t41 -16t17 -39t-17 -39.5t-41 -16.5t-41.5 16.5t-17.5 39.5zM579 49q0 23 17.5 39t41.5 16t41 -16t17 -39t-17 -39.5t-41 -16.5t-41.5 16.5 t-17.5 39.5z" />
<glyph unicode="&#x2030;" horiz-adv-x="1383" d="M70 466q0 39 7 80.5t25 76t48.5 56.5t77.5 22t77.5 -22t48.5 -56.5t25 -76t7 -80.5t-7 -81t-25 -76.5t-48.5 -56.5t-77.5 -22t-77.5 22t-48.5 56.5t-25 76.5t-7 81zM130 469q0 -30 3.5 -64.5t14 -64t30 -48.5t50.5 -19t50.5 19t30 48.5t14 64t3.5 64.5t-3.5 64.5t-14 64 t-30 48.5t-50.5 19t-50.5 -19t-30 -48.5t-14 -64t-3.5 -64.5zM329 7l279 689l43 -16l-277 -689zM596 223q0 39 7 80.5t25 76t48.5 56.5t77.5 22t77.5 -22t48 -56.5t24.5 -76t7 -80.5t-7 -81t-24.5 -76.5t-48 -56.5t-77.5 -22t-77.5 22t-48.5 56.5t-25 76.5t-7 81zM656 226 q0 -30 3.5 -65t14 -64t30 -48.5t50.5 -19.5t50.5 19.5t30 48.5t14 64t3.5 65t-3.5 64.5t-14 64t-30 48.5t-50.5 19t-50.5 -19t-30 -48.5t-14 -64t-3.5 -64.5zM998 223q0 39 7 80.5t24.5 76t48 56.5t77.5 22t77.5 -22t48.5 -56.5t25 -76t7 -80.5t-7 -81t-25 -76.5 t-48.5 -56.5t-77.5 -22t-77.5 22t-48 56.5t-24.5 76.5t-7 81zM1057 226q0 -30 3.5 -65t14 -64t30 -48.5t50.5 -19.5t50.5 19.5t30 48.5t14 64t3.5 65t-3.5 64.5t-14 64t-30 48.5t-50.5 19t-50.5 -19t-30 -48.5t-14 -64t-3.5 -64.5z" />
<glyph unicode="&#x2039;" horiz-adv-x="370" d="M62 334l187 215l47 -33l-162 -182l162 -182l-47 -33z" />
<glyph unicode="&#x203a;" horiz-adv-x="370" d="M74 152l163 182l-163 182l46 33l188 -215l-188 -215z" />
<glyph unicode="&#x2044;" horiz-adv-x="212" d="M-117 10l396 693l50 -24l-396 -693z" />
<glyph unicode="&#x2122;" horiz-adv-x="898" d="M50 652v36h288v-36h-119v-312h-49v312h-120zM373 340l52 348h72l103 -303l97 303h71l57 -348h-53l-43 309l-108 -309h-45l-112 309l-42 -309h-49z" />
<glyph unicode="&#x2212;" d="M74 305v58h453v-58h-453z" />
<glyph unicode="&#x25fc;" horiz-adv-x="540" d="M0 0v540h540v-540h-540z" />
<glyph unicode="&#xfb01;" horiz-adv-x="581" d="M40 491v48h87v78q0 37 12 68t35 53.5t58 35t82 12.5q3 0 6.5 -0.5t6.5 -0.5h7v-50h-10q-22 0 -42.5 -6.5t-36 -20t-24.5 -34t-9 -48.5v-87h122v-48h-122v-491h-85v491h-87zM406 690q0 20 15.5 34.5t38.5 14.5t38 -14.5t15 -34.5t-15 -34t-38 -14t-38.5 14t-15.5 34z M417 0v539h85v-539h-85z" />
<glyph unicode="&#xfb02;" horiz-adv-x="587" d="M40 491v48h87v78q0 37 12 68t35 53.5t58 35t82 12.5q3 0 6.5 -0.5t6.5 -0.5h7v-50h-10q-22 0 -42.5 -6.5t-36 -20t-24.5 -34t-9 -48.5v-87h122v-48h-122v-491h-85v491h-87zM423 0v785h85v-785h-85z" />
</font>
</defs>
</svg>
