<?xml version="1.0" standalone="no"?>
<!DOCTYPE svg PUBLIC "-//W3C//DTD SVG 1.1//EN" "http://www.w3.org/Graphics/SVG/1.1/DTD/svg11.dtd" >
<svg xmlns="http://www.w3.org/2000/svg">
<metadata></metadata>
<defs>
<font id="daxwideregular" horiz-adv-x="584" >
<font-face units-per-em="1000" ascent="800" descent="-200" />
<missing-glyph horiz-adv-x="300" />
<glyph unicode="&#xd;" horiz-adv-x="300" />
<glyph unicode=" "  horiz-adv-x="300" />
<glyph unicode="&#x09;" horiz-adv-x="300" />
<glyph unicode="&#xa0;" horiz-adv-x="300" />
<glyph unicode="!" horiz-adv-x="270" d="M168 215h-40l-12 473h64zM192 39q0 -18 -13 -31t-31 -13t-31 13t-13 31t13 31t31 13t31 -13t13 -31z" />
<glyph unicode="&#x22;" horiz-adv-x="359" d="M267 445h-28l-16 236q12 15 31 15q18 0 30 -15zM119 445h-28l-16 236q12 15 30 15q19 0 31 -15z" />
<glyph unicode="#" horiz-adv-x="630" d="M448 439l-38 -172h135v-30h-142l-48 -237h-35l48 237h-160l-51 -237h-35l51 237h-133v30h139l37 172h-131v30h139l45 219h35l-45 -219h161l45 219h35l-45 -219h135v-30h-142zM251 439l-37 -172h161l38 172h-162z" />
<glyph unicode="$" d="M500 189q0 -41 -15.5 -76.5t-43.5 -61.5t-67 -42.5t-86 -20.5l7 -130h-42l7 129q-50 0 -94 7t-88 30l22 40q26 -13 60.5 -23t89.5 -10q42 0 77 11.5t61 31.5t40.5 48.5t14.5 63.5t-15 59t-40 40.5t-56.5 28.5t-64.5 23.5t-64.5 25t-56.5 33.5t-40 48.5t-15 69.5 q0 35 13.5 67t39 57.5t62.5 41.5t85 19l-7 122h40l-8 -121q52 0 91 -10.5t65 -25.5l-20 -37q-23 11 -57 22t-79 11q-77 0 -123 -40t-46 -104q0 -45 26 -70.5t65.5 -43t85 -31.5t85 -35.5t65.5 -55.5t26 -91z" />
<glyph unicode="%" horiz-adv-x="966" d="M891 222q0 -39 -6.5 -80.5t-23.5 -76t-46 -56.5t-74 -22t-74 22t-46 56.5t-23.5 76t-6.5 80.5t6.5 80.5t23.5 75t46 55.5t74 22t74 -22t46 -55.5t23.5 -75t6.5 -80.5zM359 -7l-32 12l279 689l30 -11zM375 468q0 -39 -6.5 -80.5t-23.5 -76t-46 -56.5t-74 -22t-74 22 t-46 56.5t-23.5 76t-6.5 80.5t6.5 80.5t23.5 75t46 55.5t74 22t74 -22t46 -55.5t23.5 -75t6.5 -80.5zM850 224q0 30 -4 65.5t-16 67t-33.5 52.5t-55.5 21q-35 0 -56 -21t-33 -52.5t-16 -67t-4 -65.5t4 -65.5t16 -67t33 -52.5t56 -21q34 0 55.5 21t33.5 52.5t16 67t4 65.5z M334 470q0 30 -4 65.5t-16 67t-33.5 52.5t-55.5 21q-35 0 -56 -21t-33 -52.5t-16 -67t-4 -65.5t4 -65.5t16 -67t33 -52.5t56 -21q34 0 55.5 21t33.5 52.5t16 67t4 65.5z" />
<glyph unicode="&#x26;" horiz-adv-x="712" d="M681 464q-25 -10 -61.5 -21t-71.5 -19v-400q-26 -15 -79.5 -26t-117.5 -11q-65 0 -118 14t-91 40t-58.5 62.5t-20.5 81.5q0 73 59.5 127.5t168.5 80.5v2q-83 16 -129 55.5t-46 99.5q0 32 14.5 59.5t41.5 48t65.5 32t86.5 11.5q50 0 90 -12.5t60 -24.5l-18 -32 q-15 10 -49.5 21t-73.5 11q-81 0 -121.5 -32t-40.5 -83q0 -29 15.5 -52.5t41 -39.5t58.5 -24.5t68 -8.5q42 0 84 7t82.5 18t77 25t66.5 28zM495 412q-92 -18 -161.5 -38t-116.5 -46t-71 -60.5t-24 -80.5q0 -36 16 -66t45.5 -51.5t72 -33.5t96.5 -12q45 0 81.5 4t61.5 13v371 z" />
<glyph unicode="'" horiz-adv-x="211" d="M119 445h-28l-16 236q12 15 30 15q19 0 31 -15z" />
<glyph unicode="(" horiz-adv-x="392" d="M319 -224q-123 139 -182 262t-59 248q0 63 14.5 124t44.5 123.5t75 127.5t107 134l28 -18q-45 -54 -83.5 -112t-66 -119.5t-43 -126.5t-15.5 -133t15.5 -133t43 -126.5t66 -120t83.5 -112.5z" />
<glyph unicode=")" horiz-adv-x="392" d="M314 286q0 -125 -59 -248t-182 -262l-28 18q45 54 83.5 112.5t66 120t43 126.5t15.5 133t-15.5 133t-43 126.5t-66 119.5t-83.5 112l28 18q61 -69 106.5 -134t75.5 -127.5t44.5 -123.5t14.5 -124z" />
<glyph unicode="*" horiz-adv-x="430" d="M376 668q0 -17 -11.5 -28t-28.5 -11t-27.5 11t-10.5 28t10.5 28t27.5 11t28.5 -11t11.5 -28zM255 755q0 -17 -11.5 -27.5t-28.5 -10.5t-28 10.5t-11 27.5t11 28.5t28 11.5t28.5 -11.5t11.5 -28.5zM250 629q0 -14 -10.5 -24.5t-24.5 -10.5t-24.5 10.5t-10.5 24.5 t10.5 24.5t24.5 10.5t24.5 -10.5t10.5 -24.5zM336 529q0 -17 -11.5 -28.5t-28.5 -11.5t-27.5 11.5t-10.5 28.5t10.5 27.5t27.5 10.5t28.5 -10.5t11.5 -27.5zM132 668q0 -17 -10.5 -27.5t-27.5 -10.5t-28.5 10.5t-11.5 27.5t11.5 28.5t28.5 11.5t27.5 -11.5t10.5 -28.5z M171 529q0 -17 -11 -28t-28 -11t-28 11t-11 28t11 28t28 11t28 -11t11 -28z" />
<glyph unicode="+" d="M312 315v-184h-42v184h-200v41h200v183h42v-183h202v-41h-202z" />
<glyph unicode="," horiz-adv-x="238" d="M41 -169h-32l87 226q8 8 17.5 13t23.5 5q12 0 18.5 -6t7.5 -12z" />
<glyph unicode="-" horiz-adv-x="396" d="M70 314v48h256v-48h-256z" />
<glyph unicode="." horiz-adv-x="238" d="M163 39q0 -18 -13 -31t-31 -13t-31 13t-13 31t13 31t31 13t31 -13t13 -31z" />
<glyph unicode="/" horiz-adv-x="490" d="M58 -124l-38 18l411 901l39 -18z" />
<glyph unicode="0" d="M524 344q0 -38 -4 -79.5t-14 -81t-27 -75.5t-43 -62.5t-61.5 -42.5t-82.5 -16t-82.5 16t-61.5 42.5t-43 62.5t-27 75.5t-14 81t-4 79.5q0 58 9.5 121t35.5 115.5t71 86.5t116 34q47 0 82.5 -16t61.5 -42.5t43 -62.5t27 -75.5t14 -81t4 -79.5zM471 344q0 30 -3 65.5 t-10.5 71.5t-20.5 69.5t-33 60t-47.5 42t-64.5 15.5q-56 0 -90.5 -34t-54.5 -83.5t-27 -105.5t-7 -101t7 -100t27 -104t54.5 -82t90.5 -33q55 0 90 33t55 82t27 104t7 100z" />
<glyph unicode="1" d="M330 0v604q-20 -11 -48.5 -20t-60.5 -16.5t-63 -12.5t-55 -7l-7 33q105 12 166 42t87 65h35v-688h-54z" />
<glyph unicode="2" d="M44 0l293 338q52 60 71.5 104t19.5 77q0 70 -52 105t-141 35q-45 0 -83.5 -9t-66.5 -21l-19 35q34 15 78.5 26t108.5 11q49 0 92 -11.5t74.5 -34.5t50 -56.5t18.5 -77.5q0 -36 -23.5 -87.5t-79.5 -112.5l-251 -276h366v-45h-456z" />
<glyph unicode="3" d="M494 195q0 -47 -20 -85t-54.5 -65.5t-81.5 -42.5t-101 -15q-67 0 -113 11.5t-74 25.5l19 38q26 -12 68 -22.5t91 -10.5q45 0 83 11.5t65.5 32.5t43.5 51.5t16 69.5q0 38 -13.5 65t-36 45.5t-50.5 30t-57 17t-56.5 6.5t-47.5 0v34q46 3 87.5 14.5t73 31t49.5 46.5t18 60 q0 32 -14.5 54.5t-38 36.5t-52.5 20t-57 6q-47 0 -87.5 -10t-65.5 -21l-20 34q27 13 70.5 25t108.5 12q40 0 78.5 -9.5t68.5 -28.5t48 -47t18 -65q0 -39 -19 -68t-45 -49.5t-53.5 -32.5t-45.5 -16v-2q31 -6 65.5 -18.5t64 -34.5t48.5 -55t19 -80z" />
<glyph unicode="4" d="M438 167v-167h-49v167h-331v40l332 481h48v-485h86v-36h-86zM390 628q-5 -10 -13 -23q-7 -11 -16.5 -26.5t-23.5 -35.5l-233 -340h285v324v38.5t1 32.5q1 16 2 30h-2z" />
<glyph unicode="5" d="M500 199q0 -53 -22.5 -92.5t-58.5 -66t-81 -40t-91 -13.5q-60 0 -106.5 10.5t-80.5 26.5l19 38q26 -12 69 -22.5t91 -10.5q34 0 70.5 10t65.5 31t48 52.5t19 74.5q0 42 -15.5 79t-54.5 62t-105.5 33t-167.5 -10l29 327h357v-45h-318l-21 -243q92 15 158.5 5t110 -38 t64.5 -72t21 -96z" />
<glyph unicode="6" d="M526 197q0 -38 -13.5 -75.5t-41.5 -67.5t-71.5 -48.5t-102.5 -18.5q-112 0 -173.5 67.5t-61.5 191.5q0 78 22 140.5t57 111t78 83.5t86 59.5t80.5 39t61.5 20.5l13 -35q-30 -9 -77 -28.5t-95 -54t-90.5 -85.5t-64.5 -124q27 11 67 22t80 11q47 0 91.5 -11t79 -36t55 -65 t20.5 -97zM472 198q0 49 -17 82.5t-45.5 54.5t-65.5 30t-77 9q-20 0 -40.5 -3.5t-39.5 -8.5t-35 -11t-28 -12q-9 -42 -9 -93q0 -101 47 -161t137 -60q44 0 76.5 15t54 39.5t32 55.5t10.5 63z" />
<glyph unicode="7" d="M425 472q-33 -63 -67 -132t-64 -133t-53 -118.5t-35 -88.5h-71l334 643h-401v45h470z" />
<glyph unicode="8" d="M522 163q0 -36 -17.5 -68t-48.5 -56t-73 -38t-91 -14q-44 0 -85.5 12.5t-73.5 35t-51.5 55t-19.5 73.5q0 31 8.5 58.5t30 52.5t57 47.5t89.5 44.5q-44 18 -74 37.5t-48 41t-26 46t-8 52.5q0 35 16 64t43.5 50t64 32.5t77.5 11.5t77.5 -11.5t64 -32.5t43.5 -50t16 -64 q0 -51 -35 -95t-121 -79q56 -23 92 -46.5t56.5 -49t28.5 -53t8 -57.5zM444 542q0 27 -11.5 50t-31.5 40t-48 26.5t-61 9.5t-61 -9.5t-48 -26t-31.5 -39.5t-11.5 -50q0 -50 35 -86t119 -70q84 33 117 70.5t33 84.5zM469 163q0 27 -6.5 50.5t-26 46t-54.5 44.5t-92 45 q-54 -22 -88 -44t-54 -44.5t-27.5 -46.5t-7.5 -50q0 -31 15 -56.5t40 -44t57.5 -28.5t66.5 -10q36 0 68.5 11t56.5 30t38 44t14 53z" />
<glyph unicode="9" d="M522 442q0 -78 -22 -140.5t-57 -111t-78 -83.5t-86 -59.5t-80.5 -39t-61.5 -20.5l-13 35q36 12 84 32.5t96 55.5t88.5 86.5t60.5 124.5q-27 -11 -65.5 -21.5t-83.5 -10.5q-47 0 -91.5 10t-79 34t-55 62.5t-20.5 95.5q0 37 13.5 74.5t42 67.5t71.5 48.5t102 18.5 q112 0 173.5 -67.5t61.5 -191.5zM469 445q0 101 -47 161t-137 60q-44 0 -76.5 -15.5t-54 -40t-32 -55t-10.5 -61.5q0 -49 17 -81.5t45.5 -52t65.5 -27.5t77 -8q20 0 40.5 3t40 8t36 11t28.5 12q7 38 7 86z" />
<glyph unicode=":" horiz-adv-x="238" d="M163 344q0 -18 -13 -31t-31 -13t-31 13t-13 31t13 31t31 13t31 -13t13 -31zM163 39q0 -18 -13 -31t-31 -13t-31 13t-13 31t13 31t31 13t31 -13t13 -31z" />
<glyph unicode=";" horiz-adv-x="238" d="M163 344q0 -18 -13 -31t-31 -13t-31 13t-13 31t13 31t31 13t31 -13t13 -31zM41 -169h-32l87 226q8 8 17.5 13t23.5 5q12 0 18.5 -6t7.5 -12z" />
<glyph unicode="&#x3c;" d="M70 319v40l444 169v-45l-390 -144l390 -144v-44z" />
<glyph unicode="=" d="M70 396v40h444v-40h-444zM70 234v40h444v-40h-444z" />
<glyph unicode="&#x3e;" d="M70 151v44l390 144l-390 144v45l444 -169v-40z" />
<glyph unicode="?" horiz-adv-x="422" d="M407 540q0 -33 -18 -60.5t-45 -48t-57.5 -34t-54.5 -19.5l-11 -163h-40l-13 182q25 5 57 16t60 28.5t47 42t19 56.5q0 52 -39.5 86t-119.5 34q-42 0 -74.5 -9t-52.5 -19l-20 32q25 13 64 25t89 12q97 0 153 -44t56 -117zM245 39q0 -18 -13 -31t-31 -13t-31 13t-13 31 t13 31t31 13t31 -13t13 -31z" />
<glyph unicode="@" horiz-adv-x="1053" d="M988 392q0 -107 -37.5 -183.5t-99 -125.5t-139 -72.5t-156.5 -23.5q-74 0 -125.5 15t-83.5 43t-46.5 66.5t-14.5 85.5q0 69 26.5 125t68.5 95.5t95.5 61.5t107.5 22q31 0 56 -6t44.5 -14.5t34 -18.5t23.5 -18l-115 -415q28 3 62.5 11.5t69.5 26t69 44.5t60 66.5t42 92.5 t16 122q0 64 -22.5 115.5t-64.5 87.5t-101 55t-132 19q-113 0 -208 -40.5t-164 -108t-108 -155.5t-39 -182q0 -88 30.5 -154.5t86 -111t133.5 -67t174 -22.5q70 0 127.5 8.5t107.5 26.5t94 45.5t87 65.5l20 -25q-42 -38 -87 -66.5t-97.5 -48t-114.5 -29.5t-137 -10 q-107 0 -193.5 25.5t-147 75t-93 121.5t-32.5 166q0 69 20 134t56.5 123t87.5 105.5t113.5 82.5t134.5 54t150 19q79 0 145 -21t114 -60.5t75 -97t27 -130.5zM687 432q-12 13 -38 24.5t-72 11.5q-42 0 -85 -19.5t-77.5 -55t-56.5 -85.5t-22 -111q0 -89 60 -134t177 -38z" />
<glyph unicode="A" horiz-adv-x="688" d="M598 0l-96 235h-320l-96 -235h-60l296 688h44l296 -688h-64zM374 551q-9 21 -14.5 38t-9.5 28q-4 13 -7 23h-2q-3 -10 -7 -23q-4 -11 -10 -28t-14 -38l-113 -279h290z" />
<glyph unicode="B" horiz-adv-x="613" d="M553 184q0 -52 -21 -89.5t-57 -61.5t-85 -35t-106 -11q-63 0 -117 11.5t-84 25.5v640q29 14 79 25.5t111 11.5t107 -12.5t77 -35t47 -54t16 -68.5q0 -38 -13.5 -67t-35.5 -49t-50.5 -32t-57.5 -16v-2q29 -3 62.5 -16.5t62 -36t47 -55t18.5 -73.5zM463 526q0 69 -50 104.5 t-143 35.5q-74 0 -132 -22v-262q10 -2 30 -2h37q72 0 121 9t79.5 27.5t44 46t13.5 63.5zM494 179q0 90 -69 129.5t-219 39.5q-17 0 -37.5 -0.5t-30.5 -1.5v-296q24 -10 60 -17t80 -7t83 8.5t68.5 26.5t47 47t17.5 71z" />
<glyph unicode="C" horiz-adv-x="576" d="M531 24q-22 -14 -63 -25.5t-88 -11.5q-68 0 -126 27.5t-100.5 76t-66.5 113.5t-24 140q0 73 23 138t64 113.5t99 77t127 28.5q53 0 91.5 -11t63.5 -26l-20 -34q-20 11 -52.5 21t-73.5 10q-65 0 -113.5 -27t-81.5 -71.5t-49.5 -101.5t-16.5 -117q0 -62 18 -119t52 -100.5 t83 -69.5t111 -26q39 0 69.5 8.5t53.5 20.5l20 -34v0z" />
<glyph unicode="D" horiz-adv-x="674" d="M611 353q0 -83 -21.5 -150.5t-63 -115.5t-103 -74t-142.5 -26q-67 0 -119 11.5t-79 25.5v640q28 13 77 25t118 12q77 0 138.5 -23.5t105 -68.5t66.5 -109.5t23 -146.5zM550 353q0 149 -73.5 230.5t-206.5 81.5q-39 0 -72 -5.5t-58 -15.5v-593q20 -8 57 -15.5t75 -7.5 q71 0 123 22.5t86.5 64.5t51.5 102t17 136z" />
<glyph unicode="E" horiz-adv-x="491" d="M83 0v688h361v-39h-304v-272h276v-39h-276v-298h304v-40h-361z" />
<glyph unicode="F" horiz-adv-x="483" d="M140 649v-272h276v-39h-276v-338h-57v688h359v-39h-302z" />
<glyph unicode="G" horiz-adv-x="689" d="M606 24q-35 -17 -86.5 -27t-120.5 -10q-64 0 -124.5 21t-107.5 65t-75.5 112.5t-28.5 163.5q0 90 29.5 156t77.5 109.5t109 65t124 21.5q72 0 115.5 -11.5t68.5 -25.5l-18 -34q-10 6 -27 11.5t-38 10t-46 7t-50 2.5q-60 0 -112 -19t-90.5 -58t-60 -99.5t-21.5 -142.5 q0 -76 22.5 -135t60.5 -99t89 -61t107 -21q50 0 89 7t57 17v288h-170v39h227v-353v0z" />
<glyph unicode="H" horiz-adv-x="659" d="M519 0v338h-379v-338h-57v688h57v-311h379v311h57v-688h-57z" />
<glyph unicode="I" horiz-adv-x="237" d="M90 0v688h57v-688h-57z" />
<glyph unicode="J" horiz-adv-x="237" d="M147 19q0 -52 -19.5 -93.5t-51 -72t-72.5 -50t-84 -26.5v41q32 9 62.5 26t54.5 42.5t38.5 58.5t14.5 74v669h57v-669v0z" />
<glyph unicode="K" horiz-adv-x="577" d="M490 0l-345 367h-2v-367h-56v688h56v-319h2l339 319h69l-348 -318l360 -370h-75z" />
<glyph unicode="L" horiz-adv-x="462" d="M87 0v688h57v-648h285v-40h-342z" />
<glyph unicode="M" horiz-adv-x="904" d="M787 0l-81 575q-4 31 -6 55q-1 12 -1 24h-2q-1 -12 -5 -24q-3 -11 -7.5 -25t-9.5 -30l-203 -575h-46l-201 576q-5 15 -9.5 29t-6.5 25q-4 12 -5 24h-2l-2 -24q-2 -25 -6 -54l-83 -576h-51l109 688h65l193 -554q6 -17 10 -31.5t7 -25.5q3 -12 5 -22h2q1 10 4 22 q5 21 17 57l198 554h65l109 -688h-57z" />
<glyph unicode="N" horiz-adv-x="723" d="M581 0l-402 574q-11 14 -19.5 27.5t-15.5 24.5q-8 12 -14 23h-2q0 -13 1 -28q1 -13 1.5 -29.5t0.5 -33.5v-558h-48v688h72l391 -557q11 -17 20.5 -31t15.5 -24l12 -21h2q-1 12 -2 26q-1 12 -1.5 28t-0.5 34v545h48v-688h-59z" />
<glyph unicode="O" horiz-adv-x="720" d="M657 344q0 -74 -17.5 -139t-54.5 -113.5t-93 -76.5t-132 -28q-77 0 -132.5 28t-92.5 76.5t-54.5 113.5t-17.5 139q0 73 17.5 138t54.5 114t92.5 77t132.5 28q76 0 132 -28t93 -77t54.5 -114t17.5 -138zM596 345q0 57 -12.5 113.5t-40.5 101.5t-73 73.5t-110 28.5 t-110 -28.5t-73 -73.5t-40.5 -101.5t-12.5 -113.5q0 -56 12 -112t39.5 -101t72.5 -73.5t112 -28.5t112.5 28.5t73 73.5t39 101t11.5 112z" />
<glyph unicode="P" horiz-adv-x="575" d="M526 496q0 -41 -15.5 -78t-48.5 -64.5t-86 -43.5t-128 -16q-28 0 -59 2t-50 5v-301h-56v664q32 16 82 26.5t103 10.5q66 0 114.5 -15t80.5 -42.5t47.5 -65t15.5 -82.5zM468 498q0 81 -51.5 124t-158.5 43q-39 0 -70 -6.5t-49 -14.5v-303q19 -4 47.5 -7t56.5 -3 q60 0 103 12.5t70 34.5t39.5 53t12.5 67z" />
<glyph unicode="Q" horiz-adv-x="720" d="M657 346q0 -54 -11 -104.5t-33 -94.5t-55 -79.5t-78 -59.5l149 -159l-51 -40l-134 188q-25 -6 -43.5 -8t-40.5 -2q-77 0 -132.5 28.5t-92.5 77.5t-54.5 114t-17.5 139q0 73 17.5 137.5t54.5 113t92.5 76.5t132.5 28t133 -28t92.5 -76.5t54 -113t17.5 -137.5zM596 348 q0 56 -12 112t-39.5 101t-72.5 73t-112 28q-66 0 -111.5 -28t-73 -73t-39.5 -101t-12 -112t11.5 -112.5t38.5 -103t72.5 -75.5t113.5 -29t113.5 29t72.5 75.5t38.5 103t11.5 112.5z" />
<glyph unicode="R" horiz-adv-x="589" d="M460 0l-316 342h-2v-342h-56v664q29 14 78 25.5t103 11.5q121 0 186.5 -52t65.5 -144q0 -197 -280 -197v-2l299 -306h-78zM461 504q0 84 -49.5 123t-147.5 39q-38 0 -70 -6.5t-52 -16.5v-297q17 -4 42.5 -7.5t53.5 -3.5q223 0 223 169z" />
<glyph unicode="S" horiz-adv-x="535" d="M474 189q0 -44 -18.5 -81t-50.5 -64t-77 -42t-97 -15q-60 0 -108.5 11.5t-75.5 25.5l22 40q26 -13 65.5 -23t87.5 -10q42 0 77 11.5t61 31.5t40.5 48.5t14.5 63.5q0 47 -26 74t-65 45.5t-84 32.5t-84 34.5t-65 53.5t-26 88q0 37 15.5 70.5t45 59.5t71 41.5t93.5 15.5 q54 0 96.5 -12t65.5 -25l-20 -37q-20 12 -58.5 23t-80.5 11q-38 0 -69.5 -10.5t-53.5 -30t-34 -46t-12 -58.5q0 -45 26 -70.5t65 -43t84 -31.5t84 -35.5t65 -55.5t26 -91z" />
<glyph unicode="T" horiz-adv-x="517" d="M287 649v-649h-57v649h-200v39h457v-39h-200z" />
<glyph unicode="U" horiz-adv-x="645" d="M562 190q0 -42 -16 -78.5t-46.5 -64.5t-75.5 -44t-102 -16t-101.5 16t-75 44t-46.5 64.5t-16 78.5v498h57v-498q0 -37 16 -66t42 -49.5t59.5 -31t68.5 -10.5t68 10.5t59 31t42 49.5t16 66v498h51v-498v0z" />
<glyph unicode="V" horiz-adv-x="602" d="M326 0h-43l-251 688h63l182 -526q11 -34 19 -65q4 -17 8 -32h2q4 15 8 32q8 31 20 65l182 526h57z" />
<glyph unicode="W" horiz-adv-x="947" d="M700 0h-42l-163 539q-5 16 -8.5 31t-5.5 27q-3 14 -5 26h-2q-1 -13 -4 -26q-2 -12 -5.5 -26.5t-8.5 -31.5l-163 -539h-42l-207 688h63l148 -545q4 -15 7.5 -29t5.5 -25q3 -13 4 -24h2q2 11 5 24q2 11 5.5 25t8.5 29l164 545h41l164 -545q4 -14 7.5 -28t5.5 -25l5 -25h2 q1 12 4 25q2 11 5 25t7 28l155 545h53z" />
<glyph unicode="X" horiz-adv-x="607" d="M505 0l-201 318h-2l-207 -318h-63l243 358l-217 330h68l178 -284h2l188 284h61l-222 -324l242 -364h-70z" />
<glyph unicode="Y" d="M321 313v-313h-57v313l-239 375h65l205 -336h2l208 336h57z" />
<glyph unicode="Z" horiz-adv-x="489" d="M28 0l336 649h-323v39h405l-333 -648h343v-40h-428z" />
<glyph unicode="[" horiz-adv-x="331" d="M85 -215v1000h191v-34h-141v-931h141v-35h-191z" />
<glyph unicode="\" horiz-adv-x="490" d="M432 -124l-412 901l39 18l411 -901z" />
<glyph unicode="]" horiz-adv-x="331" d="M55 -215v35h141v931h-141v34h191v-1000h-191z" />
<glyph unicode="^" horiz-adv-x="620" d="M501 473l-191 185l-191 -185l-17 18l168 183q21 22 40 22q21 0 40 -22l168 -183z" />
<glyph unicode="_" d="M-10 -185v38h604v-38h-604z" />
<glyph unicode="`" horiz-adv-x="240" d="M138 600l-128 134q3 7 10.5 11t18 4t22 -4t22.5 -11l87 -134h-32z" />
<glyph unicode="a" horiz-adv-x="544" d="M467 24q-35 -17 -84.5 -27t-109.5 -10q-59 0 -101 11.5t-69 32t-39.5 49t-12.5 62.5q0 56 28.5 92.5t78 60t116 35.5t141.5 19v37q0 36 -12 60.5t-34 39.5t-51.5 21t-64.5 6q-41 0 -82.5 -9.5t-65.5 -21.5l-16 33q26 12 72.5 24.5t99.5 12.5q41 0 78.5 -8.5t66 -28 t45 -51.5t16.5 -79v-361zM415 317q-70 -8 -127.5 -18.5t-98 -30t-62.5 -49.5t-22 -77q0 -32 12.5 -55t36 -38t56 -22t72.5 -7q42 0 76 7.5t57 18.5v271z" />
<glyph unicode="b" horiz-adv-x="575" d="M520 276q0 -62 -17 -115t-51.5 -91.5t-85.5 -60.5t-118 -22q-57 0 -101 11t-70 26v761h53v-263q23 11 59 19.5t87 8.5q55 0 100 -19.5t77 -55.5t49.5 -86.5t17.5 -112.5zM466 276q0 48 -12.5 91.5t-37.5 76.5t-63.5 52.5t-89.5 19.5q-42 0 -74.5 -6.5t-58.5 -18.5v-444 q21 -10 49 -16.5t67 -6.5q57 0 98.5 19.5t68.5 53t40 79.5t13 100z" />
<glyph unicode="c" horiz-adv-x="477" d="M437 24q-18 -14 -55 -25.5t-88 -11.5t-94.5 20t-75.5 57t-50.5 89t-18.5 116q0 66 18 118t50.5 89t77.5 56.5t98 19.5t86.5 -11.5t51.5 -25.5l-17 -34q-15 10 -44 20.5t-67 10.5q-50 0 -87.5 -18.5t-62 -51t-37 -76t-12.5 -93.5q0 -53 14 -97.5t39.5 -76.5t61.5 -50.5 t81 -18.5q35 0 63.5 9.5t48.5 21.5l19 -37v0z" />
<glyph unicode="d" horiz-adv-x="575" d="M498 24q-26 -15 -72 -26t-105 -11q-68 0 -118 19.5t-83 55.5t-49 86t-16 110q0 68 20 122t56.5 91.5t87.5 57t113 19.5q31 0 60 -3.5t53 -9.5v250h53v-761zM445 504q-47 11 -103 11q-64 0 -108.5 -22t-72 -57.5t-40 -80.5t-12.5 -90q0 -54 12 -98t38.5 -76t67.5 -49.5 t99 -17.5q38 0 69.5 7.5t49.5 17.5v455z" />
<glyph unicode="e" horiz-adv-x="583" d="M107 245q8 -108 67 -162t155 -54q54 0 92.5 11t62.5 23l21 -39q-26 -14 -73 -25.5t-104 -11.5q-58 0 -108 16t-86.5 50.5t-57.5 88t-21 129.5q0 71 19 124t52 88t77.5 52t95.5 17t93.5 -14.5t72.5 -45.5t46.5 -79.5t16.5 -115.5zM473 324q0 51 -13 87t-36.5 59.5 t-55.5 34t-71 10.5t-73.5 -14t-60.5 -43t-41.5 -74t-15.5 -106z" />
<glyph unicode="f" horiz-adv-x="344" d="M187 508v-508h-54v508h-90v31h90v86q0 34 10.5 63t31.5 50.5t53.5 34t76.5 12.5h10v-34h-8q-23 0 -44.5 -7t-38 -21.5t-27 -36.5t-10.5 -52v-95h128v-31h-128z" />
<glyph unicode="g" horiz-adv-x="575" d="M498 -17q0 -96 -59 -153t-170 -57q-58 0 -110 11t-80 24l19 37q12 -6 30 -11.5t40 -10t46 -7t48 -2.5q47 0 82 12.5t57.5 34t33.5 51t11 63.5v41q-23 -12 -62 -19.5t-83 -7.5q-57 0 -103 19.5t-77.5 55t-48.5 85.5t-17 112q0 63 17 116t51.5 92t85 61t118.5 22 q57 0 102 -11.5t69 -25.5v-532zM446 494q-20 10 -48 17t-70 7q-55 0 -96 -19t-68.5 -53.5t-41 -81.5t-13.5 -103q0 -111 52.5 -174t156.5 -63q36 0 71.5 7.5t56.5 18.5v444z" />
<glyph unicode="h" horiz-adv-x="577" d="M446 0v395q0 21 -9 42.5t-29 39t-51 28t-74 10.5t-84.5 -9.5t-67.5 -23.5v-482h-54v785h54v-270q29 14 67 25.5t89 11.5q61 0 102 -14.5t65.5 -37t35 -50t10.5 -53.5v-397h-54z" />
<glyph unicode="i" horiz-adv-x="224" d="M151 689q0 -17 -11 -28t-28 -11t-28 11t-11 28t11 28t28 11t28 -11t11 -28zM85 0v539h54v-539h-54z" />
<glyph unicode="j" horiz-adv-x="230" d="M157 689q0 -17 -11 -28t-28 -11t-28 11t-11 28t11 28t28 11t28 -11t11 -28zM145 17q0 -54 -17 -96t-44 -72t-60.5 -47.5t-66.5 -22.5v36q25 8 49.5 23.5t43 40t30 59t11.5 79.5v522h54v-522z" />
<glyph unicode="k" horiz-adv-x="514" d="M435 0l-299 303h-1v-303h-52v785h52v-480h1l277 234h67l-284 -235l308 -304h-69z" />
<glyph unicode="l" horiz-adv-x="224" d="M85 0v785h54v-785h-54z" />
<glyph unicode="m" horiz-adv-x="940" d="M809 0v395q0 22 -8.5 44t-26.5 38.5t-46.5 27t-68.5 10.5q-48 0 -89 -14.5t-73 -45.5v-455h-54v400q0 51 -43 83t-124 32q-48 0 -83.5 -6t-61.5 -17v-492h-54v515q35 15 87.5 26t115.5 11q72 0 118 -18.5t75 -51.5q35 32 83.5 51t109.5 19q57 0 95 -15t60.5 -38t32 -50.5 t9.5 -51.5v-397h-54z" />
<glyph unicode="n" horiz-adv-x="577" d="M446 0v395q0 34 -16 57t-41.5 37t-58 20t-65.5 6q-38 0 -74 -6.5t-60 -16.5v-492h-54v515q35 16 88.5 26.5t110.5 10.5q43 0 83 -8t71.5 -26t50.5 -47.5t19 -73.5v-397h-54z" />
<glyph unicode="o" horiz-adv-x="588" d="M533 269q0 -59 -13.5 -110.5t-43 -89.5t-74.5 -60t-108 -22t-108 22t-74.5 60t-43 89.5t-13.5 110.5t13.5 110.5t43 90t74.5 60.5t108 22t108 -22t74.5 -60.5t43 -90t13.5 -110.5zM479 268q0 43 -9 87.5t-30 79.5t-56.5 57.5t-89.5 22.5t-89.5 -22.5t-56.5 -57.5 t-30 -79.5t-9 -87.5q0 -44 9 -87t31 -77t57 -55.5t88 -21.5q54 0 89.5 21.5t56.5 55.5t30 77t9 87z" />
<glyph unicode="p" horiz-adv-x="575" d="M520 281q0 -68 -19.5 -122.5t-55.5 -92.5t-87.5 -58t-115.5 -20q-27 0 -59.5 4t-52.5 10v-217h-53v730q27 14 72.5 25.5t103.5 11.5q67 0 117 -20t83.5 -56t50 -85.5t16.5 -109.5zM466 275q0 55 -11.5 100t-37.5 77t-67 49t-101 17q-40 0 -69.5 -7t-49.5 -17v-458 q17 -6 45.5 -9.5t56.5 -3.5q55 0 98.5 17.5t73.5 50.5t46 79.5t16 104.5z" />
<glyph unicode="q" horiz-adv-x="575" d="M447 -215v231q-23 -12 -62.5 -19.5t-83.5 -7.5q-57 0 -103 19t-77.5 54t-48.5 85t-17 112q0 63 17 116.5t51.5 92.5t85 61.5t118.5 22.5q60 0 103.5 -11.5t67.5 -25.5v-730h-51zM447 494q-22 11 -52 17.5t-67 6.5q-56 0 -97 -19t-68 -53.5t-40.5 -81.5t-13.5 -103 q0 -111 52.5 -174t156.5 -63q36 0 72 7.5t57 18.5v444z" />
<glyph unicode="r" horiz-adv-x="346" d="M313 506q-21 4 -47 6t-51 0t-47.5 -7t-36.5 -14v-491h-54v515q23 9 46 16t49 11.5t57 7t71 2.5q8 0 17 -0.5t14 -0.5z" />
<glyph unicode="s" horiz-adv-x="463" d="M410 144q0 -28 -15 -56t-42.5 -50.5t-66 -36.5t-84.5 -14q-50 0 -93 11.5t-66 25.5l20 38q19 -12 54.5 -22.5t81.5 -10.5q32 0 60.5 9t49.5 24.5t33 36.5t12 44q0 40 -21.5 62.5t-53.5 36.5t-69.5 24.5t-69.5 27t-53.5 43.5t-21.5 74q0 25 12.5 50.5t36.5 45.5t59 32.5 t80 12.5q46 0 82 -12t56 -25l-20 -35q-14 9 -43.5 21t-71.5 12q-32 0 -57.5 -8t-43.5 -22t-27.5 -32.5t-9.5 -38.5q0 -36 21.5 -57t54 -34.5t70.5 -25t70.5 -29t54 -46t21.5 -76.5z" />
<glyph unicode="t" horiz-adv-x="354" d="M315 -5q-8 -2 -17.5 -3.5t-22.5 -1.5q-41 0 -68 12t-43.5 30.5t-23.5 41.5t-7 45v389h-90v31h90v129l54 20v-149h128v-31h-128v-392q0 -33 25.5 -60.5t76.5 -27.5h13t13 2v-35v0z" />
<glyph unicode="u" horiz-adv-x="564" d="M487 24q-25 -14 -80 -25.5t-124 -11.5q-56 0 -95 14t-64 38t-36 56t-11 68v376h54v-375q0 -60 40.5 -98.5t118.5 -38.5q46 0 83.5 7t59.5 18v487h54v-515v0z" />
<glyph unicode="v" horiz-adv-x="545" d="M301 0h-48l-217 539h62l159 -425q5 -13 8.5 -24.5t6.5 -20.5q4 -11 6 -20h2q2 9 6 20q3 9 6.5 20.5t8.5 24.5l156 425h55z" />
<glyph unicode="w" horiz-adv-x="881" d="M655 0h-47l-147 432q-4 11 -7 22t-5 20q-3 10 -4 19h-2q-1 -9 -4 -19q-2 -8 -5 -19.5t-7 -22.5l-151 -432h-47l-187 539h61l135 -425q4 -13 7 -24.5t5 -20.5q3 -11 4 -19h2q0 8 3 19q2 9 5 20.5t8 24.5l146 425h56l142 -425q3 -11 6.5 -21.5t5.5 -20.5q3 -11 5 -22h2 q1 11 4 22q2 10 4.5 20.5t6.5 21.5l137 425h55z" />
<glyph unicode="x" horiz-adv-x="549" d="M447 0l-174 245h-2l-174 -245h-64l214 283l-191 256h65l154 -218h2l157 218h60l-194 -254l216 -285h-69z" />
<glyph unicode="y" horiz-adv-x="545" d="M211 -215h-63l106 215l-218 539h61l158 -425q5 -13 8.5 -24.5t6.5 -21.5q4 -11 7 -22h2q2 11 6 22q3 10 7 21.5t9 24.5l161 425h50z" />
<glyph unicode="z" horiz-adv-x="468" d="M33 0l303 508h-284v31h361l-298 -505h310v-34h-392z" />
<glyph unicode="{" horiz-adv-x="353" d="M293 -130q-78 0 -119.5 34t-41.5 105v163q0 37 -3 62.5t-11.5 42t-22.5 24.5t-35 10v33q21 1 35 9.5t22.5 25t11.5 42t3 62.5v162q0 68 41.5 104t119.5 36v-34q-52 0 -82 -25t-30 -82v-194q0 -57 -19 -85t-56 -37v-2q37 -9 56 -36.5t19 -84.5v-195q0 -57 30 -82t82 -25 v-33v0z" />
<glyph unicode="|" horiz-adv-x="218" d="M85 -215v1000h48v-1000h-48z" />
<glyph unicode="}" horiz-adv-x="353" d="M293 311q-21 -2 -35 -10t-22.5 -24.5t-11.5 -42t-3 -62.5v-163q0 -71 -41.5 -105t-119.5 -34v33q52 0 82 25t30 82v195q0 57 19.5 84.5t56.5 36.5v2q-37 9 -56.5 37t-19.5 85v194q0 57 -30 82t-82 25v34q78 0 119.5 -36t41.5 -104v-162q0 -37 3 -62.5t11.5 -42t22.5 -25 t35 -9.5v-33v0z" />
<glyph unicode="~" horiz-adv-x="650" d="M552 351q-11 -31 -36 -51t-77 -27q-32 -5 -58.5 6t-52 25t-53 25t-60.5 7q-19 -2 -33 -9t-24.5 -16.5t-18 -19.5t-11.5 -19l-30 28q7 15 15.5 28t20.5 23.5t29.5 17.5t42.5 10q37 4 65 -7t53 -25t50.5 -25t57.5 -7q37 5 57.5 25.5t29.5 40.5l33 -30v0z" />
<glyph unicode="&#xa1;" horiz-adv-x="270" d="M192 434q0 -18 -13 -31t-31 -13t-31 13t-13 31t13 31t31 13t31 -13t13 -31zM116 -215l12 473h40l12 -473h-64z" />
<glyph unicode="&#xa2;" d="M468 135q-16 -10 -50 -20t-81 -11l6 -104h-44l7 105q-93 8 -149.5 69.5t-56.5 168.5q0 51 15.5 93t43 73t65.5 49.5t84 22.5l-8 107h45l-6 -106q48 0 81 -11t48 -21l-17 -30q-17 9 -42.5 17.5t-61.5 8.5q-49 0 -85.5 -15.5t-60.5 -42.5t-36 -63.5t-12 -78.5 q0 -45 13 -82.5t37.5 -64t60 -41.5t80.5 -15q35 0 60.5 7.5t45.5 17.5l18 -33v0z" />
<glyph unicode="&#xa3;" d="M78 0q46 48 77.5 109.5t31.5 127.5q0 15 -1 26.5t-3.5 23t-5.5 24t-7 27.5h-112v33h102q-12 32 -21.5 66.5t-9.5 77.5q0 39 17 73t47.5 59t73.5 39.5t95 14.5q58 0 96 -11.5t60 -25.5l-21 -35q-19 10 -50.5 20.5t-82.5 10.5q-46 0 -80 -12.5t-56 -34.5t-33 -50.5 t-11 -60.5t5.5 -62.5t19.5 -68.5h171v-33h-161q8 -31 10.5 -54t2.5 -49q0 -29 -8 -59t-18.5 -56.5t-22 -46t-18.5 -28.5h368v-45h-455z" />
<glyph unicode="&#xa4;" d="M539 24q-19 -12 -53.5 -24.5t-76.5 -12.5q-59 0 -104.5 21.5t-78 59t-52 89.5t-26.5 113l-103 -9v40l101 -8q-1 13 -1.5 25.5t-0.5 25.5q0 20 1 39t3 37l-103 -9v40l106 -9q9 55 28 102.5t50.5 82.5t75 54.5t100.5 19.5q48 0 82.5 -13t51.5 -24l-19 -33q-10 8 -39.5 19 t-66.5 11q-51 0 -87.5 -17.5t-61 -47.5t-39 -69.5t-20.5 -84.5l199 9v-40l-201 9q-2 -19 -3 -38t-1 -38q0 -13 0.5 -26t1.5 -26l203 9v-40l-201 9q6 -49 20 -93t39.5 -77t63 -52t90.5 -19q36 0 62.5 10.5t39.5 18.5l20 -34v0z" />
<glyph unicode="&#xa5;" d="M399 441l138 7v-35l-149 9l-66 -109l215 7v-36l-217 10v-294h-54v294l-220 -10v36l218 -7l-67 109l-151 -9v35l140 -7l-151 247h65l194 -345h2l198 345h55z" />
<glyph unicode="&#xa6;" horiz-adv-x="218" d="M85 392v393h48v-393h-48zM85 -215v393h48v-393h-48z" />
<glyph unicode="&#xa7;" d="M499 215q0 -28 -12.5 -52.5t-32.5 -45.5t-46 -38.5t-54 -31.5q29 -21 46.5 -39.5t26.5 -35.5t12 -32t3 -29q0 -29 -13.5 -54t-37.5 -43.5t-57 -29t-72 -10.5q-43 0 -80 11.5t-61 25.5l21 36q16 -11 48 -22t68 -11q24 0 48 6t42.5 18t30 29t11.5 39q0 13 -3 25.5t-12 26 t-25 28t-41 32.5l-118 84q-29 21 -49 40t-32.5 39t-18 42t-5.5 48q0 32 13 58t33.5 47t46 37.5t50.5 29.5q-45 35 -60.5 65t-15.5 65q0 25 12 48t33.5 41t51.5 28.5t65 10.5q48 0 82 -12t50 -25l-19 -31q-17 11 -45 21t-64 10q-24 0 -45.5 -6.5t-38 -18t-26 -28.5t-9.5 -38 q0 -14 4.5 -27.5t15 -28.5t29 -32t46.5 -37l85 -61q33 -24 55.5 -44t36.5 -40.5t20.5 -41.5t6.5 -46zM449 207q0 21 -5 38.5t-16 34t-28.5 33t-43.5 35.5l-100 73q-20 -10 -41.5 -24t-39.5 -32t-30 -40t-12 -48q0 -47 25.5 -79t72.5 -65l92 -65q22 12 44.5 26t40.5 31 t29.5 37.5t11.5 44.5z" />
<glyph unicode="&#xa8;" horiz-adv-x="240" d="M240 658q0 -14 -10 -24t-24 -10t-23.5 10t-9.5 24t9.5 24t23.5 10t24 -10t10 -24zM67 658q0 -14 -9.5 -24t-23.5 -10t-24 10t-10 24t10 24t24 10t23.5 -10t9.5 -24z" />
<glyph unicode="&#xa9;" horiz-adv-x="844" d="M779 344q0 -74 -28 -139t-76.5 -113.5t-113.5 -76.5t-139 -28t-139 28t-113.5 76.5t-76.5 113.5t-28 139t28 139t76.5 113.5t113.5 76.5t139 28t139 -28t113.5 -76.5t76.5 -113.5t28 -139zM741 344q0 66 -25 124t-68.5 101.5t-101.5 68.5t-124 25t-124 -25t-101.5 -68.5 t-68.5 -101.5t-25 -124t25 -124t68.5 -101t101.5 -68t124 -25t124 25t101.5 68t68.5 101t25 124zM586 210q-29 -35 -71 -55.5t-91 -20.5q-44 0 -82 16.5t-66.5 45.5t-45 67t-16.5 82t16.5 82.5t45 67.5t66.5 45.5t82 16.5q50 0 90.5 -21t70.5 -56l-26 -24q-24 30 -58.5 48 t-76.5 18q-36 0 -68 -14t-55.5 -38t-37.5 -56t-14 -69q0 -36 14 -68t37.5 -56t55.5 -38t68 -14q40 0 75 17t59 46z" />
<glyph unicode="&#xaa;" horiz-adv-x="390" d="M333 383q-24 -11 -57 -17.5t-73 -6.5q-80 0 -117.5 27t-37.5 68q0 35 20.5 57t55 35t79 19.5t92.5 10.5v22q0 21 -8.5 34.5t-23 21.5t-34 11.5t-41.5 3.5q-26 0 -52 -6t-43 -14l-13 26q19 8 48 15.5t65 7.5q28 0 53 -5t44.5 -16t31 -30.5t11.5 -47.5v-216zM295 551 q-45 -5 -83 -10.5t-66 -16t-43.5 -27t-15.5 -43.5q0 -38 35.5 -53.5t86.5 -15.5q22 0 47 3.5t39 8.5v154z" />
<glyph unicode="&#xab;" horiz-adv-x="554" d="M446 126l-191 208l191 208l28 -27l-169 -181l169 -181zM259 126l-189 208l189 208l29 -27l-168 -181l168 -181z" />
<glyph unicode="&#xac;" d="M471 153v165h-401v40h444v-205h-43z" />
<glyph unicode="&#xae;" horiz-adv-x="844" d="M779 344q0 -74 -28 -139t-76.5 -113.5t-113.5 -76.5t-139 -28t-139 28t-113.5 76.5t-76.5 113.5t-28 139t28 139t76.5 113.5t113.5 76.5t139 28t139 -28t113.5 -76.5t76.5 -113.5t28 -139zM741 344q0 66 -25 124t-68.5 101.5t-101.5 68.5t-124 25t-124 -25t-101.5 -68.5 t-68.5 -101.5t-25 -124t25 -124t68.5 -101t101.5 -68t124 -25t124 25t101.5 68t68.5 101t25 124zM519 135l-147 203h-18v-203h-37v416q18 9 43 14t51 5q24 0 48 -6.5t43.5 -20.5t31.5 -36t12 -54q0 -56 -37.5 -85t-95.5 -29l149 -204h-43zM508 454q0 24 -9.5 40.5 t-24.5 26.5t-33.5 14t-35.5 4q-14 0 -27 -2.5t-24 -6.5v-166h43q20 0 40 4.5t35.5 15t25.5 28t10 42.5z" />
<glyph unicode="&#xaf;" horiz-adv-x="240" d="M-37 632v36h314v-36h-314z" />
<glyph unicode="&#xb0;" horiz-adv-x="423" d="M358 555q0 -30 -11.5 -57t-31 -47t-46.5 -31.5t-57 -11.5t-57 11.5t-47 31.5t-31.5 47t-11.5 57t11.5 57t31.5 46.5t47 31t57 11.5t57 -11.5t46.5 -31t31 -46.5t11.5 -57zM324 555q0 23 -9 43.5t-24 35.5t-35.5 24t-43.5 9t-43.5 -9t-36 -24t-24.5 -35.5t-9 -43.5 t9 -43.5t24.5 -35.5t36 -24t43.5 -9t43.5 9t35.5 24t24 35.5t9 43.5z" />
<glyph unicode="&#xb1;" d="M312 365v-184h-42v184h-200v41h200v183h42v-183h202v-41h-202zM70 74v40h444v-40h-444z" />
<glyph unicode="&#xb2;" horiz-adv-x="403" d="M55 280l188 205q32 35 40.5 58t8.5 42q0 38 -28.5 59t-82.5 21q-26 0 -47 -5.5t-38 -13.5l-16 30q17 8 44.5 15.5t69.5 7.5q29 0 55 -7.5t45.5 -22t31 -35.5t11.5 -48q0 -23 -13 -53t-47 -66l-143 -151h203v-36h-282z" />
<glyph unicode="&#xb3;" horiz-adv-x="403" d="M333 397q0 -29 -12 -52t-32.5 -39.5t-48.5 -25.5t-60 -9q-39 0 -68 6t-52 17l15 31q19 -9 44 -14.5t53 -5.5q51 0 84 24.5t33 67.5q0 31 -16.5 50t-40 28.5t-50 11.5t-47.5 1v31q58 4 96.5 25.5t38.5 57.5q0 18 -8 30t-21 19.5t-29 10.5t-32 3q-23 0 -45 -4.5t-42 -13.5 l-16 29q47 23 108 23q24 0 47 -6t41 -17.5t29 -29t11 -40.5q0 -21 -8.5 -36.5t-21 -27.5t-27.5 -20t-27 -12q18 -5 36.5 -13t33.5 -21.5t24.5 -33t9.5 -45.5z" />
<glyph unicode="&#xb4;" horiz-adv-x="240" d="M102 600h-32l87 134q10 7 22 11t22.5 4t18 -4t10.5 -11z" />
<glyph unicode="&#xb5;" horiz-adv-x="577" d="M500 24q-34 -17 -85 -27t-117 -10q-42 0 -88.5 10.5t-78.5 26.5v-239h-54v754h54v-481q31 -15 75 -23t88 -8q97 0 152 25v487h54v-515v0z" />
<glyph unicode="&#xb6;" horiz-adv-x="610" d="M508 655v-870h-47v870h-192v-870h-47v574q-44 3 -75.5 16.5t-52 35t-30 50t-9.5 60.5q0 48 16.5 80t46 51.5t70 27.5t88.5 8h274v-33h-42z" />
<glyph unicode="&#xb7;" horiz-adv-x="224" d="M155 344q0 -18 -12.5 -30.5t-30.5 -12.5t-30.5 12.5t-12.5 30.5t12.5 30.5t30.5 12.5t30.5 -12.5t12.5 -30.5z" />
<glyph unicode="&#xb8;" horiz-adv-x="240" d="M249 -132q0 -44 -68 -64t-190 -12l20 26q43 -3 77.5 0t59.5 10.5t38.5 17.5t13.5 22q0 23 -33.5 35t-100.5 7l20 25q75 6 119 -10.5t44 -56.5z" />
<glyph unicode="&#xb9;" horiz-adv-x="403" d="M226 280v343q-31 -10 -64 -15t-68 -7l-3 22q54 6 94 24t58 41h25v-408h-42z" />
<glyph unicode="&#xba;" horiz-adv-x="390" d="M352 528q0 -35 -9.5 -66t-29 -54t-49 -36t-69.5 -13t-69.5 13t-49 36t-29 54t-9.5 66q0 36 9.5 67t29 54t49 36t69.5 13t69.5 -13t49 -36t29 -54t9.5 -67zM310 528q0 26 -5.5 51.5t-18.5 46t-35.5 33.5t-55.5 13t-55.5 -12.5t-35.5 -33t-18.5 -46.5t-5.5 -52t5.5 -51 t19 -44.5t35.5 -31.5t55 -12t55.5 12t35.5 31.5t18.5 44.5t5.5 51z" />
<glyph unicode="&#xbb;" horiz-adv-x="554" d="M295 126l-29 27l168 181l-168 181l29 27l189 -208zM108 126l-28 27l169 181l-169 181l28 27l191 -208z" />
<glyph unicode="&#xbc;" horiz-adv-x="896" d="M763 98v-98h-40v98h-199v30l206 285h33v-284h48v-31h-48zM256 -10l-36 20l405 689l37 -20zM190 280v343q-31 -10 -64 -15t-68 -7l-3 22q54 6 94 24t58 41h25v-408h-42zM723 361q-4 -7 -8 -15q-7 -12 -20 -32l-130 -185h158v185v17.5t1 15.5q0 8 1 14h-2z" />
<glyph unicode="&#xbd;" horiz-adv-x="896" d="M529 0l188 205q32 35 40.5 58t8.5 42q0 38 -28.5 59t-82.5 21q-26 0 -47 -5.5t-38 -13.5l-16 30q17 8 44.5 15.5t69.5 7.5q29 0 55 -7.5t45.5 -22t31 -35.5t11.5 -48q0 -23 -13 -53t-47 -66l-143 -151h203v-36h-282zM233 -10l-36 20l405 689l37 -20zM190 280v343 q-31 -10 -64 -15t-68 -7l-3 22q54 6 94 24t58 41h25v-408h-42z" />
<glyph unicode="&#xbe;" horiz-adv-x="896" d="M768 102v-98h-40v98h-199v30l206 285h33v-284h48v-31h-48zM290 -6l-36 20l405 689l37 -20zM333 397q0 -29 -12 -52t-32.5 -39.5t-48.5 -25.5t-60 -9q-39 0 -68 6t-52 17l15 31q19 -9 44 -14.5t53 -5.5q51 0 84 24.5t33 67.5q0 31 -16.5 50t-40 28.5t-50 11.5t-47.5 1v31 q58 4 96.5 25.5t38.5 57.5q0 18 -8 30t-21 19.5t-29 10.5t-32 3q-23 0 -45 -4.5t-42 -13.5l-16 29q47 23 108 23q24 0 47 -6t41 -17.5t29 -29t11 -40.5q0 -21 -8.5 -36.5t-21 -27.5t-27.5 -20t-27 -12q18 -5 36.5 -13t33.5 -21.5t24.5 -33t9.5 -45.5zM728 365q-4 -7 -8 -15 q-7 -12 -20 -32l-130 -185h158v185v17.5t1 15.5q0 8 1 14h-2z" />
<glyph unicode="&#xbf;" horiz-adv-x="422" d="M295 440q0 -18 -13 -31t-31 -13t-31 13t-13 31t13 31t31 13t31 -13t13 -31zM407 -185q-25 -13 -64 -25t-89 -12q-97 0 -153 44t-56 117q0 33 18 60.5t45 48t57.5 34t54.5 19.5l11 163h40l13 -182q-26 -5 -57.5 -16t-59.5 -28.5t-47 -42t-19 -56.5q0 -52 39.5 -86 t119.5 -34q42 0 74.5 9t52.5 19z" />
<glyph unicode="&#xc0;" horiz-adv-x="688" d="M360 740l-128 134q3 7 10.5 11t18 4t22 -4t22.5 -11l87 -134h-32zM598 0l-96 235h-320l-96 -235h-60l296 688h44l296 -688h-64zM374 551q-9 21 -14.5 38t-9.5 28q-4 13 -7 23h-2q-3 -10 -7 -23q-4 -11 -10 -28t-14 -38l-113 -279h290z" />
<glyph unicode="&#xc1;" horiz-adv-x="688" d="M334 740h-32l87 134q21 15 44 15t29 -15zM598 0l-96 235h-320l-96 -235h-60l296 688h44l296 -688h-64zM374 551q-9 21 -14.5 38t-9.5 28q-4 13 -7 23h-2q-3 -10 -7 -23q-4 -11 -10 -28t-14 -38l-113 -279h290z" />
<glyph unicode="&#xc2;" horiz-adv-x="688" d="M470 743l-126 80l-128 -80l-15 13l114 98q14 13 27 13q15 0 29 -13l114 -98zM598 0l-96 235h-320l-96 -235h-60l296 688h44l296 -688h-64zM374 551q-9 21 -14.5 38t-9.5 28q-4 13 -7 23h-2q-3 -10 -7 -23q-4 -11 -10 -28t-14 -38l-113 -279h290z" />
<glyph unicode="&#xc3;" horiz-adv-x="688" d="M503 809q-12 -29 -35.5 -40.5t-53.5 -11.5q-20 0 -36.5 6t-32 12.5t-31 12.5t-33.5 6q-49 0 -68 -41l-24 25q14 29 36 41t53 12q21 0 37 -6t31 -13.5t29.5 -13.5t32.5 -6q25 0 42.5 11.5t25.5 31.5zM598 0l-96 235h-320l-96 -235h-60l296 688h44l296 -688h-64zM374 551 q-9 21 -14.5 38t-9.5 28q-4 13 -7 23h-2q-3 -10 -7 -23q-4 -11 -10 -28t-14 -38l-113 -279h290z" />
<glyph unicode="&#xc4;" horiz-adv-x="688" d="M464 798q0 -14 -10 -24t-24 -10t-23.5 10t-9.5 24t9.5 24t23.5 10t24 -10t10 -24zM291 798q0 -14 -9.5 -24t-23.5 -10t-24 10t-10 24t10 24t24 10t23.5 -10t9.5 -24zM598 0l-96 235h-320l-96 -235h-60l296 688h44l296 -688h-64zM374 551q-9 21 -14.5 38t-9.5 28 q-4 13 -7 23h-2q-3 -10 -7 -23q-4 -11 -10 -28t-14 -38l-113 -279h290z" />
<glyph unicode="&#xc5;" horiz-adv-x="688" d="M436 816q0 -32 -26.5 -54t-64.5 -22t-64.5 22t-26.5 54t26.5 54.5t64.5 22.5t64.5 -22.5t26.5 -54.5zM405 816q0 21 -17.5 35.5t-42.5 14.5t-42.5 -14.5t-17.5 -35.5t17.5 -35t42.5 -14t42.5 14t17.5 35zM598 0l-96 235h-320l-96 -235h-60l296 688h44l296 -688h-64z M374 551q-9 21 -14.5 38t-9.5 28q-4 13 -7 23h-2q-3 -10 -7 -23q-4 -11 -10 -28t-14 -38l-113 -279h290z" />
<glyph unicode="&#xc6;" horiz-adv-x="854" d="M553 0l-67 235h-304l-113 -235h-57l340 688h406v-39h-347l85 -272h261v-39h-250l93 -299h234v-39h-281zM385 582q-4 13 -6 24t-4 20q-2 10 -3 19h-2q-2 -8 -6 -19q-3 -9 -8 -20.5t-11 -24.5l-147 -309h277z" />
<glyph unicode="&#xc7;" horiz-adv-x="576" d="M418 -132q0 -44 -68 -64t-190 -12l20 26q43 -3 77.5 0t59.5 10.5t38.5 17.5t13.5 22q0 23 -33.5 35t-100.5 7l20 25q75 6 119 -10.5t44 -56.5zM531 24q-22 -14 -63 -25.5t-88 -11.5q-68 0 -126 27.5t-100.5 76t-66.5 113.5t-24 140q0 73 23 138t64 113.5t99 77t127 28.5 q53 0 91.5 -11t63.5 -26l-20 -34q-20 11 -52.5 21t-73.5 10q-65 0 -113.5 -27t-81.5 -71.5t-49.5 -101.5t-16.5 -117q0 -62 18 -119t52 -100.5t83 -69.5t111 -26q39 0 69.5 8.5t53.5 20.5z" />
<glyph unicode="&#xc8;" horiz-adv-x="491" d="M261 740l-128 134q3 7 10.5 11t18 4t22 -4t22.5 -11l87 -134h-32zM83 0v688h361v-39h-304v-272h276v-39h-276v-298h304v-40h-361z" />
<glyph unicode="&#xc9;" horiz-adv-x="491" d="M254 740h-32l87 134q10 7 22 11t22.5 4t18 -4t10.5 -11zM83 0v688h361v-39h-304v-272h276v-39h-276v-298h304v-40h-361z" />
<glyph unicode="&#xca;" horiz-adv-x="491" d="M384 743l-126 80l-128 -80l-15 13l114 98q14 13 27 13q15 0 29 -13l114 -98zM83 0v688h361v-39h-304v-272h276v-39h-276v-298h304v-40h-361z" />
<glyph unicode="&#xcb;" horiz-adv-x="491" d="M381 798q0 -14 -10 -24t-24 -10t-23.5 10t-9.5 24t9.5 24t23.5 10t24 -10t10 -24zM208 798q0 -14 -9.5 -24t-23.5 -10t-24 10t-10 24t10 24t24 10t23.5 -10t9.5 -24zM83 0v688h361v-39h-304v-272h276v-39h-276v-298h304v-40h-361z" />
<glyph unicode="&#xcc;" horiz-adv-x="237" d="M90 0v688h57v-688h-57zM145 740l-128 134q3 7 10.5 11t18 4t22 -4t22.5 -11l87 -134h-32z" />
<glyph unicode="&#xcd;" horiz-adv-x="237" d="M90 0v688h57v-688h-57zM92 740h-32l87 134q10 7 22 11t22.5 4t18 -4t10.5 -11z" />
<glyph unicode="&#xce;" horiz-adv-x="237" d="M90 0v688h57v-688h-57zM246 743l-126 80l-128 -80l-15 13l114 98q14 13 27 13q15 0 29 -13l114 -98z" />
<glyph unicode="&#xcf;" horiz-adv-x="237" d="M90 0v688h57v-688h-57zM239 798q0 -14 -10 -24t-24 -10t-23.5 10t-9.5 24t9.5 24t23.5 10t24 -10t10 -24zM66 798q0 -14 -9.5 -24t-23.5 -10t-24 10t-10 24t10 24t24 10t23.5 -10t9.5 -24z" />
<glyph unicode="&#xd0;" horiz-adv-x="724" d="M661 353q0 -83 -21.5 -150.5t-63.5 -115.5t-103.5 -74t-142.5 -26q-69 0 -119 11t-78 26v337h-82v28h82v275q35 16 82.5 26.5t111.5 10.5q77 0 138.5 -23.5t105 -68.5t67 -109.5t23.5 -146.5zM600 353q0 74 -19 132t-55.5 98t-88.5 61t-118 21q-39 0 -71 -5t-58 -13v-258 h164v-28h-164v-314q21 -7 56.5 -13t73.5 -6q71 0 123.5 22.5t87.5 64.5t52 102t17 136z" />
<glyph unicode="&#xd1;" horiz-adv-x="723" d="M525 809q-12 -29 -35.5 -40.5t-53.5 -11.5q-20 0 -36.5 6t-32 12.5t-31 12.5t-33.5 6q-26 0 -42 -10.5t-26 -30.5l-24 25q14 29 36 41t53 12q21 0 37.5 -6t31 -13.5t29 -13.5t32.5 -6q25 0 42.5 11.5t25.5 31.5zM581 0l-402 574q-11 14 -19.5 27.5t-15.5 24.5 q-8 12 -14 23h-2q0 -13 1 -28q1 -13 1.5 -29.5t0.5 -33.5v-558h-48v688h72l391 -557q11 -17 20.5 -31t15.5 -24l12 -21h2q-1 12 -2 26q-1 12 -1.5 28t-0.5 34v545h48v-688h-59z" />
<glyph unicode="&#xd2;" horiz-adv-x="720" d="M371 740l-128 134q6 15 29 15t44 -15l87 -134h-32zM657 344q0 -74 -17.5 -139t-54.5 -113.5t-93 -76.5t-132 -28q-77 0 -132.5 28t-92.5 76.5t-54.5 113.5t-17.5 139q0 73 17.5 138t54.5 114t92.5 77t132.5 28q76 0 132 -28t93 -77t54.5 -114t17.5 -138zM596 345 q0 57 -12.5 113.5t-40.5 101.5t-73 73.5t-110 28.5t-110 -28.5t-73 -73.5t-40.5 -101.5t-12.5 -113.5q0 -56 12 -112t39.5 -101t72.5 -73.5t112 -28.5t112.5 28.5t73 73.5t39 101t11.5 112z" />
<glyph unicode="&#xd3;" horiz-adv-x="720" d="M347 740h-32l87 134q11 7 22.5 11t22 4t18 -4t10.5 -11zM657 344q0 -74 -17.5 -139t-54.5 -113.5t-93 -76.5t-132 -28q-77 0 -132.5 28t-92.5 76.5t-54.5 113.5t-17.5 139q0 73 17.5 138t54.5 114t92.5 77t132.5 28q76 0 132 -28t93 -77t54.5 -114t17.5 -138zM596 345 q0 57 -12.5 113.5t-40.5 101.5t-73 73.5t-110 28.5t-110 -28.5t-73 -73.5t-40.5 -101.5t-12.5 -113.5q0 -56 12 -112t39.5 -101t72.5 -73.5t112 -28.5t112.5 28.5t73 73.5t39 101t11.5 112z" />
<glyph unicode="&#xd4;" horiz-adv-x="720" d="M487 743l-126 80l-128 -80l-15 13l114 98q14 13 27 13t29 -13l114 -98zM657 344q0 -74 -17.5 -139t-54.5 -113.5t-93 -76.5t-132 -28q-77 0 -132.5 28t-92.5 76.5t-54.5 113.5t-17.5 139q0 73 17.5 138t54.5 114t92.5 77t132.5 28q76 0 132 -28t93 -77t54.5 -114 t17.5 -138zM596 345q0 57 -12.5 113.5t-40.5 101.5t-73 73.5t-110 28.5t-110 -28.5t-73 -73.5t-40.5 -101.5t-12.5 -113.5q0 -56 12 -112t39.5 -101t72.5 -73.5t112 -28.5t112.5 28.5t73 73.5t39 101t11.5 112z" />
<glyph unicode="&#xd5;" horiz-adv-x="720" d="M518 809q-12 -29 -35.5 -40.5t-53.5 -11.5q-20 0 -36.5 6t-32 12.5t-31 12.5t-33.5 6q-49 0 -68 -41l-24 25q14 29 36 41t53 12q21 0 37 -6t31 -13.5t29.5 -13.5t32.5 -6q25 0 42.5 11.5t25.5 31.5zM657 344q0 -74 -17.5 -139t-54.5 -113.5t-93 -76.5t-132 -28 q-77 0 -132.5 28t-92.5 76.5t-54.5 113.5t-17.5 139q0 73 17.5 138t54.5 114t92.5 77t132.5 28q76 0 132 -28t93 -77t54.5 -114t17.5 -138zM596 345q0 57 -12.5 113.5t-40.5 101.5t-73 73.5t-110 28.5t-110 -28.5t-73 -73.5t-40.5 -101.5t-12.5 -113.5q0 -56 12 -112 t39.5 -101t72.5 -73.5t112 -28.5t112.5 28.5t73 73.5t39 101t11.5 112z" />
<glyph unicode="&#xd6;" horiz-adv-x="720" d="M480 798q0 -14 -10 -24t-24 -10t-23.5 10t-9.5 24t9.5 24t23.5 10t24 -10t10 -24zM307 798q0 -14 -9.5 -24t-23.5 -10t-24 10t-10 24t10 24t24 10t23.5 -10t9.5 -24zM657 344q0 -74 -17.5 -139t-54.5 -113.5t-93 -76.5t-132 -28q-77 0 -132.5 28t-92.5 76.5t-54.5 113.5 t-17.5 139q0 73 17.5 138t54.5 114t92.5 77t132.5 28q76 0 132 -28t93 -77t54.5 -114t17.5 -138zM596 345q0 57 -12.5 113.5t-40.5 101.5t-73 73.5t-110 28.5t-110 -28.5t-73 -73.5t-40.5 -101.5t-12.5 -113.5q0 -56 12 -112t39.5 -101t72.5 -73.5t112 -28.5t112.5 28.5 t73 73.5t39 101t11.5 112z" />
<glyph unicode="&#xd7;" d="M485 124l-193 183l-192 -182l-28 27l192 182l-192 183l28 28l192 -183l191 183l28 -28l-191 -183l192 -183z" />
<glyph unicode="&#xd8;" horiz-adv-x="720" d="M657 344q0 -74 -17.5 -139t-54.5 -113.5t-93 -76.5t-132 -28q-66 0 -116 20.5t-86 57.5l-72 -91l-22 17l75 95q-38 49 -57 115t-19 143q0 73 17.5 138t54.5 114t92.5 77t132.5 28q66 0 116 -20.5t86 -57.5l72 91l22 -17l-75 -95q38 -50 57 -116t19 -142zM532 585 q-29 36 -71.5 58t-100.5 22q-67 0 -113.5 -28.5t-75.5 -74t-42 -103t-13 -114.5t12.5 -114.5t42.5 -103.5zM604 345q0 57 -13 114t-42 103l-361 -459q29 -35 71 -55.5t101 -20.5q70 0 116.5 28.5t75 74t40.5 102.5t12 113z" />
<glyph unicode="&#xd9;" horiz-adv-x="645" d="M351 740l-128 134q3 7 10.5 11t18 4t22 -4t22.5 -11l87 -134h-32zM562 190q0 -42 -16 -78.5t-46.5 -64.5t-75.5 -44t-102 -16t-101.5 16t-75 44t-46.5 64.5t-16 78.5v498h57v-498q0 -37 16 -66t42 -49.5t59.5 -31t68.5 -10.5t68 10.5t59 31t42 49.5t16 66v498h51v-498z " />
<glyph unicode="&#xda;" horiz-adv-x="645" d="M309 740h-32l87 134q11 7 22.5 11t22 4t18 -4t10.5 -11zM562 190q0 -42 -16 -78.5t-46.5 -64.5t-75.5 -44t-102 -16t-101.5 16t-75 44t-46.5 64.5t-16 78.5v498h57v-498q0 -37 16 -66t42 -49.5t59.5 -31t68.5 -10.5t68 10.5t59 31t42 49.5t16 66v498h51v-498z" />
<glyph unicode="&#xdb;" horiz-adv-x="645" d="M452 743l-126 80l-128 -80l-15 13l114 98q14 13 27 13t29 -13l114 -98zM562 190q0 -42 -16 -78.5t-46.5 -64.5t-75.5 -44t-102 -16t-101.5 16t-75 44t-46.5 64.5t-16 78.5v498h57v-498q0 -37 16 -66t42 -49.5t59.5 -31t68.5 -10.5t68 10.5t59 31t42 49.5t16 66v498h51 v-498z" />
<glyph unicode="&#xdc;" horiz-adv-x="645" d="M446 798q0 -14 -10 -24t-24 -10t-23.5 10t-9.5 24t9.5 24t23.5 10t24 -10t10 -24zM273 798q0 -14 -9.5 -24t-23.5 -10t-24 10t-10 24t10 24t24 10t23.5 -10t9.5 -24zM562 190q0 -42 -16 -78.5t-46.5 -64.5t-75.5 -44t-102 -16t-101.5 16t-75 44t-46.5 64.5t-16 78.5v498 h57v-498q0 -37 16 -66t42 -49.5t59.5 -31t68.5 -10.5t68 10.5t59 31t42 49.5t16 66v498h51v-498z" />
<glyph unicode="&#xdd;" d="M321 313v-313h-57v313l-239 375h65l205 -336h2l208 336h57zM286 740h-32l87 134q10 7 22 11t22.5 4t18 -4t10.5 -11z" />
<glyph unicode="&#xde;" horiz-adv-x="565" d="M511 370q0 -41 -17.5 -77t-54 -63t-92 -42.5t-131.5 -15.5q-20 0 -39.5 1t-37.5 3v-176h-56v688h56v-127q26 7 59 11.5t63 4.5q63 0 110 -16t78 -43.5t46.5 -65.5t15.5 -82zM454 364q0 45 -15.5 78.5t-42.5 56t-63.5 33.5t-78.5 11q-29 0 -59 -3t-56 -10v-318 q17 -2 39.5 -3.5t43.5 -1.5q57 0 100.5 12.5t73 34t44 50t14.5 60.5z" />
<glyph unicode="&#xdf;" horiz-adv-x="603" d="M554 138q0 -29 -13.5 -56.5t-38.5 -48.5t-60 -33.5t-77 -12.5q-44 0 -76 13.5t-45 23.5l18 36q12 -11 41 -21.5t59 -10.5q28 0 53.5 8t44 23t29.5 35.5t11 44.5q0 31 -15 52t-37.5 36.5t-49 29t-49 30t-37.5 39.5t-15 58q0 53 39.5 85t102.5 44q7 19 9.5 35.5t2.5 36.5 q0 35 -7.5 67t-25.5 56.5t-46.5 39t-70.5 14.5q-48 0 -80 -19.5t-51 -51t-27 -72.5t-8 -83v-536h-54v535q0 52 12 99.5t38.5 84t68 58t101.5 21.5q53 0 91.5 -17.5t63.5 -47t37 -68.5t12 -82q0 -23 -5.5 -50.5t-12.5 -45.5q-66 -6 -103 -29.5t-37 -71.5q0 -27 15.5 -45 t38.5 -33t49.5 -29t49.5 -32.5t38.5 -44.5t15.5 -64z" />
<glyph unicode="&#xe0;" horiz-adv-x="544" d="M303 600l-128 134q3 7 10.5 11t18 4t22 -4t22.5 -11l87 -134h-32zM467 24q-35 -17 -84.5 -27t-109.5 -10q-59 0 -101 11.5t-69 32t-39.5 49t-12.5 62.5q0 56 28.5 92.5t78 60t116 35.5t141.5 19v37q0 36 -12 60.5t-34 39.5t-51.5 21t-64.5 6q-41 0 -82.5 -9.5 t-65.5 -21.5l-16 33q26 12 72.5 24.5t99.5 12.5q41 0 78.5 -8.5t66 -28t45 -51.5t16.5 -79v-361zM415 317q-70 -8 -127.5 -18.5t-98 -30t-62.5 -49.5t-22 -77q0 -32 12.5 -55t36 -38t56 -22t72.5 -7q42 0 76 7.5t57 18.5v271z" />
<glyph unicode="&#xe1;" horiz-adv-x="544" d="M269 600h-32l87 134q21 15 44 15t29 -15zM467 24q-35 -17 -84.5 -27t-109.5 -10q-59 0 -101 11.5t-69 32t-39.5 49t-12.5 62.5q0 56 28.5 92.5t78 60t116 35.5t141.5 19v37q0 36 -12 60.5t-34 39.5t-51.5 21t-64.5 6q-41 0 -82.5 -9.5t-65.5 -21.5l-16 33 q26 12 72.5 24.5t99.5 12.5q41 0 78.5 -8.5t66 -28t45 -51.5t16.5 -79v-361zM415 317q-70 -8 -127.5 -18.5t-98 -30t-62.5 -49.5t-22 -77q0 -32 12.5 -55t36 -38t56 -22t72.5 -7q42 0 76 7.5t57 18.5v271z" />
<glyph unicode="&#xe2;" horiz-adv-x="544" d="M397 603l-126 80l-128 -80l-15 13l114 98q14 13 27 13q15 0 29 -13l114 -98zM467 24q-35 -17 -84.5 -27t-109.5 -10q-59 0 -101 11.5t-69 32t-39.5 49t-12.5 62.5q0 56 28.5 92.5t78 60t116 35.5t141.5 19v37q0 36 -12 60.5t-34 39.5t-51.5 21t-64.5 6q-41 0 -82.5 -9.5 t-65.5 -21.5l-16 33q26 12 72.5 24.5t99.5 12.5q41 0 78.5 -8.5t66 -28t45 -51.5t16.5 -79v-361zM415 317q-70 -8 -127.5 -18.5t-98 -30t-62.5 -49.5t-22 -77q0 -32 12.5 -55t36 -38t56 -22t72.5 -7q42 0 76 7.5t57 18.5v271z" />
<glyph unicode="&#xe3;" horiz-adv-x="544" d="M434 669q-12 -29 -35.5 -40.5t-53.5 -11.5q-20 0 -36.5 6t-32 12.5t-31 12.5t-33.5 6q-49 0 -68 -41l-24 25q14 29 36 41t53 12q21 0 37.5 -6t31 -13.5t29 -13.5t32.5 -6q25 0 42.5 11.5t25.5 31.5zM467 24q-35 -17 -84.5 -27t-109.5 -10q-59 0 -101 11.5t-69 32 t-39.5 49t-12.5 62.5q0 56 28.5 92.5t78 60t116 35.5t141.5 19v37q0 36 -12 60.5t-34 39.5t-51.5 21t-64.5 6q-41 0 -82.5 -9.5t-65.5 -21.5l-16 33q26 12 72.5 24.5t99.5 12.5q41 0 78.5 -8.5t66 -28t45 -51.5t16.5 -79v-361zM415 317q-70 -8 -127.5 -18.5t-98 -30 t-62.5 -49.5t-22 -77q0 -32 12.5 -55t36 -38t56 -22t72.5 -7q42 0 76 7.5t57 18.5v271z" />
<glyph unicode="&#xe4;" horiz-adv-x="544" d="M405 658q0 -14 -10 -24t-24 -10t-23.5 10t-9.5 24t9.5 24t23.5 10t24 -10t10 -24zM232 658q0 -14 -9.5 -24t-23.5 -10t-24 10t-10 24t10 24t24 10t23.5 -10t9.5 -24zM467 24q-35 -17 -84.5 -27t-109.5 -10q-59 0 -101 11.5t-69 32t-39.5 49t-12.5 62.5q0 56 28.5 92.5 t78 60t116 35.5t141.5 19v37q0 36 -12 60.5t-34 39.5t-51.5 21t-64.5 6q-41 0 -82.5 -9.5t-65.5 -21.5l-16 33q26 12 72.5 24.5t99.5 12.5q41 0 78.5 -8.5t66 -28t45 -51.5t16.5 -79v-361zM415 317q-70 -8 -127.5 -18.5t-98 -30t-62.5 -49.5t-22 -77q0 -32 12.5 -55t36 -38 t56 -22t72.5 -7q42 0 76 7.5t57 18.5v271z" />
<glyph unicode="&#xe5;" horiz-adv-x="544" d="M375 676q0 -32 -26.5 -54t-64.5 -22t-64.5 22t-26.5 54t26.5 54.5t64.5 22.5t64.5 -22.5t26.5 -54.5zM344 676q0 21 -17.5 35.5t-42.5 14.5t-42.5 -14.5t-17.5 -35.5t17.5 -35t42.5 -14t42.5 14t17.5 35zM467 24q-35 -17 -84.5 -27t-109.5 -10q-59 0 -101 11.5t-69 32 t-39.5 49t-12.5 62.5q0 56 28.5 92.5t78 60t116 35.5t141.5 19v37q0 36 -12 60.5t-34 39.5t-51.5 21t-64.5 6q-41 0 -82.5 -9.5t-65.5 -21.5l-16 33q26 12 72.5 24.5t99.5 12.5q41 0 78.5 -8.5t66 -28t45 -51.5t16.5 -79v-361zM415 317q-70 -8 -127.5 -18.5t-98 -30 t-62.5 -49.5t-22 -77q0 -32 12.5 -55t36 -38t56 -22t72.5 -7q42 0 76 7.5t57 18.5v271z" />
<glyph unicode="&#xe6;" horiz-adv-x="923" d="M456 246q3 -57 21 -98t47.5 -67.5t67.5 -39t81 -12.5q54 0 91 11.5t60 22.5l21 -39q-26 -14 -72 -25.5t-103 -11.5q-71 0 -128 29t-92 83q-28 -55 -77.5 -83.5t-116.5 -28.5q-56 0 -95 12t-63.5 33t-35.5 49.5t-11 61.5q0 52 29 88t78.5 60t116 37.5t141.5 19.5v38 q0 35 -15 59.5t-39 39.5t-55 22t-64 7q-39 0 -75.5 -10.5t-59.5 -21.5l-17 33q25 14 69.5 25.5t96.5 11.5q64 0 115 -24.5t76 -86.5q15 29 37.5 50t48 34.5t53.5 20t55 6.5q51 0 92.5 -15t71 -46.5t46 -79.5t16.5 -114zM813 324q0 91 -44 141t-129 50q-41 0 -74.5 -14.5 t-58.5 -44t-38.5 -73.5t-13.5 -103zM416 313q-71 -8 -129.5 -18.5t-100 -29.5t-64 -48.5t-22.5 -74.5q0 -63 45 -92t114 -29q29 0 57 8.5t50.5 24t36 38t13.5 51.5v170z" />
<glyph unicode="&#xe7;" horiz-adv-x="477" d="M437 24q-18 -14 -55 -25.5t-88 -11.5t-94.5 20t-75.5 57t-50.5 89t-18.5 116q0 66 18 118t50.5 89t77.5 56.5t98 19.5t86.5 -11.5t51.5 -25.5l-17 -34q-15 10 -44 20.5t-67 10.5q-50 0 -87.5 -18.5t-62 -51t-37 -76t-12.5 -93.5q0 -53 14 -97.5t39.5 -76.5t61.5 -50.5 t81 -18.5q35 0 63.5 9.5t48.5 21.5zM354 -132q0 -44 -68 -64t-190 -12l20 26q43 -3 77.5 0t59.5 10.5t38.5 17.5t13.5 22q0 23 -33.5 35t-100.5 7l20 25q75 6 119 -10.5t44 -56.5z" />
<glyph unicode="&#xe8;" horiz-adv-x="583" d="M107 245q8 -108 67 -162t155 -54q54 0 92.5 11t62.5 23l21 -39q-26 -14 -73 -25.5t-104 -11.5q-58 0 -108 16t-86.5 50.5t-57.5 88t-21 129.5q0 71 19 124t52 88t77.5 52t95.5 17t93.5 -14.5t72.5 -45.5t46.5 -79.5t16.5 -115.5zM473 324q0 51 -13 87t-36.5 59.5 t-55.5 34t-71 10.5t-73.5 -14t-60.5 -43t-41.5 -74t-15.5 -106zM315 600l-128 134q3 7 10.5 11t18 4t22 -4t22.5 -11l87 -134h-32z" />
<glyph unicode="&#xe9;" horiz-adv-x="583" d="M293 600h-32l87 134q11 7 22.5 11t22 4t18 -4t10.5 -11zM107 245q8 -108 67 -162t155 -54q54 0 92.5 11t62.5 23l21 -39q-26 -14 -73 -25.5t-104 -11.5q-58 0 -108 16t-86.5 50.5t-57.5 88t-21 129.5q0 71 19 124t52 88t77.5 52t95.5 17t93.5 -14.5t72.5 -45.5 t46.5 -79.5t16.5 -115.5zM473 324q0 51 -13 87t-36.5 59.5t-55.5 34t-71 10.5t-73.5 -14t-60.5 -43t-41.5 -74t-15.5 -106z" />
<glyph unicode="&#xea;" horiz-adv-x="583" d="M107 245q8 -108 67 -162t155 -54q54 0 92.5 11t62.5 23l21 -39q-26 -14 -73 -25.5t-104 -11.5q-58 0 -108 16t-86.5 50.5t-57.5 88t-21 129.5q0 71 19 124t52 88t77.5 52t95.5 17t93.5 -14.5t72.5 -45.5t46.5 -79.5t16.5 -115.5zM473 324q0 51 -13 87t-36.5 59.5 t-55.5 34t-71 10.5t-73.5 -14t-60.5 -43t-41.5 -74t-15.5 -106zM424 603l-126 80l-128 -80l-15 13l114 98q14 13 27 13q15 0 29 -13l114 -98z" />
<glyph unicode="&#xeb;" horiz-adv-x="583" d="M107 245q8 -108 67 -162t155 -54q54 0 92.5 11t62.5 23l21 -39q-26 -14 -73 -25.5t-104 -11.5q-58 0 -108 16t-86.5 50.5t-57.5 88t-21 129.5q0 71 19 124t52 88t77.5 52t95.5 17t93.5 -14.5t72.5 -45.5t46.5 -79.5t16.5 -115.5zM473 324q0 51 -13 87t-36.5 59.5 t-55.5 34t-71 10.5t-73.5 -14t-60.5 -43t-41.5 -74t-15.5 -106zM422 658q0 -14 -10 -24t-24 -10t-23.5 10t-9.5 24t9.5 24t23.5 10t24 -10t10 -24zM249 658q0 -14 -9.5 -24t-23.5 -10t-24 10t-10 24t10 24t24 10t23.5 -10t9.5 -24z" />
<glyph unicode="&#xec;" horiz-adv-x="224" d="M138 600l-128 134q3 7 10.5 11t18 4t22 -4t22.5 -11l87 -134h-32zM85 0v539h54v-539h-54z" />
<glyph unicode="&#xed;" horiz-adv-x="224" d="M85 0v539h54v-539h-54zM86 600h-32l87 134q10 7 22 11t22.5 4t18 -4t10.5 -11z" />
<glyph unicode="&#xee;" horiz-adv-x="224" d="M85 0v539h54v-539h-54zM239 603l-126 80l-128 -80l-15 13l114 98q14 13 27 13q15 0 29 -13l114 -98z" />
<glyph unicode="&#xef;" horiz-adv-x="224" d="M85 0v539h54v-539h-54zM232 658q0 -14 -10 -24t-24 -10t-23.5 10t-9.5 24t9.5 24t23.5 10t24 -10t10 -24zM59 658q0 -14 -9.5 -24t-23.5 -10t-24 10t-10 24t10 24t24 10t23.5 -10t9.5 -24z" />
<glyph unicode="&#xf0;" horiz-adv-x="573" d="M516 263q0 -59 -12 -109.5t-39 -87.5t-70 -58t-106 -21q-57 0 -100.5 19t-73 55t-45 87t-15.5 115q0 49 12.5 99.5t41 91t76 66t116.5 25.5q32 0 52 -3t42 -9q-25 52 -48.5 88t-50.5 73l-105 -27l-18 24l106 28q-11 14 -25.5 31t-28.5 31l42 11q16 -15 29 -30t26 -32 l91 23l18 -24l-92 -24q37 -50 69 -104t56 -110t38 -113.5t14 -114.5zM461 266q0 28 -4.5 60t-12 63.5t-17.5 60.5t-20 52q-25 6 -46.5 9.5t-49.5 3.5q-57 0 -95.5 -22t-62 -58t-34 -81t-10.5 -91q0 -45 9.5 -88t31 -76t56.5 -53.5t85 -20.5q51 0 83.5 21.5t52 56t27 77.5 t7.5 86z" />
<glyph unicode="&#xf1;" horiz-adv-x="577" d="M443 669q-12 -29 -36 -40.5t-53 -11.5q-20 0 -36.5 6t-32 12.5t-31 12.5t-33.5 6q-49 0 -68 -41l-24 25q14 29 36 41t53 12q21 0 37 -6t31 -13.5t29.5 -13.5t32.5 -6q25 0 42.5 11.5t25.5 31.5zM446 0v395q0 34 -16 57t-41.5 37t-58 20t-65.5 6q-38 0 -74 -6.5t-60 -16.5 v-492h-54v515q35 16 88.5 26.5t110.5 10.5q43 0 83 -8t71.5 -26t50.5 -47.5t19 -73.5v-397h-54z" />
<glyph unicode="&#xf2;" horiz-adv-x="588" d="M299 600l-128 134q3 7 10.5 11t18 4t22 -4t22.5 -11l87 -134h-32zM533 269q0 -59 -13.5 -110.5t-43 -89.5t-74.5 -60t-108 -22t-108 22t-74.5 60t-43 89.5t-13.5 110.5t13.5 110.5t43 90t74.5 60.5t108 22t108 -22t74.5 -60.5t43 -90t13.5 -110.5zM479 268q0 43 -9 87.5 t-30 79.5t-56.5 57.5t-89.5 22.5t-89.5 -22.5t-56.5 -57.5t-30 -79.5t-9 -87.5q0 -44 9 -87t31 -77t57 -55.5t88 -21.5q54 0 89.5 21.5t56.5 55.5t30 77t9 87z" />
<glyph unicode="&#xf3;" horiz-adv-x="588" d="M533 269q0 -59 -13.5 -110.5t-43 -89.5t-74.5 -60t-108 -22t-108 22t-74.5 60t-43 89.5t-13.5 110.5t13.5 110.5t43 90t74.5 60.5t108 22t108 -22t74.5 -60.5t43 -90t13.5 -110.5zM479 268q0 43 -9 87.5t-30 79.5t-56.5 57.5t-89.5 22.5t-89.5 -22.5t-56.5 -57.5 t-30 -79.5t-9 -87.5q0 -44 9 -87t31 -77t57 -55.5t88 -21.5q54 0 89.5 21.5t56.5 55.5t30 77t9 87zM285 600h-32l87 134q10 7 22 11t22.5 4t18 -4t10.5 -11z" />
<glyph unicode="&#xf4;" horiz-adv-x="588" d="M422 603l-126 80l-127 -80l-15 13l113 98q16 13 27 13q15 0 29 -13l114 -98zM533 269q0 -59 -13.5 -110.5t-43 -89.5t-74.5 -60t-108 -22t-108 22t-74.5 60t-43 89.5t-13.5 110.5t13.5 110.5t43 90t74.5 60.5t108 22t108 -22t74.5 -60.5t43 -90t13.5 -110.5zM479 268 q0 43 -9 87.5t-30 79.5t-56.5 57.5t-89.5 22.5t-89.5 -22.5t-56.5 -57.5t-30 -79.5t-9 -87.5q0 -44 9 -87t31 -77t57 -55.5t88 -21.5q54 0 89.5 21.5t56.5 55.5t30 77t9 87z" />
<glyph unicode="&#xf5;" horiz-adv-x="588" d="M446 669q-12 -29 -36 -40.5t-53 -11.5q-20 0 -36.5 6t-32 12.5t-31 12.5t-33.5 6q-49 0 -68 -41l-24 25q14 29 36 41t53 12q21 0 37 -6t31 -13.5t29.5 -13.5t32.5 -6q25 0 42.5 11.5t25.5 31.5zM533 269q0 -59 -13.5 -110.5t-43 -89.5t-74.5 -60t-108 -22t-108 22 t-74.5 60t-43 89.5t-13.5 110.5t13.5 110.5t43 90t74.5 60.5t108 22t108 -22t74.5 -60.5t43 -90t13.5 -110.5zM479 268q0 43 -9 87.5t-30 79.5t-56.5 57.5t-89.5 22.5t-89.5 -22.5t-56.5 -57.5t-30 -79.5t-9 -87.5q0 -44 9 -87t31 -77t57 -55.5t88 -21.5q54 0 89.5 21.5 t56.5 55.5t30 77t9 87z" />
<glyph unicode="&#xf6;" horiz-adv-x="588" d="M413 658q0 -14 -10 -24t-24 -10t-23.5 10t-9.5 24t9.5 24t23.5 10t24 -10t10 -24zM240 658q0 -14 -9.5 -24t-23.5 -10t-24 10t-10 24t10 24t24 10t23.5 -10t9.5 -24zM533 269q0 -59 -13.5 -110.5t-43 -89.5t-74.5 -60t-108 -22t-108 22t-74.5 60t-43 89.5t-13.5 110.5 t13.5 110.5t43 90t74.5 60.5t108 22t108 -22t74.5 -60.5t43 -90t13.5 -110.5zM479 268q0 43 -9 87.5t-30 79.5t-56.5 57.5t-89.5 22.5t-89.5 -22.5t-56.5 -57.5t-30 -79.5t-9 -87.5q0 -44 9 -87t31 -77t57 -55.5t88 -21.5q54 0 89.5 21.5t56.5 55.5t30 77t9 87z" />
<glyph unicode="&#xf7;" d="M333 491q0 -17 -12.5 -29.5t-29.5 -12.5t-29.5 12.5t-12.5 29.5t12.5 29.5t29.5 12.5t29.5 -12.5t12.5 -29.5zM70 314v40h444v-40h-444zM333 176q0 -17 -12.5 -29.5t-29.5 -12.5t-29.5 12.5t-12.5 29.5t12.5 29.5t29.5 12.5t29.5 -12.5t12.5 -29.5z" />
<glyph unicode="&#xf8;" horiz-adv-x="588" d="M533 269q0 -59 -13.5 -110.5t-43 -89.5t-74.5 -60t-108 -22q-51 0 -89 14t-67 40l-62 -82l-20 16l64 84q-34 38 -49.5 92.5t-15.5 117.5q0 59 13.5 110.5t43 90t74.5 60.5t108 22q51 0 90 -14.5t67 -40.5l61 80l20 -16l-63 -83q33 -38 48.5 -92t15.5 -117zM426 464 q-22 26 -54.5 42t-77.5 16q-55 0 -91.5 -23t-58.5 -59.5t-31 -81.5t-9 -90q0 -46 10 -91.5t34 -80.5zM484 268q0 46 -9.5 91.5t-32.5 82.5l-278 -367q22 -26 54 -40.5t76 -14.5q55 0 91.5 22t58.5 57.5t31 79.5t9 89z" />
<glyph unicode="&#xf9;" horiz-adv-x="564" d="M307 600l-128 134q6 15 29 15t44 -15l87 -134h-32zM487 24q-25 -14 -80 -25.5t-124 -11.5q-56 0 -95 14t-64 38t-36 56t-11 68v376h54v-375q0 -60 40.5 -98.5t118.5 -38.5q46 0 83.5 7t59.5 18v487h54v-515z" />
<glyph unicode="&#xfa;" horiz-adv-x="564" d="M270 600h-32l87 134q21 15 44 15t29 -15zM487 24q-25 -14 -80 -25.5t-124 -11.5q-56 0 -95 14t-64 38t-36 56t-11 68v376h54v-375q0 -60 40.5 -98.5t118.5 -38.5q46 0 83.5 7t59.5 18v487h54v-515z" />
<glyph unicode="&#xfb;" horiz-adv-x="564" d="M409 603l-126 80l-128 -80l-15 13l114 98q14 13 27 13q15 0 29 -13l114 -98zM487 24q-25 -14 -80 -25.5t-124 -11.5q-56 0 -95 14t-64 38t-36 56t-11 68v376h54v-375q0 -60 40.5 -98.5t118.5 -38.5q46 0 83.5 7t59.5 18v487h54v-515z" />
<glyph unicode="&#xfc;" horiz-adv-x="564" d="M402 658q0 -14 -10 -24t-24 -10t-23.5 10t-9.5 24t9.5 24t23.5 10t24 -10t10 -24zM229 658q0 -14 -9.5 -24t-23.5 -10t-24 10t-10 24t10 24t24 10t23.5 -10t9.5 -24zM487 24q-25 -14 -80 -25.5t-124 -11.5q-56 0 -95 14t-64 38t-36 56t-11 68v376h54v-375 q0 -60 40.5 -98.5t118.5 -38.5q46 0 83.5 7t59.5 18v487h54v-515z" />
<glyph unicode="&#xfd;" horiz-adv-x="545" d="M211 -215h-63l106 215l-218 539h61l158 -425q5 -13 8.5 -24.5t6.5 -21.5q4 -11 7 -22h2q2 11 6 22q3 10 7 21.5t9 24.5l161 425h50zM264 600h-32l87 134q10 7 22 11t22.5 4t18 -4t10.5 -11z" />
<glyph unicode="&#xfe;" horiz-adv-x="575" d="M520 278q0 -68 -21 -121.5t-57.5 -90.5t-87.5 -56.5t-111 -19.5q-24 0 -54 3t-59 10v-218h-53v1000h53v-262q26 12 59.5 19.5t61.5 7.5q67 0 117.5 -20t84 -56t50.5 -86t17 -110zM466 273q0 51 -13 95.5t-40 77.5t-68.5 52t-98.5 19q-28 0 -60 -6t-56 -17v-457 q19 -6 49 -10t54 -4q64 0 108.5 22t72 58t40 80.5t12.5 89.5z" />
<glyph unicode="&#xff;" horiz-adv-x="545" d="M211 -215h-63l106 215l-218 539h61l158 -425q5 -13 8.5 -24.5t6.5 -21.5q4 -11 7 -22h2q2 11 6 22q3 10 7 21.5t9 24.5l161 425h50zM396 658q0 -14 -10 -24t-24 -10t-23.5 10t-9.5 24t9.5 24t23.5 10t24 -10t10 -24zM223 658q0 -14 -9.5 -24t-23.5 -10t-24 10t-10 24 t10 24t24 10t23.5 -10t9.5 -24z" />
<glyph unicode="&#x131;" horiz-adv-x="224" d="M85 0v539h54v-539h-54z" />
<glyph unicode="&#x141;" horiz-adv-x="476" d="M113 0v437l-80 -35v30l80 35v221h57v-196l88 38v-29l-88 -39v-423h273v-39h-330z" />
<glyph unicode="&#x142;" horiz-adv-x="302" d="M178 462v-462h-54v440l-89 -41v34l89 38v314h54v-292l89 39v-31z" />
<glyph unicode="&#x152;" horiz-adv-x="882" d="M483 0q-14 -5 -43 -9t-58 -4q-83 0 -143 28.5t-99 77t-58 113.5t-19 138t19 138t58 113.5t99 77t143 28.5q30 0 55.5 -4t44.5 -9h353v-39h-298v-272h272v-39h-272v-298h298v-40h-352zM483 654q-17 5 -45.5 8.5t-55.5 3.5q-52 0 -92 -15t-69 -40.5t-48 -59t-30.5 -69 t-16 -71.5t-4.5 -67t4.5 -67t16 -71.5t31 -68t48.5 -57.5t68.5 -40t91.5 -15q28 0 57.5 3.5t43.5 7.5v618z" />
<glyph unicode="&#x153;" horiz-adv-x="972" d="M505 246q6 -62 25.5 -103.5t49 -66.5t67.5 -36t80 -11q53 0 86.5 11t59.5 23l21 -39q-26 -14 -67.5 -25.5t-103.5 -11.5q-36 0 -71 8.5t-66 26t-56.5 44t-41.5 63.5q-26 -69 -76.5 -105.5t-122.5 -36.5q-63 0 -107 22t-72.5 60t-41.5 89.5t-13 110.5q0 60 13.5 111.5 t42 90t73 60t105.5 21.5q71 0 118.5 -34t77.5 -95q35 68 89 98.5t114 30.5q50 0 92 -14.5t72.5 -45t47.5 -79t17 -116.5zM862 324q0 51 -13 87.5t-36.5 59.5t-56 33.5t-70.5 10.5q-39 0 -72 -14.5t-57.5 -43.5t-38.5 -73.5t-14 -104.5zM462 269q0 49 -7.5 94t-27 79.5 t-53 54.5t-85.5 20q-56 0 -91.5 -25.5t-55 -63t-26.5 -81t-7 -78.5t7.5 -77t27.5 -79.5t55 -62.5t90 -25q57 0 91.5 25t52.5 62.5t23.5 79.5t5.5 77z" />
<glyph unicode="&#x160;" horiz-adv-x="535" d="M474 189q0 -44 -18.5 -81t-50.5 -64t-77 -42t-97 -15q-60 0 -108.5 11.5t-75.5 25.5l22 40q26 -13 65.5 -23t87.5 -10q42 0 77 11.5t61 31.5t40.5 48.5t14.5 63.5q0 47 -26 74t-65 45.5t-84 32.5t-84 34.5t-65 53.5t-26 88q0 37 15.5 70.5t45 59.5t71 41.5t93.5 15.5 q54 0 96.5 -12t65.5 -25l-20 -37q-20 12 -58.5 23t-80.5 11q-38 0 -69.5 -10.5t-53.5 -30t-34 -46t-12 -58.5q0 -45 26 -70.5t65 -43t84 -31.5t84 -35.5t65 -55.5t26 -91zM288 756q-14 -13 -29 -13q-13 0 -27 13l-114 98l14 13l129 -81l127 81l14 -13z" />
<glyph unicode="&#x161;" horiz-adv-x="463" d="M264 616q-14 -13 -29 -13q-13 0 -27 13l-114 98l14 13l129 -81l127 81l14 -13zM410 144q0 -28 -15 -56t-42.5 -50.5t-66 -36.5t-84.5 -14q-50 0 -93 11.5t-66 25.5l20 38q19 -12 54.5 -22.5t81.5 -10.5q32 0 60.5 9t49.5 24.5t33 36.5t12 44q0 40 -21.5 62.5t-53.5 36.5 t-69.5 24.5t-69.5 27t-53.5 43.5t-21.5 74q0 25 12.5 50.5t36.5 45.5t59 32.5t80 12.5q46 0 82 -12t56 -25l-20 -35q-14 9 -43.5 21t-71.5 12q-32 0 -57.5 -8t-43.5 -22t-27.5 -32.5t-9.5 -38.5q0 -36 21.5 -57t54 -34.5t70.5 -25t70.5 -29t54 -46t21.5 -76.5z" />
<glyph unicode="&#x178;" d="M321 313v-313h-57v313l-239 375h65l205 -336h2l208 336h57zM418 798q0 -14 -10 -24t-24 -10t-23.5 10t-9.5 24t9.5 24t23.5 10t24 -10t10 -24zM245 798q0 -14 -9.5 -24t-23.5 -10t-24 10t-10 24t10 24t24 10t23.5 -10t9.5 -24z" />
<glyph unicode="&#x17d;" horiz-adv-x="489" d="M28 0l336 649h-323v39h405l-333 -648h343v-40h-428zM268 756q-14 -13 -29 -13q-13 0 -27 13l-114 98l14 13l129 -81l127 81l14 -13z" />
<glyph unicode="&#x17e;" horiz-adv-x="468" d="M33 0l303 508h-284v31h361l-298 -505h310v-34h-392zM260 616q-14 -13 -29 -13q-13 0 -27 13l-114 98l14 13l129 -81l127 81l14 -13z" />
<glyph unicode="&#x192;" horiz-adv-x="632" d="M572 650q-11 4 -25.5 7t-31.5 3q-38 0 -62.5 -18.5t-40 -45.5t-24 -58t-14.5 -55l-17 -73h139v-31h-147l-82 -375q-8 -35 -20 -74.5t-34.5 -74t-57.5 -57t-88 -22.5q-15 0 -29.5 2.5t-22.5 7.5l8 39q18 -8 38 -8q33 0 58 13.5t43 39.5t31.5 64t24.5 88l79 357h-136v31 h143l17 75q10 46 23 85t34 67.5t53 45t81 16.5q23 0 41 -4.5t29 -9.5z" />
<glyph unicode="&#x2c6;" horiz-adv-x="240" d="M247 603l-126 80l-128 -80l-15 13l114 98q14 13 27 13q15 0 29 -13l114 -98z" />
<glyph unicode="&#x2c7;" horiz-adv-x="240" d="M148 616q-14 -13 -29 -13q-13 0 -27 13l-114 98l14 13l129 -81l127 81l14 -13z" />
<glyph unicode="&#x2d8;" horiz-adv-x="240" d="M264 708q0 -16 -8 -34.5t-25.5 -34.5t-45 -27t-66.5 -11t-66 11t-44 27t-25 34.5t-8 34.5l21 10q9 -35 38 -57.5t83 -22.5t85 22t40 58l21 -10v0z" />
<glyph unicode="&#x2d9;" horiz-adv-x="240" d="M157 689q0 -15 -11 -26t-26 -11t-26 11t-11 26t11 26t26 11t26 -11t11 -26z" />
<glyph unicode="&#x2da;" horiz-adv-x="240" d="M211 676q0 -32 -26.5 -54t-64.5 -22t-64.5 22t-26.5 54t26.5 54.5t64.5 22.5t64.5 -22.5t26.5 -54.5zM180 676q0 21 -17.5 35.5t-42.5 14.5t-42.5 -14.5t-17.5 -35.5t17.5 -35t42.5 -14t42.5 14t17.5 35z" />
<glyph unicode="&#x2db;" horiz-adv-x="240" d="M271 -147q-45 -15 -83.5 -18t-67 4t-45 21t-16.5 34q0 24 29 53t95 58h56q-64 -26 -95.5 -54.5t-31.5 -50.5q0 -24 38 -32.5t116 11.5l5 -26v0z" />
<glyph unicode="&#x2dc;" horiz-adv-x="240" d="M277 669q-12 -29 -35.5 -40.5t-53.5 -11.5q-20 0 -36.5 6t-32 12.5t-31 12.5t-33.5 6q-49 0 -68 -41l-24 25q14 29 36 41t53 12q21 0 37.5 -6t31 -13.5t29 -13.5t32.5 -6q25 0 42.5 11.5t25.5 31.5l27 -26v0z" />
<glyph unicode="&#x2dd;" horiz-adv-x="240" d="M140 598h-34l109 126q8 5 19.5 9.5t29.5 4.5q13 0 17.5 -3t4.5 -10zM7 598h-34l109 126q8 5 19.5 9.5t29.5 4.5q13 0 17.5 -3t4.5 -10z" />
<glyph unicode="&#x2013;" horiz-adv-x="460" d="M0 313v45h460v-45h-460z" />
<glyph unicode="&#x2014;" horiz-adv-x="920" d="M0 316v39h920v-39h-920z" />
<glyph unicode="&#x2018;" horiz-adv-x="265" d="M124 559q-7 -6 -16 -12t-27 -6q-11 0 -15 6.5t-6 11.5l131 226h29z" />
<glyph unicode="&#x2019;" horiz-adv-x="265" d="M73 547h-28l95 226q7 6 16.5 12t27.5 6q11 0 15 -6.5t6 -11.5z" />
<glyph unicode="&#x201a;" horiz-adv-x="265" d="M73 -169h-28l95 226q7 6 16.5 12t27.5 6q11 0 15 -6.5t6 -11.5z" />
<glyph unicode="&#x201c;" horiz-adv-x="425" d="M285 559q-7 -6 -16.5 -12t-27.5 -6q-11 0 -15 6.5t-6 11.5l132 226h28zM124 559q-7 -6 -16 -12t-27 -6q-11 0 -15 6.5t-6 11.5l131 226h29z" />
<glyph unicode="&#x201d;" horiz-adv-x="425" d="M234 547h-29l96 226q7 6 16 12t27 6q11 0 15 -6.5t6 -11.5zM73 547h-28l95 226q7 6 16.5 12t27.5 6q11 0 15 -6.5t6 -11.5z" />
<glyph unicode="&#x201e;" horiz-adv-x="425" d="M234 -169h-29l96 226q7 6 16 12t27 6q11 0 15 -6.5t6 -11.5zM73 -169h-28l95 226q7 6 16.5 12t27.5 6q11 0 15 -6.5t6 -11.5z" />
<glyph unicode="&#x2020;" horiz-adv-x="616" d="M327 497l8 -712h-56l8 712l-227 -6v51l227 -6l-8 249h56l-8 -249l229 6v-51z" />
<glyph unicode="&#x2021;" horiz-adv-x="616" d="M328 63l8 -278h-56l8 278l-228 -6v51l228 -6v396l-228 -6v51l228 -6l-8 248h56l-8 -248l228 6v-51l-228 6v-396l228 6v-51z" />
<glyph unicode="&#x2022;" horiz-adv-x="300" d="M225 353q0 -31 -22 -53t-53 -22t-53 22t-22 53t22 53t53 22t53 -22t22 -53z" />
<glyph unicode="&#x2026;" horiz-adv-x="714" d="M639 39q0 -18 -13 -31t-31 -13t-31 13t-13 31t13 31t31 13t31 -13t13 -31zM401 39q0 -18 -13 -31t-31 -13t-31 13t-13 31t13 31t31 13t31 -13t13 -31zM163 39q0 -18 -13 -31t-31 -13t-31 13t-13 31t13 31t31 13t31 -13t13 -31z" />
<glyph unicode="&#x2030;" horiz-adv-x="1361" d="M1286 222q0 -39 -6.5 -80.5t-23.5 -76t-46 -56.5t-74 -22t-74 22t-46 56.5t-23.5 76t-6.5 80.5t6.5 80.5t23.5 75t46 55.5t74 22t74 -22t46 -55.5t23.5 -75t6.5 -80.5zM891 222q0 -39 -6.5 -80.5t-23.5 -76t-46 -56.5t-74 -22t-74 22t-46 56.5t-23.5 76t-6.5 80.5 t6.5 80.5t23.5 75t46 55.5t74 22t74 -22t46 -55.5t23.5 -75t6.5 -80.5zM359 -7l-32 12l279 689l30 -11zM375 468q0 -39 -6.5 -80.5t-23.5 -76t-46 -56.5t-74 -22t-74 22t-46 56.5t-23.5 76t-6.5 80.5t6.5 80.5t23.5 75t46 55.5t74 22t74 -22t46 -55.5t23.5 -75t6.5 -80.5z M1245 224q0 30 -4 65.5t-16 67t-33.5 52.5t-55.5 21q-35 0 -56 -21t-33 -52.5t-16 -67t-4 -65.5t4 -65.5t16 -67t33 -52.5t56 -21q34 0 55.5 21t33.5 52.5t16 67t4 65.5zM850 224q0 30 -4 65.5t-16 67t-33.5 52.5t-55.5 21q-35 0 -56 -21t-33 -52.5t-16 -67t-4 -65.5 t4 -65.5t16 -67t33 -52.5t56 -21q34 0 55.5 21t33.5 52.5t16 67t4 65.5zM334 470q0 30 -4 65.5t-16 67t-33.5 52.5t-55.5 21q-35 0 -56 -21t-33 -52.5t-16 -67t-4 -65.5t4 -65.5t16 -67t33 -52.5t56 -21q34 0 55.5 21t33.5 52.5t16 67t4 65.5z" />
<glyph unicode="&#x2039;" horiz-adv-x="368" d="M259 126l-189 208l189 208l29 -27l-168 -181l168 -181z" />
<glyph unicode="&#x203a;" horiz-adv-x="368" d="M109 126l-29 27l168 181l-168 181l29 27l189 -208z" />
<glyph unicode="&#x2044;" horiz-adv-x="202" d="M-84 -10l-36 20l405 689l37 -20z" />
<glyph unicode="&#x2122;" horiz-adv-x="896" d="M774 340l-45 323l-114 -323h-36l-118 323l-44 -323h-38l50 348h60l109 -317l104 317h58l56 -348h-42zM214 659v-319h-37v319h-123v29h281v-29h-121z" />
<glyph unicode="&#x2212;" d="M70 314v40h444v-40h-444z" />
<glyph unicode="&#x25fc;" horiz-adv-x="540" d="M0 540h540v-540h-540v540z" />
<glyph unicode="&#xfb01;" horiz-adv-x="545" d="M471 689q0 -17 -11 -28t-28 -11t-28 11t-11 28t11 28t28 11t28 -11t11 -28zM405 0v539h54v-539h-54zM187 508v-508h-54v508h-90v31h90v86q0 34 10.5 63t31.5 50.5t53.5 34t76.5 12.5h10v-34h-8q-23 0 -44.5 -7t-38 -21.5t-27 -36.5t-10.5 -52v-95h128v-31h-128z" />
<glyph unicode="&#xfb02;" horiz-adv-x="550" d="M411 0v785h54v-785h-54zM187 508v-508h-54v508h-90v31h90v86q0 34 10.5 63t31.5 50.5t53.5 34t76.5 12.5h10v-34h-8q-23 0 -44.5 -7t-38 -21.5t-27 -36.5t-10.5 -52v-95h128v-31h-128z" />
</font>
</defs>
</svg>
